M48
; DRILL file {KiCad 8.0.8+1} date 2025-03-02T18:10:17+0000
; FORMAT={-:-/ absolute / metric / decimal}
; #@! TF.CreationDate,2025-03-02T18:10:17+00:00
; #@! TF.GenerationSoftware,Kicad,Pcbnew,8.0.8+1
; #@! TF.FileFunction,Plated,1,4,PTH
FMAT,2
METRIC
; #@! TA.AperFunction,Plated,PTH,ViaDrill
T1C0.250
; #@! TA.AperFunction,Plated,PTH,ComponentDrill
T2C3.200
%
G90
G05
T1
X135.4Y-92.65
X135.4Y-93.45
X136.45Y-85.95
X136.8Y-83.65
X136.8Y-84.45
X137.6Y-82.85
X138.35Y-83.65
X139.35Y-88.05
X139.6Y-81.25
X139.8Y-91.75
X140.2Y-88.05
X140.4Y-81.25
X141.2Y-81.95
X142.8Y-96.45
X142.8Y-97.25
X144.5Y-98.0
X144.75Y-93.8
X145.4Y-98.0
X145.9Y-84.85
X146.75Y-84.85
X147.2Y-97.2
X147.25Y-88.05
X147.85Y-88.65
X148.8Y-96.45
X148.85Y-95.65
X150.7Y-86.4
X151.5Y-84.6
X151.5Y-85.45
X152.05Y-90.1
X153.95Y-86.45
X153.95Y-92.05
X154.5Y-87.45
X156.0Y-89.5
X157.05Y-86.35
X157.5Y-91.975
X160.8Y-92.975
X160.85Y-91.2
X161.8Y-89.65
X162.65Y-87.9
T2
X135.5Y-79.25
X135.6Y-99.25
X161.5Y-79.25
X161.5Y-99.25
M30
