%TF.GenerationSoftware,KiCad,Pcbnew,8.0.8+1*%
%TF.CreationDate,Date%
%TF.ProjectId,KiBot_Project_Test,4b69426f-745f-4507-926f-6a6563745f54,1.0.1*%
%TF.SameCoordinates,Original*%
%TF.FileFunction,Copper,L1,Top*%
%TF.FilePolarity,Positive*%
%FSLAX46Y46*%
G04 Gerber Fmt 4.6, Leading zero omitted, Abs format (unit mm)*
G04 Created by KiCad*
%MOMM*%
%LPD*%
G01*
G04 APERTURE LIST*
G04 Aperture macros list*
%AMRoundRect*
0 Rectangle with rounded corners*
0 $1 Rounding radius*
0 $2 $3 $4 $5 $6 $7 $8 $9 X,Y pos of 4 corners*
0 Add a 4 corners polygon primitive as box body*
4,1,4,$2,$3,$4,$5,$6,$7,$8,$9,$2,$3,0*
0 Add four circle primitives for the rounded corners*
1,1,$1+$1,$2,$3*
1,1,$1+$1,$4,$5*
1,1,$1+$1,$6,$7*
1,1,$1+$1,$8,$9*
0 Add four rect primitives between the rounded corners*
20,1,$1+$1,$2,$3,$4,$5,0*
20,1,$1+$1,$4,$5,$6,$7,0*
20,1,$1+$1,$6,$7,$8,$9,0*
20,1,$1+$1,$8,$9,$2,$3,0*%
G04 Aperture macros list end*
%TA.AperFunction,SMDPad,CuDef*%
%ADD10RoundRect,0.137500X-0.137500X-0.137500X0.137500X-0.137500X0.137500X0.137500X-0.137500X0.137500X0*%
%TD*%
%TA.AperFunction,SMDPad,CuDef*%
%ADD11RoundRect,0.140000X0.140000X0.170000X-0.140000X0.170000X-0.140000X-0.170000X0.140000X-0.170000X0*%
%TD*%
%TA.AperFunction,SMDPad,CuDef*%
%ADD12R,0.254000X0.675000*%
%TD*%
%TA.AperFunction,SMDPad,CuDef*%
%ADD13R,0.675000X0.254000*%
%TD*%
%TA.AperFunction,SMDPad,CuDef*%
%ADD14RoundRect,0.130000X-0.130000X0.130000X-0.130000X-0.130000X0.130000X-0.130000X0.130000X0.130000X0*%
%TD*%
%TA.AperFunction,SMDPad,CuDef*%
%ADD15RoundRect,0.140000X-0.140000X-0.170000X0.140000X-0.170000X0.140000X0.170000X-0.140000X0.170000X0*%
%TD*%
%TA.AperFunction,SMDPad,CuDef*%
%ADD16RoundRect,0.137500X0.137500X-0.137500X0.137500X0.137500X-0.137500X0.137500X-0.137500X-0.137500X0*%
%TD*%
%TA.AperFunction,SMDPad,CuDef*%
%ADD17RoundRect,0.130000X0.130000X-0.130000X0.130000X0.130000X-0.130000X0.130000X-0.130000X-0.130000X0*%
%TD*%
%TA.AperFunction,FiducialPad,Global*%
%ADD18C,1.000000*%
%TD*%
%TA.AperFunction,SMDPad,CuDef*%
%ADD19RoundRect,0.070000X-0.530000X-0.070000X0.530000X-0.070000X0.530000X0.070000X-0.530000X0.070000X0*%
%TD*%
%TA.AperFunction,SMDPad,CuDef*%
%ADD20RoundRect,0.070000X-0.070000X-0.530000X0.070000X-0.530000X0.070000X0.530000X-0.070000X0.530000X0*%
%TD*%
%TA.AperFunction,SMDPad,CuDef*%
%ADD21RoundRect,0.130000X0.130000X0.130000X-0.130000X0.130000X-0.130000X-0.130000X0.130000X-0.130000X0*%
%TD*%
%TA.AperFunction,TestPad*%
%ADD22C,0.500000*%
%TD*%
%TA.AperFunction,SMDPad,CuDef*%
%ADD23RoundRect,0.137500X-0.137500X0.137500X-0.137500X-0.137500X0.137500X-0.137500X0.137500X0.137500X0*%
%TD*%
%TA.AperFunction,SMDPad,CuDef*%
%ADD24R,0.600000X1.100000*%
%TD*%
%TA.AperFunction,ComponentPad*%
%ADD25C,6.400000*%
%TD*%
%TA.AperFunction,SMDPad,CuDef*%
%ADD26RoundRect,0.130000X-0.130000X-0.130000X0.130000X-0.130000X0.130000X0.130000X-0.130000X0.130000X0*%
%TD*%
%TA.AperFunction,SMDPad,CuDef*%
%ADD27RoundRect,0.137500X0.137500X0.137500X-0.137500X0.137500X-0.137500X-0.137500X0.137500X-0.137500X0*%
%TD*%
%TA.AperFunction,ViaPad*%
%ADD28C,0.550000*%
%TD*%
%TA.AperFunction,Conductor*%
%ADD29C,0.300000*%
%TD*%
%TA.AperFunction,Conductor*%
%ADD30C,0.200000*%
%TD*%
%TA.AperFunction,Conductor*%
%ADD31C,0.500000*%
%TD*%
%TA.AperFunction,Conductor*%
%ADD32C,0.250000*%
%TD*%
G04 APERTURE END LIST*
D10*
%TO.P,R5,1*%
%TO.N,/Project Architecture/IMU/PS0*%
X161045000Y-86995000D03*
%TO.P,R5,2*%
%TO.N,GND*%
X161845000Y-86995000D03*
%TD*%
D11*
%TO.P,C12,1*%
%TO.N,/Project Architecture/IMU/XOUT32*%
X157980000Y-92995000D03*
%TO.P,C12,2*%
%TO.N,GND*%
X157020000Y-92995000D03*
%TD*%
D12*
%TO.P,U3,1*%
%TO.N,N/C*%
X159750000Y-90912500D03*
D13*
%TO.P,U3,2,GND*%
%TO.N,GND*%
X159887500Y-90000001D03*
%TO.P,U3,3,VDD*%
%TO.N,+3V3*%
X159887500Y-89500000D03*
%TO.P,U3,4,~{BOOT_LOAD_PIN}*%
%TO.N,/Project Architecture/IMU/BLP*%
X159887500Y-89000000D03*
%TO.P,U3,5,PS1*%
%TO.N,/Project Architecture/IMU/PS1*%
X159887500Y-88499999D03*
D12*
%TO.P,U3,6,PS0*%
%TO.N,/Project Architecture/IMU/PS0*%
X159750000Y-87587500D03*
%TO.P,U3,7*%
%TO.N,N/C*%
X159250000Y-87587500D03*
%TO.P,U3,8*%
X158750000Y-87587499D03*
%TO.P,U3,9,CAP*%
%TO.N,/Project Architecture/IMU/CAP*%
X158250000Y-87587500D03*
%TO.P,U3,10*%
%TO.N,N/C*%
X157750000Y-87587500D03*
%TO.P,U3,11,~{RESET}*%
%TO.N,/Project Architecture/IMU/IMU_~{RESET}*%
X157250000Y-87587500D03*
%TO.P,U3,12*%
%TO.N,N/C*%
X156750000Y-87587500D03*
%TO.P,U3,13*%
X156250000Y-87587499D03*
%TO.P,U3,14,INT*%
%TO.N,/Project Architecture/IMU/IMU_INT*%
X155750000Y-87587500D03*
%TO.P,U3,15,GNDIO*%
%TO.N,GND*%
X155250000Y-87587500D03*
D13*
%TO.P,U3,16,GNDIO*%
X155112500Y-88499999D03*
%TO.P,U3,17,COM3*%
%TO.N,/Project Architecture/IMU/COM3*%
X155112500Y-89000000D03*
%TO.P,U3,18,COM2*%
%TO.N,GND*%
X155112500Y-89500000D03*
%TO.P,U3,19,COM1*%
%TO.N,/Project Architecture/IMU/I2C2_SCL*%
X155112500Y-90000001D03*
D12*
%TO.P,U3,20,COM0*%
%TO.N,/Project Architecture/IMU/I2C2_SDA*%
X155250000Y-90912500D03*
%TO.P,U3,21*%
%TO.N,N/C*%
X155750000Y-90912500D03*
%TO.P,U3,22*%
X156250000Y-90912501D03*
%TO.P,U3,23*%
X156750000Y-90912500D03*
%TO.P,U3,24*%
X157250000Y-90912500D03*
%TO.P,U3,25,GNDIO*%
%TO.N,GND*%
X157750000Y-90912500D03*
%TO.P,U3,26,XOUT32*%
%TO.N,/Project Architecture/IMU/XOUT32*%
X158250000Y-90912500D03*
%TO.P,U3,27,XIN32*%
%TO.N,/Project Architecture/IMU/XIN32*%
X158750000Y-90912501D03*
%TO.P,U3,28,VDDIO*%
%TO.N,+3V3*%
X159250000Y-90912500D03*
%TD*%
D14*
%TO.P,C4,1*%
%TO.N,+3V3*%
X146300000Y-96450000D03*
%TO.P,C4,2*%
%TO.N,GND*%
X146300000Y-97250000D03*
%TD*%
D15*
%TO.P,C13,1*%
%TO.N,/Project Architecture/IMU/XIN32*%
X159020000Y-92995000D03*
%TO.P,C13,2*%
%TO.N,GND*%
X159980000Y-92995000D03*
%TD*%
D10*
%TO.P,R4,1*%
%TO.N,/Project Architecture/IMU/PS1*%
X161045000Y-87895000D03*
%TO.P,R4,2*%
%TO.N,GND*%
X161845000Y-87895000D03*
%TD*%
D14*
%TO.P,C3,1*%
%TO.N,+3V3*%
X150700000Y-84950000D03*
%TO.P,C3,2*%
%TO.N,GND*%
X150700000Y-85750000D03*
%TD*%
%TO.P,C5,1*%
%TO.N,+3V3*%
X143600000Y-96450000D03*
%TO.P,C5,2*%
%TO.N,GND*%
X143600000Y-97250000D03*
%TD*%
D16*
%TO.P,R3,1*%
%TO.N,/Project Architecture/IMU/COM3*%
X154000000Y-88850000D03*
%TO.P,R3,2*%
%TO.N,GND*%
X154000000Y-88050000D03*
%TD*%
D17*
%TO.P,C7,1*%
%TO.N,+3V3*%
X137600000Y-84450000D03*
%TO.P,C7,2*%
%TO.N,GND*%
X137600000Y-83650000D03*
%TD*%
%TO.P,C1,1*%
%TO.N,+3V3*%
X136200000Y-93150000D03*
%TO.P,C1,2*%
%TO.N,GND*%
X136200000Y-92350000D03*
%TD*%
D14*
%TO.P,C19,1*%
%TO.N,+3V3*%
X161045000Y-89695001D03*
%TO.P,C19,2*%
%TO.N,GND*%
X161045000Y-90495001D03*
%TD*%
D18*
%TO.P,FD3,*%
%TO.N,*%
X141000000Y-99250000D03*
%TD*%
D16*
%TO.P,R1,1*%
%TO.N,+3V3*%
X152900000Y-89550000D03*
%TO.P,R1,2*%
%TO.N,/Project Architecture/IMU/I2C2_SCL*%
X152900000Y-88750000D03*
%TD*%
D19*
%TO.P,U1,1,VBAT*%
%TO.N,+3V3*%
X137750000Y-85500000D03*
%TO.P,U1,2,PC13*%
%TO.N,unconnected-(U1B-PC13-Pad2)*%
X137750000Y-86000000D03*
%TO.P,U1,3,PC14*%
%TO.N,unconnected-(U1B-PC14-Pad3)*%
X137750000Y-86500000D03*
%TO.P,U1,4,PC15*%
%TO.N,unconnected-(U1B-PC15-Pad4)*%
X137750000Y-87000000D03*
%TO.P,U1,5,PF0*%
%TO.N,unconnected-(U1B-PF0-Pad5)*%
X137750000Y-87500000D03*
%TO.P,U1,6,PF1*%
%TO.N,unconnected-(U1B-PF1-Pad6)*%
X137750000Y-88000000D03*
%TO.P,U1,7,PG10*%
%TO.N,/Project Architecture/Connectors/NRST*%
X137750000Y-88500000D03*
%TO.P,U1,8,PC0*%
%TO.N,unconnected-(U1B-PC0-Pad8)*%
X137750000Y-89000000D03*
%TO.P,U1,9,PC1*%
%TO.N,unconnected-(U1B-PC1-Pad9)*%
X137750000Y-89500000D03*
%TO.P,U1,10,PC2*%
%TO.N,unconnected-(U1B-PC2-Pad10)*%
X137750000Y-90000000D03*
%TO.P,U1,11,PC3*%
%TO.N,unconnected-(U1B-PC3-Pad11)*%
X137750000Y-90500000D03*
%TO.P,U1,12,PA0*%
%TO.N,unconnected-(U1B-PA0-Pad12)*%
X137750000Y-91000000D03*
%TO.P,U1,13,PA1*%
%TO.N,unconnected-(U1B-PA1-Pad13)*%
X137750000Y-91500000D03*
%TO.P,U1,14,PA2*%
%TO.N,unconnected-(U1B-PA2-Pad14)*%
X137750000Y-92000000D03*
%TO.P,U1,15,VSS*%
%TO.N,GND*%
X137750000Y-92500000D03*
%TO.P,U1,16,VDD*%
%TO.N,+3V3*%
X137750000Y-93000000D03*
D20*
%TO.P,U1,17,PA3*%
%TO.N,unconnected-(U1B-PA3-Pad17)*%
X139750000Y-95000000D03*
%TO.P,U1,18,PA4*%
%TO.N,unconnected-(U1B-PA4-Pad18)*%
X140250000Y-95000000D03*
%TO.P,U1,19,PA5*%
%TO.N,unconnected-(U1B-PA5-Pad19)*%
X140750000Y-95000000D03*
%TO.P,U1,20,PA6*%
%TO.N,unconnected-(U1B-PA6-Pad20)*%
X141250000Y-95000000D03*
%TO.P,U1,21,PA7*%
%TO.N,unconnected-(U1B-PA7-Pad21)*%
X141750000Y-95000000D03*
%TO.P,U1,22,PC4*%
%TO.N,unconnected-(U1B-PC4-Pad22)*%
X142250000Y-95000000D03*
%TO.P,U1,23,PC5*%
%TO.N,unconnected-(U1B-PC5-Pad23)*%
X142750000Y-95000000D03*
%TO.P,U1,24,PB0*%
%TO.N,unconnected-(U1B-PB0-Pad24)*%
X143250000Y-95000000D03*
%TO.P,U1,25,PB1*%
%TO.N,unconnected-(U1B-PB1-Pad25)*%
X143750000Y-95000000D03*
%TO.P,U1,26,PB2*%
%TO.N,unconnected-(U1B-PB2-Pad26)*%
X144250000Y-95000000D03*
%TO.P,U1,27,VSSA*%
%TO.N,GND*%
X144750000Y-95000000D03*
%TO.P,U1,28,VREF+*%
%TO.N,+3V3*%
X145250000Y-95000000D03*
%TO.P,U1,29,VDDA*%
X145750000Y-95000000D03*
%TO.P,U1,30,PB10*%
%TO.N,unconnected-(U1B-PB10-Pad30)*%
X146250000Y-95000000D03*
%TO.P,U1,31,VSS*%
%TO.N,GND*%
X146750000Y-95000000D03*
%TO.P,U1,32,VDD*%
%TO.N,+3V3*%
X147250000Y-95000000D03*
D19*
%TO.P,U1,33,PB11*%
%TO.N,unconnected-(U1B-PB11-Pad33)*%
X149250000Y-93000000D03*
%TO.P,U1,34,PB12*%
%TO.N,unconnected-(U1B-PB12-Pad34)*%
X149250000Y-92500000D03*
%TO.P,U1,35,PB13*%
%TO.N,unconnected-(U1B-PB13-Pad35)*%
X149250000Y-92000000D03*
%TO.P,U1,36,PB14*%
%TO.N,unconnected-(U1B-PB14-Pad36)*%
X149250000Y-91500000D03*
%TO.P,U1,37,PB15*%
%TO.N,unconnected-(U1B-PB15-Pad37)*%
X149250000Y-91000000D03*
%TO.P,U1,38,PC6*%
%TO.N,unconnected-(U1B-PC6-Pad38)*%
X149250000Y-90500000D03*
%TO.P,U1,39,PC7*%
%TO.N,unconnected-(U1B-PC7-Pad39)*%
X149250000Y-90000000D03*
%TO.P,U1,40,PC8*%
%TO.N,unconnected-(U1B-PC8-Pad40)*%
X149250000Y-89500000D03*
%TO.P,U1,41,PC9*%
%TO.N,unconnected-(U1B-PC9-Pad41)*%
X149250000Y-89000000D03*
%TO.P,U1,42,PA8*%
%TO.N,/Project Architecture/IMU/I2C2_SDA*%
X149250000Y-88500000D03*
%TO.P,U1,43,PA9*%
%TO.N,/Project Architecture/IMU/I2C2_SCL*%
X149250000Y-88000000D03*
%TO.P,U1,44,PA10*%
%TO.N,/Project Architecture/IMU/IMU_INT*%
X149250000Y-87500000D03*
%TO.P,U1,45,PA11*%
%TO.N,/Project Architecture/IMU/IMU_~{RESET}*%
X149250000Y-87000000D03*
%TO.P,U1,46,PA12*%
%TO.N,unconnected-(U1B-PA12-Pad46)*%
X149250000Y-86500000D03*
%TO.P,U1,47,VSS*%
%TO.N,GND*%
X149250000Y-86000000D03*
%TO.P,U1,48,VDD*%
%TO.N,+3V3*%
X149250000Y-85500000D03*
D20*
%TO.P,U1,49,PA13*%
%TO.N,/Project Architecture/Connectors/SWDIO*%
X147250000Y-83500000D03*
%TO.P,U1,50,PA14*%
%TO.N,/Project Architecture/Connectors/SWCLK*%
X146750000Y-83500000D03*
%TO.P,U1,51,PA15*%
%TO.N,unconnected-(U1B-PA15-Pad51)*%
X146250000Y-83500000D03*
%TO.P,U1,52,PC10*%
%TO.N,unconnected-(U1B-PC10-Pad52)*%
X145750000Y-83500000D03*
%TO.P,U1,53,PC11*%
%TO.N,unconnected-(U1B-PC11-Pad53)*%
X145250000Y-83500000D03*
%TO.P,U1,54,PC12*%
%TO.N,unconnected-(U1B-PC12-Pad54)*%
X144750000Y-83500000D03*
%TO.P,U1,55,PD2*%
%TO.N,unconnected-(U1B-PD2-Pad55)*%
X144250000Y-83500000D03*
%TO.P,U1,56,PB3*%
%TO.N,unconnected-(U1B-PB3-Pad56)*%
X143750000Y-83500000D03*
%TO.P,U1,57,PB4*%
%TO.N,unconnected-(U1B-PB4-Pad57)*%
X143250000Y-83500000D03*
%TO.P,U1,58,PB5*%
%TO.N,unconnected-(U1B-PB5-Pad58)*%
X142750000Y-83500000D03*
%TO.P,U1,59,PB6*%
%TO.N,unconnected-(U1B-PB6-Pad59)*%
X142250000Y-83500000D03*
%TO.P,U1,60,PB7*%
%TO.N,unconnected-(U1B-PB7-Pad60)*%
X141750000Y-83500000D03*
%TO.P,U1,61,PB8*%
%TO.N,unconnected-(U1B-PB8-Pad61)*%
X141250000Y-83500000D03*
%TO.P,U1,62,PB9*%
%TO.N,unconnected-(U1B-PB9-Pad62)*%
X140750000Y-83500000D03*
%TO.P,U1,63,VSS*%
%TO.N,GND*%
X140250000Y-83500000D03*
%TO.P,U1,64,VDD*%
%TO.N,+3V3*%
X139750000Y-83500000D03*
%TD*%
D21*
%TO.P,C2,1*%
%TO.N,+3V3*%
X148000000Y-96450000D03*
%TO.P,C2,2*%
%TO.N,GND*%
X147200000Y-96450000D03*
%TD*%
D22*
%TO.P,TP3,1,1*%
%TO.N,/Project Architecture/IMU/I2C2_SDA*%
X150900000Y-89650000D03*
%TD*%
D23*
%TO.P,R2,1*%
%TO.N,+3V3*%
X152900000Y-90400000D03*
%TO.P,R2,2*%
%TO.N,/Project Architecture/IMU/I2C2_SDA*%
X152900000Y-91200000D03*
%TD*%
D24*
%TO.P,Y1,1,1*%
%TO.N,/Project Architecture/IMU/XIN32*%
X159200000Y-94400000D03*
%TO.P,Y1,2,2*%
%TO.N,/Project Architecture/IMU/XOUT32*%
X157800000Y-94400000D03*
%TD*%
D14*
%TO.P,C8,1*%
%TO.N,+3V3*%
X145400000Y-96450000D03*
%TO.P,C8,2*%
%TO.N,GND*%
X145400000Y-97250000D03*
%TD*%
D18*
%TO.P,FD2,*%
%TO.N,*%
X156000000Y-79250000D03*
%TD*%
D25*
%TO.P,H3,1,1*%
%TO.N,GND*%
X161500000Y-79250000D03*
%TD*%
D18*
%TO.P,FD1,*%
%TO.N,*%
X141000000Y-79250000D03*
%TD*%
D25*
%TO.P,H4,1,1*%
%TO.N,GND*%
X135500000Y-79250000D03*
%TD*%
D22*
%TO.P,TP1,1,1*%
%TO.N,/Project Architecture/IMU/IMU_INT*%
X150900000Y-87650000D03*
%TD*%
%TO.P,TP4,1,1*%
%TO.N,/Project Architecture/IMU/I2C2_SCL*%
X151900000Y-88650000D03*
%TD*%
D14*
%TO.P,C9,1*%
%TO.N,+3V3*%
X144500000Y-96450000D03*
%TO.P,C9,2*%
%TO.N,GND*%
X144500000Y-97250000D03*
%TD*%
D26*
%TO.P,C6,1*%
%TO.N,+3V3*%
X139600000Y-81950000D03*
%TO.P,C6,2*%
%TO.N,GND*%
X140400000Y-81950000D03*
%TD*%
D27*
%TO.P,R6,1*%
%TO.N,+3V3*%
X161845000Y-88795000D03*
%TO.P,R6,2*%
%TO.N,/Project Architecture/IMU/BLP*%
X161045000Y-88795000D03*
%TD*%
D25*
%TO.P,H2,1,1*%
%TO.N,GND*%
X161500000Y-99250000D03*
%TD*%
D26*
%TO.P,C10,1*%
%TO.N,+3V3*%
X159744999Y-91995000D03*
%TO.P,C10,2*%
%TO.N,GND*%
X160544999Y-91995000D03*
%TD*%
D25*
%TO.P,H1,1,1*%
%TO.N,GND*%
X135600000Y-99250000D03*
%TD*%
D21*
%TO.P,C11,1*%
%TO.N,/Project Architecture/IMU/CAP*%
X158445001Y-86495000D03*
%TO.P,C11,2*%
%TO.N,GND*%
X157645001Y-86495000D03*
%TD*%
D22*
%TO.P,TP2,1,1*%
%TO.N,/Project Architecture/IMU/IMU_~{RESET}*%
X151900000Y-86650000D03*
%TD*%
D28*
%TO.N,GND*%
X140400000Y-81250000D03*
X144750000Y-93800000D03*
X135400000Y-92650000D03*
X138350000Y-83650000D03*
X157050000Y-86350000D03*
X147850000Y-88650000D03*
X150700000Y-86400000D03*
X141200000Y-81950000D03*
X160850000Y-91200000D03*
X162650000Y-87900000D03*
X148850000Y-95650000D03*
X137600000Y-82850000D03*
X160800000Y-92975000D03*
X151500000Y-85450000D03*
X153950000Y-86450000D03*
X157500000Y-91975000D03*
X136800000Y-83650000D03*
X156000000Y-89500000D03*
X136450000Y-85950000D03*
X154500000Y-87450000D03*
X145900000Y-84850000D03*
X144500000Y-98000000D03*
X142800000Y-97250000D03*
X145400000Y-98000000D03*
X140200000Y-88050000D03*
X139800000Y-91750000D03*
X147200000Y-97200000D03*
X153950000Y-92050000D03*
%TO.N,+3V3*%
X136800000Y-84450000D03*
X161800000Y-89650000D03*
X152050000Y-90100000D03*
X142800000Y-96450000D03*
X151500000Y-84600000D03*
X139600000Y-81250000D03*
X135400000Y-93450000D03*
X148800000Y-96450000D03*
%TO.N,/Project Architecture/Connectors/NRST*%
X139350000Y-88050000D03*
%TO.N,/Project Architecture/Connectors/SWCLK*%
X146750000Y-84850000D03*
%TO.N,/Project Architecture/Connectors/SWDIO*%
X147250000Y-88050000D03*
%TD*%
D29*
%TO.N,GND*%
X135400000Y-92650000D02*
X135700000Y-92350000D01*
X137600000Y-83650000D02*
X136800000Y-83650000D01*
D30*
X161845000Y-86995000D02*
X161845000Y-87895000D01*
X155112500Y-89500000D02*
X156000000Y-89500000D01*
D29*
X150700000Y-85750000D02*
X150700000Y-86400000D01*
D31*
X147200000Y-96450000D02*
X147200000Y-97200000D01*
D29*
X151500000Y-85450000D02*
X151200000Y-85750000D01*
X150450000Y-85750000D02*
X150200000Y-86000000D01*
D30*
X162645000Y-87895000D02*
X162650000Y-87900000D01*
D29*
X137750000Y-92500000D02*
X136350000Y-92500000D01*
D31*
X140400000Y-81250000D02*
X140400000Y-81950000D01*
D29*
X135700000Y-92350000D02*
X136200000Y-92350000D01*
X136350000Y-92500000D02*
X136200000Y-92350000D01*
X150200000Y-86000000D02*
X149250000Y-86000000D01*
X151200000Y-85750000D02*
X150700000Y-85750000D01*
X150700000Y-85750000D02*
X150450000Y-85750000D01*
D30*
X161845000Y-87895000D02*
X162645000Y-87895000D01*
D31*
%TO.N,+3V3*%
X146300000Y-96450000D02*
X143600000Y-96450000D01*
D29*
X135900000Y-93450000D02*
X135400000Y-93450000D01*
D31*
X136800000Y-84450000D02*
X137600000Y-84450000D01*
X161845000Y-88795000D02*
X161845000Y-89605000D01*
D30*
X159250000Y-90912500D02*
X159250000Y-91650000D01*
D29*
X161045000Y-89695001D02*
X160849999Y-89500000D01*
D30*
X152900000Y-90400000D02*
X152350000Y-90400000D01*
D29*
X159887500Y-89500000D02*
X159350000Y-89500000D01*
D32*
X145750000Y-95000000D02*
X145750000Y-96100000D01*
D29*
X159350000Y-89500000D02*
X159100000Y-89750000D01*
D30*
X152350000Y-90400000D02*
X152050000Y-90100000D01*
D31*
X161090001Y-89650000D02*
X161045000Y-89695001D01*
D32*
X145750000Y-96100000D02*
X145400000Y-96450000D01*
D31*
X139600000Y-81250000D02*
X139600000Y-81950000D01*
D29*
X151050000Y-84600000D02*
X151500000Y-84600000D01*
X159595000Y-91995000D02*
X159375000Y-91775000D01*
D30*
X152900000Y-89550000D02*
X152900000Y-90400000D01*
D31*
X142800000Y-96450000D02*
X143600000Y-96450000D01*
D30*
X159887500Y-89500000D02*
X160650000Y-89500000D01*
D29*
X159100000Y-89750000D02*
X159100000Y-90250000D01*
X159744999Y-91995000D02*
X159595000Y-91995000D01*
D30*
X159250000Y-91650000D02*
X159375000Y-91775000D01*
D32*
X145250000Y-95000000D02*
X145250000Y-95700000D01*
D31*
X161800000Y-89650000D02*
X161090001Y-89650000D01*
D32*
X145250000Y-95700000D02*
X144500000Y-96450000D01*
D31*
X148000000Y-96450000D02*
X148800000Y-96450000D01*
D29*
X159250000Y-90400000D02*
X159250000Y-90912500D01*
X150700000Y-84950000D02*
X151050000Y-84600000D01*
X136200000Y-93150000D02*
X135900000Y-93450000D01*
X159100000Y-90250000D02*
X159250000Y-90400000D01*
D31*
X161845000Y-89605000D02*
X161800000Y-89650000D01*
D29*
X160849999Y-89500000D02*
X160650000Y-89500000D01*
D30*
%TO.N,/Project Architecture/IMU/XIN32*%
X159020000Y-92995000D02*
X159020000Y-94220000D01*
X159020000Y-94220000D02*
X159200000Y-94400000D01*
X158750000Y-92725000D02*
X159020000Y-92995000D01*
X158750000Y-90912501D02*
X158750000Y-92725000D01*
%TO.N,/Project Architecture/IMU/IMU_~{RESET}*%
X151550000Y-87000000D02*
X151900000Y-86650000D01*
X157050000Y-86950000D02*
X156700000Y-86950000D01*
X157250000Y-87587500D02*
X157250000Y-87150000D01*
X156700000Y-86950000D02*
X155100000Y-85350000D01*
X155100000Y-85350000D02*
X153200000Y-85350000D01*
X153200000Y-85350000D02*
X151900000Y-86650000D01*
X149250000Y-87000000D02*
X151550000Y-87000000D01*
X157250000Y-87150000D02*
X157050000Y-86950000D01*
%TO.N,/Project Architecture/IMU/PS0*%
X159750000Y-87587500D02*
X160012500Y-87587500D01*
X160012500Y-87587500D02*
X160605000Y-86995000D01*
X160605000Y-86995000D02*
X161045000Y-86995000D01*
%TO.N,/Project Architecture/IMU/PS1*%
X160250001Y-88499999D02*
X160855000Y-87895000D01*
X160855000Y-87895000D02*
X161045000Y-87895000D01*
X159887500Y-88499999D02*
X160250001Y-88499999D01*
%TO.N,/Project Architecture/IMU/COM3*%
X154150000Y-89000000D02*
X154000000Y-88850000D01*
X155112500Y-89000000D02*
X154150000Y-89000000D01*
%TO.N,/Project Architecture/IMU/I2C2_SDA*%
X150250000Y-88500000D02*
X150900000Y-89150000D01*
X150900000Y-90050000D02*
X150900000Y-89650000D01*
X150900000Y-89150000D02*
X150900000Y-89650000D01*
X152900000Y-91200000D02*
X153700000Y-91200000D01*
X149250000Y-88500000D02*
X150250000Y-88500000D01*
X152050000Y-91200000D02*
X150900000Y-90050000D01*
X153700000Y-91200000D02*
X153987500Y-90912500D01*
X152900000Y-91200000D02*
X152050000Y-91200000D01*
X153987500Y-90912500D02*
X155250000Y-90912500D01*
%TO.N,/Project Architecture/IMU/XOUT32*%
X158250000Y-92725000D02*
X157980000Y-92995000D01*
X158250000Y-90912500D02*
X158250000Y-92725000D01*
X157980000Y-94220000D02*
X157800000Y-94400000D01*
X157980000Y-92995000D02*
X157980000Y-94220000D01*
%TO.N,/Project Architecture/IMU/IMU_INT*%
X155750000Y-86750000D02*
X154800000Y-85800000D01*
X154800000Y-85800000D02*
X153700000Y-85800000D01*
X155750000Y-87587500D02*
X155750000Y-86750000D01*
X150750000Y-87500000D02*
X150900000Y-87650000D01*
X153700000Y-85800000D02*
X151850000Y-87650000D01*
X151850000Y-87650000D02*
X150900000Y-87650000D01*
X149250000Y-87500000D02*
X150750000Y-87500000D01*
%TO.N,/Project Architecture/IMU/I2C2_SCL*%
X152900000Y-88750000D02*
X153002472Y-88750000D01*
X152997528Y-88750000D02*
X153500000Y-89252472D01*
X152900000Y-88750000D02*
X152997528Y-88750000D01*
X153800001Y-90000001D02*
X155112500Y-90000001D01*
X151000000Y-88650000D02*
X151900000Y-88650000D01*
X151900000Y-88650000D02*
X152800000Y-88650000D01*
X153500000Y-89252472D02*
X153500000Y-89700000D01*
X150350000Y-88000000D02*
X151000000Y-88650000D01*
X152800000Y-88650000D02*
X152900000Y-88750000D01*
X149250000Y-88000000D02*
X150350000Y-88000000D01*
X153500000Y-89700000D02*
X153800001Y-90000001D01*
%TO.N,/Project Architecture/IMU/BLP*%
X160350000Y-89000000D02*
X160555000Y-88795000D01*
X159887500Y-89000000D02*
X160350000Y-89000000D01*
X160555000Y-88795000D02*
X161045000Y-88795000D01*
%TO.N,/Project Architecture/IMU/CAP*%
X158250000Y-87000000D02*
X158445001Y-86804999D01*
D29*
X158445001Y-86495000D02*
X158445001Y-86804999D01*
D30*
X158250000Y-87587500D02*
X158250000Y-87000000D01*
%TO.N,/Project Architecture/Connectors/NRST*%
X138900000Y-88500000D02*
X139350000Y-88050000D01*
X137750000Y-88500000D02*
X138900000Y-88500000D01*
%TO.N,/Project Architecture/Connectors/SWCLK*%
X146750000Y-84850000D02*
X146750000Y-83500000D01*
%TO.N,/Project Architecture/Connectors/SWDIO*%
X147250000Y-88050000D02*
X147500000Y-87800000D01*
X147500000Y-84500000D02*
X147250000Y-84250000D01*
X147250000Y-84250000D02*
X147250000Y-83500000D01*
X147500000Y-87800000D02*
X147500000Y-84500000D01*
%TD*%
%TA.AperFunction,Conductor*%
%TO.N,GND*%
G36*
X144967183Y-93518907D02*
G01*
X144978996Y-93528996D01*
X145021004Y-93571004D01*
X145048781Y-93625521D01*
X145050000Y-93641008D01*
X145050000Y-93908992D01*
X145031093Y-93967183D01*
X145021004Y-93978995D01*
X144900000Y-94099999D01*
X144900000Y-94751000D01*
X144881093Y-94809191D01*
X144831593Y-94845155D01*
X144801000Y-94850000D01*
X144699000Y-94850000D01*
X144640809Y-94831093D01*
X144604845Y-94781593D01*
X144600000Y-94751000D01*
X144600000Y-94100000D01*
X144599999Y-94099999D01*
X144478996Y-93978995D01*
X144451219Y-93924479D01*
X144450000Y-93908992D01*
X144450000Y-93641008D01*
X144468907Y-93582817D01*
X144478996Y-93571004D01*
X144521004Y-93528996D01*
X144575521Y-93501219D01*
X144591008Y-93500000D01*
X144908992Y-93500000D01*
X144967183Y-93518907D01*
G37*
%TD.AperFunction*%
%TD*%
%TA.AperFunction,Conductor*%
%TO.N,GND*%
G36*
X160367183Y-89893907D02*
G01*
X160378995Y-89903996D01*
X160581093Y-90106093D01*
X160700000Y-90225000D01*
X161108992Y-90225000D01*
X161167183Y-90243907D01*
X161178996Y-90253996D01*
X161271004Y-90346004D01*
X161298781Y-90400521D01*
X161300000Y-90416008D01*
X161300000Y-92958992D01*
X161281093Y-93017183D01*
X161271004Y-93028996D01*
X161028996Y-93271004D01*
X160974479Y-93298781D01*
X160958992Y-93300000D01*
X159891008Y-93300000D01*
X159832817Y-93281093D01*
X159821004Y-93271004D01*
X159728996Y-93178996D01*
X159701219Y-93124479D01*
X159700000Y-93108992D01*
X159700000Y-92841008D01*
X159718907Y-92782817D01*
X159728996Y-92771004D01*
X159771004Y-92728996D01*
X159825521Y-92701219D01*
X159841008Y-92700000D01*
X159974999Y-92700000D01*
X159975000Y-92700000D01*
X160275000Y-92400000D01*
X160275000Y-91600000D01*
X160275000Y-90375000D01*
X160025000Y-90125000D01*
X160024999Y-90125000D01*
X159649000Y-90125000D01*
X159590809Y-90106093D01*
X159554845Y-90056593D01*
X159550000Y-90026000D01*
X159550000Y-89974000D01*
X159568907Y-89915809D01*
X159618407Y-89879845D01*
X159649000Y-89875000D01*
X160308992Y-89875000D01*
X160367183Y-89893907D01*
G37*
%TD.AperFunction*%
%TD*%
%TA.AperFunction,Conductor*%
%TO.N,+3V3*%
G36*
X139767183Y-81668907D02*
G01*
X139778996Y-81678996D01*
X139865621Y-81765621D01*
X139893398Y-81820138D01*
X139894069Y-81837119D01*
X139894500Y-81837119D01*
X139894500Y-81841008D01*
X139894500Y-83051000D01*
X139896110Y-83071455D01*
X139897030Y-83083148D01*
X139898686Y-83093600D01*
X139889114Y-83154032D01*
X139870909Y-83179089D01*
X139769004Y-83280995D01*
X139714487Y-83308773D01*
X139654055Y-83299202D01*
X139610791Y-83255937D01*
X139600000Y-83210992D01*
X139600000Y-82750000D01*
X139599999Y-82749999D01*
X139378996Y-82528995D01*
X139351219Y-82474479D01*
X139350000Y-82458992D01*
X139350000Y-81791008D01*
X139368907Y-81732817D01*
X139378996Y-81721004D01*
X139421004Y-81678996D01*
X139475521Y-81651219D01*
X139491008Y-81650000D01*
X139708992Y-81650000D01*
X139767183Y-81668907D01*
G37*
%TD.AperFunction*%
%TD*%
%TA.AperFunction,Conductor*%
%TO.N,+3V3*%
G36*
X148017183Y-94418907D02*
G01*
X148028996Y-94428996D01*
X148271004Y-94671004D01*
X148298781Y-94725521D01*
X148300000Y-94741008D01*
X148300000Y-96351000D01*
X148281093Y-96409191D01*
X148231593Y-96445155D01*
X148201000Y-96450000D01*
X147849000Y-96450000D01*
X147790809Y-96431093D01*
X147754845Y-96381593D01*
X147750000Y-96351000D01*
X147750000Y-96250000D01*
X147134496Y-95634496D01*
X147106719Y-95579979D01*
X147105500Y-95564492D01*
X147105500Y-95041021D01*
X147105500Y-95041008D01*
X147104866Y-95024883D01*
X147103647Y-95009396D01*
X147103645Y-95009389D01*
X147102792Y-95004610D01*
X147103014Y-95004570D01*
X147100000Y-94982772D01*
X147100000Y-94499000D01*
X147118907Y-94440809D01*
X147168407Y-94404845D01*
X147199000Y-94400000D01*
X147958992Y-94400000D01*
X148017183Y-94418907D01*
G37*
%TD.AperFunction*%
%TD*%
%TA.AperFunction,Conductor*%
%TO.N,GND*%
G36*
X138617183Y-82418907D02*
G01*
X138628996Y-82428996D01*
X138921004Y-82721004D01*
X138948781Y-82775521D01*
X138950000Y-82791008D01*
X138950000Y-83608992D01*
X138931093Y-83667183D01*
X138921004Y-83678996D01*
X138728996Y-83871004D01*
X138674479Y-83898781D01*
X138658992Y-83900000D01*
X137441008Y-83900000D01*
X137382817Y-83881093D01*
X137371004Y-83871004D01*
X137328996Y-83828996D01*
X137301219Y-83774479D01*
X137300000Y-83758992D01*
X137300000Y-82691008D01*
X137318907Y-82632817D01*
X137328996Y-82621004D01*
X137521004Y-82428996D01*
X137575521Y-82401219D01*
X137591008Y-82400000D01*
X138558992Y-82400000D01*
X138617183Y-82418907D01*
G37*
%TD.AperFunction*%
%TD*%
%TA.AperFunction,Conductor*%
%TO.N,+3V3*%
G36*
X150717183Y-84718907D02*
G01*
X150728996Y-84728996D01*
X151021004Y-85021004D01*
X151048781Y-85075521D01*
X151050000Y-85091008D01*
X151050000Y-85202668D01*
X151031093Y-85260859D01*
X150981593Y-85296823D01*
X150923304Y-85297715D01*
X150916862Y-85295837D01*
X150880757Y-85291084D01*
X150868724Y-85289500D01*
X150531276Y-85289500D01*
X150483141Y-85295837D01*
X150377509Y-85345094D01*
X150295094Y-85427509D01*
X150295093Y-85427510D01*
X150288971Y-85433633D01*
X150287603Y-85432265D01*
X150267624Y-85450572D01*
X150234787Y-85469531D01*
X150083814Y-85620504D01*
X150029298Y-85648281D01*
X150013811Y-85649500D01*
X149201197Y-85649500D01*
X149193569Y-85650000D01*
X148791008Y-85650000D01*
X148732817Y-85631093D01*
X148721004Y-85621004D01*
X148678996Y-85578996D01*
X148651219Y-85524479D01*
X148650000Y-85508992D01*
X148650000Y-85141008D01*
X148668907Y-85082817D01*
X148678996Y-85071004D01*
X149021004Y-84728996D01*
X149075521Y-84701219D01*
X149091008Y-84700000D01*
X150658992Y-84700000D01*
X150717183Y-84718907D01*
G37*
%TD.AperFunction*%
%TD*%
%TA.AperFunction,Conductor*%
%TO.N,GND*%
G36*
X141367183Y-81718907D02*
G01*
X141378996Y-81728996D01*
X141421004Y-81771004D01*
X141448781Y-81825521D01*
X141450000Y-81841008D01*
X141450000Y-82108992D01*
X141431093Y-82167183D01*
X141421004Y-82178996D01*
X141228996Y-82371004D01*
X141174479Y-82398781D01*
X141158992Y-82400000D01*
X140899999Y-82400000D01*
X140606045Y-82693953D01*
X140582501Y-82709685D01*
X140582563Y-82709778D01*
X140484983Y-82774979D01*
X140484979Y-82774983D01*
X140419778Y-82872563D01*
X140419686Y-82872502D01*
X140403955Y-82896043D01*
X140400001Y-82899997D01*
X140400000Y-82900000D01*
X140400000Y-83051000D01*
X140381093Y-83109191D01*
X140331593Y-83145155D01*
X140301000Y-83150000D01*
X140199000Y-83150000D01*
X140140809Y-83131093D01*
X140104845Y-83081593D01*
X140100000Y-83051000D01*
X140100000Y-81841008D01*
X140118907Y-81782817D01*
X140128996Y-81771004D01*
X140171004Y-81728996D01*
X140225521Y-81701219D01*
X140241008Y-81700000D01*
X141308992Y-81700000D01*
X141367183Y-81718907D01*
G37*
%TD.AperFunction*%
%TD*%
%TA.AperFunction,Conductor*%
%TO.N,GND*%
G36*
X146817183Y-94918907D02*
G01*
X146828996Y-94928996D01*
X146871004Y-94971004D01*
X146898781Y-95025521D01*
X146900000Y-95041008D01*
X146900000Y-95700000D01*
X147471005Y-96271005D01*
X147498781Y-96325520D01*
X147500000Y-96341007D01*
X147500000Y-96558992D01*
X147481093Y-96617183D01*
X147471004Y-96628996D01*
X147428996Y-96671004D01*
X147374479Y-96698781D01*
X147358992Y-96700000D01*
X147041008Y-96700000D01*
X146982817Y-96681093D01*
X146971004Y-96671004D01*
X146928996Y-96628996D01*
X146901219Y-96574479D01*
X146900000Y-96558992D01*
X146900000Y-96250000D01*
X146899999Y-96249999D01*
X146628996Y-95978995D01*
X146601219Y-95924479D01*
X146600000Y-95908992D01*
X146600000Y-94999000D01*
X146618907Y-94940809D01*
X146668407Y-94904845D01*
X146699000Y-94900000D01*
X146758992Y-94900000D01*
X146817183Y-94918907D01*
G37*
%TD.AperFunction*%
%TD*%
%TA.AperFunction,Conductor*%
%TO.N,GND*%
G36*
X155317183Y-87168907D02*
G01*
X155328996Y-87178996D01*
X155371004Y-87221004D01*
X155398781Y-87275521D01*
X155400000Y-87291008D01*
X155400000Y-88408992D01*
X155381093Y-88467183D01*
X155371004Y-88478996D01*
X155228996Y-88621004D01*
X155174479Y-88648781D01*
X155158992Y-88650000D01*
X154741008Y-88650000D01*
X154682817Y-88631093D01*
X154671005Y-88621004D01*
X154400000Y-88350000D01*
X153941008Y-88350000D01*
X153882817Y-88331093D01*
X153871004Y-88321004D01*
X153728996Y-88178996D01*
X153701219Y-88124479D01*
X153700000Y-88108992D01*
X153700000Y-87491008D01*
X153718907Y-87432817D01*
X153728996Y-87421004D01*
X153971004Y-87178996D01*
X154025521Y-87151219D01*
X154041008Y-87150000D01*
X155258992Y-87150000D01*
X155317183Y-87168907D01*
G37*
%TD.AperFunction*%
%TD*%
%TA.AperFunction,Conductor*%
%TO.N,GND*%
G36*
X157845155Y-90980907D02*
G01*
X157850000Y-91011500D01*
X157850000Y-91453845D01*
X157873781Y-91500520D01*
X157875000Y-91516007D01*
X157875000Y-92058992D01*
X157856093Y-92117183D01*
X157846003Y-92128996D01*
X157458041Y-92516957D01*
X157403525Y-92544734D01*
X157346199Y-92536678D01*
X157249354Y-92491519D01*
X157199839Y-92485000D01*
X157120001Y-92485000D01*
X157120000Y-92485001D01*
X157120000Y-92896000D01*
X157101093Y-92954191D01*
X157051593Y-92990155D01*
X157021000Y-92995000D01*
X157019000Y-92995000D01*
X156960809Y-92976093D01*
X156924845Y-92926593D01*
X156920000Y-92896000D01*
X156920000Y-92485001D01*
X156919999Y-92485000D01*
X156849000Y-92485000D01*
X156790809Y-92466093D01*
X156754845Y-92416593D01*
X156750000Y-92386000D01*
X156750000Y-92366008D01*
X156768907Y-92307817D01*
X156778996Y-92296004D01*
X157596004Y-91478996D01*
X157646971Y-91453027D01*
X157650000Y-91449999D01*
X157650000Y-91011500D01*
X157661859Y-90975000D01*
X157840863Y-90975000D01*
X157845155Y-90980907D01*
G37*
%TD.AperFunction*%
%TD*%
%TA.AperFunction,Conductor*%
%TO.N,+3V3*%
G36*
X136301197Y-92850500D02*
G01*
X136303856Y-92850500D01*
X137798803Y-92850500D01*
X137806431Y-92850000D01*
X138251000Y-92850000D01*
X138309191Y-92868907D01*
X138345155Y-92918407D01*
X138350000Y-92949000D01*
X138350000Y-93208992D01*
X138331093Y-93267183D01*
X138321004Y-93278996D01*
X138028996Y-93571004D01*
X137974479Y-93598781D01*
X137958992Y-93600000D01*
X136191008Y-93600000D01*
X136132817Y-93581093D01*
X136121004Y-93571004D01*
X135928996Y-93378996D01*
X135901219Y-93324479D01*
X135900000Y-93308992D01*
X135900000Y-92991008D01*
X135918907Y-92932817D01*
X135928996Y-92921004D01*
X135971004Y-92878996D01*
X136025521Y-92851219D01*
X136041008Y-92850000D01*
X136293569Y-92850000D01*
X136301197Y-92850500D01*
G37*
%TD.AperFunction*%
%TD*%
%TA.AperFunction,Conductor*%
%TO.N,+3V3*%
G36*
X138199943Y-84306797D02*
G01*
X138225003Y-84325003D01*
X138321004Y-84421004D01*
X138348781Y-84475521D01*
X138350000Y-84491008D01*
X138350000Y-85061000D01*
X138331093Y-85119191D01*
X138281593Y-85155155D01*
X138251000Y-85160000D01*
X137850001Y-85160000D01*
X137850000Y-85160001D01*
X137850000Y-85401000D01*
X137831093Y-85459191D01*
X137781593Y-85495155D01*
X137751000Y-85500000D01*
X137749000Y-85500000D01*
X137690809Y-85481093D01*
X137654845Y-85431593D01*
X137650000Y-85401000D01*
X137650000Y-85160001D01*
X137649999Y-85160000D01*
X137249000Y-85160000D01*
X137190809Y-85141093D01*
X137154845Y-85091593D01*
X137150000Y-85061000D01*
X137150000Y-84950294D01*
X137168907Y-84892103D01*
X137218407Y-84856139D01*
X137279593Y-84856139D01*
X137290840Y-84860570D01*
X137383269Y-84903671D01*
X137383273Y-84903672D01*
X137431331Y-84910000D01*
X137499999Y-84910000D01*
X137500000Y-84909999D01*
X137700000Y-84909999D01*
X137700001Y-84910000D01*
X137768668Y-84910000D01*
X137816726Y-84903672D01*
X137816733Y-84903670D01*
X137922197Y-84854491D01*
X138004491Y-84772197D01*
X138053670Y-84666733D01*
X138053672Y-84666726D01*
X138060000Y-84618668D01*
X138060000Y-84550001D01*
X138059999Y-84550000D01*
X137700000Y-84550000D01*
X137700000Y-84909999D01*
X137500000Y-84909999D01*
X137500000Y-84549000D01*
X137518907Y-84490809D01*
X137568407Y-84454845D01*
X137599000Y-84450000D01*
X137600000Y-84450000D01*
X137600000Y-84449000D01*
X137618907Y-84390809D01*
X137668407Y-84354845D01*
X137699000Y-84350000D01*
X138059999Y-84350000D01*
X138084995Y-84325004D01*
X138139511Y-84297226D01*
X138199943Y-84306797D01*
G37*
%TD.AperFunction*%
%TD*%
%TA.AperFunction,Conductor*%
%TO.N,GND*%
G36*
X157717183Y-86068907D02*
G01*
X157728996Y-86078996D01*
X157871004Y-86221004D01*
X157898781Y-86275521D01*
X157900000Y-86291008D01*
X157900000Y-86408992D01*
X157881093Y-86467183D01*
X157871004Y-86478996D01*
X157628996Y-86721004D01*
X157574479Y-86748781D01*
X157558992Y-86750000D01*
X157315978Y-86750000D01*
X157257787Y-86731093D01*
X157245980Y-86721009D01*
X157234511Y-86709540D01*
X157234508Y-86709538D01*
X157217121Y-86699499D01*
X157217121Y-86699500D01*
X157165989Y-86669979D01*
X157165988Y-86669978D01*
X157165987Y-86669978D01*
X157089564Y-86649500D01*
X157089562Y-86649500D01*
X156940508Y-86649500D01*
X156882317Y-86630593D01*
X156870504Y-86620504D01*
X156778996Y-86528996D01*
X156751219Y-86474479D01*
X156750000Y-86458992D01*
X156750000Y-86241008D01*
X156768907Y-86182817D01*
X156778996Y-86171004D01*
X156871004Y-86078996D01*
X156925521Y-86051219D01*
X156941008Y-86050000D01*
X157658992Y-86050000D01*
X157717183Y-86068907D01*
G37*
%TD.AperFunction*%
%TD*%
%TA.AperFunction,Conductor*%
%TO.N,GND*%
G36*
X147459191Y-97018907D02*
G01*
X147495155Y-97068407D01*
X147500000Y-97099000D01*
X147500000Y-97708992D01*
X147481093Y-97767183D01*
X147471004Y-97778996D01*
X147028996Y-98221004D01*
X146974479Y-98248781D01*
X146958992Y-98250000D01*
X143291008Y-98250000D01*
X143232817Y-98231093D01*
X143221004Y-98221004D01*
X142528996Y-97528996D01*
X142501219Y-97474479D01*
X142500000Y-97458992D01*
X142500000Y-97099000D01*
X142518907Y-97040809D01*
X142568407Y-97004845D01*
X142599000Y-97000000D01*
X147401000Y-97000000D01*
X147459191Y-97018907D01*
G37*
%TD.AperFunction*%
%TD*%
M02*
