%TF.GenerationSoftware,KiCad,Pcbnew,8.0.8+1*%
%TF.CreationDate,Date%
%TF.ProjectId,KiBot_Project_Test,4b69426f-745f-4507-926f-6a6563745f54,1.0.0*%
%TF.SameCoordinates,Original*%
%TF.FileFunction,Legend,Top*%
%TF.FilePolarity,Positive*%
%FSLAX46Y46*%
G04 Gerber Fmt 4.6, Leading zero omitted, Abs format (unit mm)*
G04 Created by KiCad*
%MOMM*%
%LPD*%
G01*
G04 APERTURE LIST*
G04 Aperture macros list*
%AMRoundRect*
0 Rectangle with rounded corners*
0 $1 Rounding radius*
0 $2 $3 $4 $5 $6 $7 $8 $9 X,Y pos of 4 corners*
0 Add a 4 corners polygon primitive as box body*
4,1,4,$2,$3,$4,$5,$6,$7,$8,$9,$2,$3,0*
0 Add four circle primitives for the rounded corners*
1,1,$1+$1,$2,$3*
1,1,$1+$1,$4,$5*
1,1,$1+$1,$6,$7*
1,1,$1+$1,$8,$9*
0 Add four rect primitives between the rounded corners*
20,1,$1+$1,$2,$3,$4,$5,0*
20,1,$1+$1,$4,$5,$6,$7,0*
20,1,$1+$1,$6,$7,$8,$9,0*
20,1,$1+$1,$8,$9,$2,$3,0*%
G04 Aperture macros list end*
%ADD10C,0.120000*%
%ADD11C,0.100000*%
%ADD12C,0.250000*%
%ADD13RoundRect,0.162500X-0.162500X-0.162500X0.162500X-0.162500X0.162500X0.162500X-0.162500X0.162500X0*%
%ADD14RoundRect,0.165000X0.165000X0.195000X-0.165000X0.195000X-0.165000X-0.195000X0.165000X-0.195000X0*%
%ADD15RoundRect,0.050000X0.127000X0.337500X-0.127000X0.337500X-0.127000X-0.337500X0.127000X-0.337500X0*%
%ADD16RoundRect,0.050000X-0.337500X0.127000X-0.337500X-0.127000X0.337500X-0.127000X0.337500X0.127000X0*%
%ADD17RoundRect,0.155000X-0.155000X0.155000X-0.155000X-0.155000X0.155000X-0.155000X0.155000X0.155000X0*%
%ADD18RoundRect,0.165000X-0.165000X-0.195000X0.165000X-0.195000X0.165000X0.195000X-0.165000X0.195000X0*%
%ADD19RoundRect,0.162500X0.162500X-0.162500X0.162500X0.162500X-0.162500X0.162500X-0.162500X-0.162500X0*%
%ADD20RoundRect,0.155000X0.155000X-0.155000X0.155000X0.155000X-0.155000X0.155000X-0.155000X-0.155000X0*%
%ADD21C,2.000000*%
%ADD22RoundRect,0.095000X-0.555000X-0.095000X0.555000X-0.095000X0.555000X0.095000X-0.555000X0.095000X0*%
%ADD23RoundRect,0.095000X-0.095000X-0.555000X0.095000X-0.555000X0.095000X0.555000X-0.095000X0.555000X0*%
%ADD24RoundRect,0.155000X0.155000X0.155000X-0.155000X0.155000X-0.155000X-0.155000X0.155000X-0.155000X0*%
%ADD25C,0.499800*%
%ADD26RoundRect,0.162500X-0.162500X0.162500X-0.162500X-0.162500X0.162500X-0.162500X0.162500X0.162500X0*%
%ADD27RoundRect,0.050000X0.300000X0.550000X-0.300000X0.550000X-0.300000X-0.550000X0.300000X-0.550000X0*%
%ADD28C,6.500000*%
%ADD29RoundRect,0.155000X-0.155000X-0.155000X0.155000X-0.155000X0.155000X0.155000X-0.155000X0.155000X0*%
%ADD30RoundRect,0.162500X0.162500X0.162500X-0.162500X0.162500X-0.162500X-0.162500X0.162500X-0.162500X0*%
G04 APERTURE END LIST*
D10*
G36*
X161274795Y-85520197D02*
G01*
X161314492Y-85523311D01*
X161353815Y-85529411D01*
X161393901Y-85540848D01*
X161429777Y-85559573D01*
X161460296Y-85586194D01*
X161483392Y-85617247D01*
X161501115Y-85652567D01*
X161512274Y-85690138D01*
X161516868Y-85729961D01*
X161517000Y-85738196D01*
X161513531Y-85779302D01*
X161503127Y-85817038D01*
X161483130Y-85855461D01*
X161461508Y-85882397D01*
X161429988Y-85909032D01*
X161390921Y-85930318D01*
X161350547Y-85944555D01*
X161311342Y-85953499D01*
X161290147Y-85956842D01*
X161325389Y-85976497D01*
X161354432Y-85998461D01*
X161383142Y-86028251D01*
X161408165Y-86058391D01*
X161432415Y-86091683D01*
X161442945Y-86107491D01*
X161583043Y-86332000D01*
X161448807Y-86332000D01*
X161342317Y-86160443D01*
X161319993Y-86125504D01*
X161297331Y-86091424D01*
X161273160Y-86057284D01*
X161265332Y-86046919D01*
X161238312Y-86015412D01*
X161211012Y-85992990D01*
X161174815Y-85976248D01*
X161162554Y-85972865D01*
X161122328Y-85969568D01*
X161103155Y-85969348D01*
X160979470Y-85969348D01*
X160979470Y-86332000D01*
X160872980Y-86332000D01*
X160872980Y-85869306D01*
X160979470Y-85869306D01*
X161208667Y-85869306D01*
X161251231Y-85867932D01*
X161290865Y-85863247D01*
X161322973Y-85855237D01*
X161359268Y-85836773D01*
X161385695Y-85809906D01*
X161403074Y-85773004D01*
X161407188Y-85741909D01*
X161400319Y-85701537D01*
X161379713Y-85667422D01*
X161365569Y-85653786D01*
X161331387Y-85634096D01*
X161290416Y-85623288D01*
X161250851Y-85619505D01*
X161234460Y-85619201D01*
X160979470Y-85619201D01*
X160979470Y-85869306D01*
X160872980Y-85869306D01*
X160872980Y-85519159D01*
X161230161Y-85519159D01*
X161274795Y-85520197D01*
G37*
G36*
X161639316Y-86119411D02*
G01*
X161743266Y-86106905D01*
X161753448Y-86146450D01*
X161771524Y-86182279D01*
X161796804Y-86210073D01*
X161830757Y-86231030D01*
X161869601Y-86242314D01*
X161898214Y-86244463D01*
X161940754Y-86239616D01*
X161978982Y-86225076D01*
X162012897Y-86200843D01*
X162019163Y-86194833D01*
X162045232Y-86160524D01*
X162060439Y-86124230D01*
X162067825Y-86082805D01*
X162068598Y-86062746D01*
X162064826Y-86021395D01*
X162051790Y-85981575D01*
X162029442Y-85948206D01*
X162020921Y-85939452D01*
X161988365Y-85915650D01*
X161950045Y-85900664D01*
X161910631Y-85894713D01*
X161896455Y-85894316D01*
X161856363Y-85897645D01*
X161817391Y-85908599D01*
X161810091Y-85911706D01*
X161775848Y-85931685D01*
X161749714Y-85956842D01*
X161656902Y-85944337D01*
X161734864Y-85531665D01*
X162135618Y-85531665D01*
X162135618Y-85631706D01*
X161813999Y-85631706D01*
X161770621Y-85852111D01*
X161802682Y-85829575D01*
X161840171Y-85810598D01*
X161878562Y-85798849D01*
X161917858Y-85794331D01*
X161922834Y-85794274D01*
X161967415Y-85797790D01*
X162008837Y-85808337D01*
X162047098Y-85825915D01*
X162082199Y-85850524D01*
X162100838Y-85867743D01*
X162129160Y-85901819D01*
X162150526Y-85939935D01*
X162164935Y-85982090D01*
X162171750Y-86021437D01*
X162173524Y-86056494D01*
X162171285Y-86096622D01*
X162163012Y-86140782D01*
X162148642Y-86182080D01*
X162128177Y-86220518D01*
X162109826Y-86246221D01*
X162078751Y-86279622D01*
X162043706Y-86306113D01*
X162004691Y-86325693D01*
X161961705Y-86338362D01*
X161922850Y-86343641D01*
X161898214Y-86344505D01*
X161858383Y-86342341D01*
X161815508Y-86334347D01*
X161776505Y-86320462D01*
X161741372Y-86300687D01*
X161718647Y-86282956D01*
X161691142Y-86254026D01*
X161669322Y-86221262D01*
X161653186Y-86184665D01*
X161642736Y-86144235D01*
X161639316Y-86119411D01*
G37*
G36*
X156443598Y-94915386D02*
G01*
X156469976Y-94808701D01*
X156510252Y-94820511D01*
X156547427Y-94834934D01*
X156587945Y-94855694D01*
X156623998Y-94880217D01*
X156655585Y-94908505D01*
X156674163Y-94929455D01*
X156698068Y-94963428D01*
X156717027Y-95000136D01*
X156731041Y-95039577D01*
X156740108Y-95081752D01*
X156744230Y-95126662D01*
X156744505Y-95142239D01*
X156743202Y-95181779D01*
X156738202Y-95226091D01*
X156729450Y-95266981D01*
X156716948Y-95304451D01*
X156697622Y-95343843D01*
X156691162Y-95354242D01*
X156665543Y-95388029D01*
X156635362Y-95418094D01*
X156600617Y-95444438D01*
X156561310Y-95467061D01*
X156536801Y-95478317D01*
X156498323Y-95492793D01*
X156458802Y-95504274D01*
X156418236Y-95512760D01*
X156376626Y-95518251D01*
X156333972Y-95520747D01*
X156319522Y-95520913D01*
X156273182Y-95519223D01*
X156229122Y-95514154D01*
X156187343Y-95505705D01*
X156147844Y-95493876D01*
X156110626Y-95478667D01*
X156098727Y-95472846D01*
X156059692Y-95449872D01*
X156024996Y-95423009D01*
X155994638Y-95392255D01*
X155968618Y-95357613D01*
X155955698Y-95336070D01*
X155936588Y-95296333D01*
X155922172Y-95254913D01*
X155912449Y-95211810D01*
X155907420Y-95167024D01*
X155906654Y-95140676D01*
X155908873Y-95096673D01*
X155915529Y-95055377D01*
X155926623Y-95016788D01*
X155942155Y-94980905D01*
X155965884Y-94942462D01*
X155969766Y-94937271D01*
X155999837Y-94903590D01*
X156034826Y-94874696D01*
X156068731Y-94853740D01*
X156106249Y-94836301D01*
X156147380Y-94822379D01*
X156171609Y-94927501D01*
X156131455Y-94943059D01*
X156093289Y-94964358D01*
X156062542Y-94989674D01*
X156046166Y-95008785D01*
X156025352Y-95044795D01*
X156012246Y-95086149D01*
X156007043Y-95127935D01*
X156006696Y-95142825D01*
X156008790Y-95182048D01*
X156016313Y-95223280D01*
X156029307Y-95260676D01*
X156050464Y-95298164D01*
X156077339Y-95330304D01*
X156108943Y-95356601D01*
X156145276Y-95377056D01*
X156167505Y-95385896D01*
X156209202Y-95398080D01*
X156251641Y-95406277D01*
X156294822Y-95410486D01*
X156319131Y-95411102D01*
X156361941Y-95409671D01*
X156402319Y-95405380D01*
X156445489Y-95396972D01*
X156485484Y-95384827D01*
X156494986Y-95381206D01*
X156530218Y-95364097D01*
X156564161Y-95339915D01*
X156592077Y-95310510D01*
X156607338Y-95288003D01*
X156625284Y-95251668D01*
X156637357Y-95213663D01*
X156643556Y-95173990D01*
X156644463Y-95151227D01*
X156641300Y-95108119D01*
X156631811Y-95068478D01*
X156615996Y-95032306D01*
X156593856Y-94999601D01*
X156565487Y-94971037D01*
X156530988Y-94947480D01*
X156490358Y-94928930D01*
X156449778Y-94916806D01*
X156443598Y-94915386D01*
G37*
G36*
X156732000Y-94349525D02*
G01*
X156732000Y-94448394D01*
X156098531Y-94448394D01*
X156124204Y-94478344D01*
X156147786Y-94511302D01*
X156167115Y-94542183D01*
X156186826Y-94577289D01*
X156204673Y-94613217D01*
X156218503Y-94646329D01*
X156122369Y-94646329D01*
X156104401Y-94610998D01*
X156081943Y-94573070D01*
X156057434Y-94537756D01*
X156030872Y-94505054D01*
X156027408Y-94501151D01*
X155999686Y-94472354D01*
X155969025Y-94445389D01*
X155935609Y-94422170D01*
X155919159Y-94413223D01*
X155919159Y-94349525D01*
X156732000Y-94349525D01*
G37*
G36*
X156631958Y-93579280D02*
G01*
X156732000Y-93579280D01*
X156732000Y-94111925D01*
X156691979Y-94108758D01*
X156662048Y-94100397D01*
X156624217Y-94083540D01*
X156590145Y-94063207D01*
X156556378Y-94038103D01*
X156553018Y-94035331D01*
X156521680Y-94006914D01*
X156491956Y-93976387D01*
X156464505Y-93945608D01*
X156435707Y-93911033D01*
X156431483Y-93905784D01*
X156405816Y-93874289D01*
X156375733Y-93838664D01*
X156347873Y-93807199D01*
X156317376Y-93774931D01*
X156285841Y-93744856D01*
X156265984Y-93728366D01*
X156232673Y-93705981D01*
X156196930Y-93689700D01*
X156155801Y-93682103D01*
X156152460Y-93682058D01*
X156112874Y-93687965D01*
X156075571Y-93707699D01*
X156057889Y-93724068D01*
X156034314Y-93759202D01*
X156022261Y-93797781D01*
X156019201Y-93833879D01*
X156022769Y-93875687D01*
X156034937Y-93915284D01*
X156055740Y-93948185D01*
X156087073Y-93974343D01*
X156126265Y-93988631D01*
X156156759Y-93991562D01*
X156144254Y-94093167D01*
X156104908Y-94087251D01*
X156063642Y-94075208D01*
X156027368Y-94057630D01*
X155992026Y-94030763D01*
X155976801Y-94014619D01*
X155954341Y-93982550D01*
X155937397Y-93946012D01*
X155925970Y-93905004D01*
X155920567Y-93866298D01*
X155919159Y-93831534D01*
X155921454Y-93789780D01*
X155929930Y-93745356D01*
X155944652Y-93705551D01*
X155965620Y-93670364D01*
X155984421Y-93648059D01*
X156014383Y-93621716D01*
X156052290Y-93599533D01*
X156094104Y-93585801D01*
X156133898Y-93580717D01*
X156145817Y-93580453D01*
X156185407Y-93583710D01*
X156224481Y-93593481D01*
X156242341Y-93600188D01*
X156278520Y-93618671D01*
X156312939Y-93642082D01*
X156341993Y-93665840D01*
X156374215Y-93696460D01*
X156403102Y-93726901D01*
X156430527Y-93757607D01*
X156460411Y-93792572D01*
X156481699Y-93818248D01*
X156507242Y-93849421D01*
X156532891Y-93880128D01*
X156559302Y-93910652D01*
X156579983Y-93932749D01*
X156610749Y-93959581D01*
X156631958Y-93974368D01*
X156631958Y-93579280D01*
G37*
G36*
X155099958Y-91769159D02*
G01*
X155206644Y-91769159D01*
X155206644Y-92238106D01*
X155205675Y-92282202D01*
X155202769Y-92322754D01*
X155196931Y-92365585D01*
X155187030Y-92408626D01*
X155179093Y-92432327D01*
X155160197Y-92470657D01*
X155134285Y-92504751D01*
X155105360Y-92531502D01*
X155080028Y-92549369D01*
X155041365Y-92569116D01*
X155002926Y-92581766D01*
X154960186Y-92590097D01*
X154920129Y-92593799D01*
X154891668Y-92594505D01*
X154850686Y-92593124D01*
X154806519Y-92588023D01*
X154766280Y-92579163D01*
X154725101Y-92564435D01*
X154706434Y-92555230D01*
X154673046Y-92533395D01*
X154641616Y-92503575D01*
X154616677Y-92468191D01*
X154603657Y-92441511D01*
X154590236Y-92400881D01*
X154581638Y-92359740D01*
X154576605Y-92320324D01*
X154573729Y-92277075D01*
X154572980Y-92238106D01*
X154572980Y-91769159D01*
X154679470Y-91769159D01*
X154679470Y-92235370D01*
X154680405Y-92278800D01*
X154683763Y-92321955D01*
X154690461Y-92362242D01*
X154699009Y-92390709D01*
X154719497Y-92427419D01*
X154749207Y-92456583D01*
X154766030Y-92467498D01*
X154804635Y-92483930D01*
X154845286Y-92492330D01*
X154882289Y-92494463D01*
X154924023Y-92492588D01*
X154966704Y-92485659D01*
X155007559Y-92471490D01*
X155043421Y-92447580D01*
X155049938Y-92441120D01*
X155071822Y-92408184D01*
X155085841Y-92369247D01*
X155094048Y-92328356D01*
X155098200Y-92288981D01*
X155099910Y-92244787D01*
X155099958Y-92235370D01*
X155099958Y-91769159D01*
G37*
G36*
X155339903Y-92369411D02*
G01*
X155438772Y-92356905D01*
X155450220Y-92394781D01*
X155469333Y-92432300D01*
X155496609Y-92462223D01*
X155532883Y-92483097D01*
X155571575Y-92492920D01*
X155596455Y-92494463D01*
X155638038Y-92489960D01*
X155675346Y-92476450D01*
X155708380Y-92453934D01*
X155714473Y-92448350D01*
X155739821Y-92417251D01*
X155756861Y-92378061D01*
X155762494Y-92337906D01*
X155762540Y-92333653D01*
X155757276Y-92291487D01*
X155741484Y-92254724D01*
X155717991Y-92225991D01*
X155684500Y-92201740D01*
X155645283Y-92187555D01*
X155604662Y-92183395D01*
X155564316Y-92187669D01*
X155534906Y-92194337D01*
X155546044Y-92094295D01*
X155561871Y-92095272D01*
X155603783Y-92091901D01*
X155642739Y-92081789D01*
X155675590Y-92066745D01*
X155706429Y-92040861D01*
X155723776Y-92003022D01*
X155726197Y-91978427D01*
X155718083Y-91937703D01*
X155693740Y-91904192D01*
X155689268Y-91900269D01*
X155653011Y-91879031D01*
X155611977Y-91869960D01*
X155594306Y-91869201D01*
X155553768Y-91873598D01*
X155515929Y-91888283D01*
X155498172Y-91900464D01*
X155471444Y-91931025D01*
X155454843Y-91968394D01*
X155448737Y-91994254D01*
X155349868Y-91981748D01*
X155360024Y-91939646D01*
X155374594Y-91901900D01*
X155396649Y-91864097D01*
X155424469Y-91831985D01*
X155432324Y-91824847D01*
X155466420Y-91800483D01*
X155504425Y-91783081D01*
X155546337Y-91772640D01*
X155586215Y-91769214D01*
X155592157Y-91769159D01*
X155632300Y-91771850D01*
X155674122Y-91781024D01*
X155713497Y-91796710D01*
X155748553Y-91817918D01*
X155779740Y-91846531D01*
X155798298Y-91871741D01*
X155816277Y-91908176D01*
X155825958Y-91946260D01*
X155827802Y-91972565D01*
X155823191Y-92012200D01*
X155809356Y-92048868D01*
X155799861Y-92064791D01*
X155772676Y-92095801D01*
X155739625Y-92119445D01*
X155716818Y-92131030D01*
X155754510Y-92143466D01*
X155790444Y-92164029D01*
X155820120Y-92191689D01*
X155827802Y-92201371D01*
X155848719Y-92237344D01*
X155861889Y-92278583D01*
X155867119Y-92320201D01*
X155867467Y-92335021D01*
X155864761Y-92374593D01*
X155854762Y-92417808D01*
X155837395Y-92457845D01*
X155812660Y-92494702D01*
X155790482Y-92519083D01*
X155760250Y-92544714D01*
X155721350Y-92567915D01*
X155684897Y-92582057D01*
X155645572Y-92590896D01*
X155603376Y-92594431D01*
X155596065Y-92594505D01*
X155551367Y-92591503D01*
X155510109Y-92582499D01*
X155472293Y-92567493D01*
X155437917Y-92546484D01*
X155419819Y-92531783D01*
X155392086Y-92502575D01*
X155370093Y-92469833D01*
X155353842Y-92433557D01*
X155343331Y-92393746D01*
X155339903Y-92369411D01*
G37*
G36*
X146793598Y-99303927D02*
G01*
X146819976Y-99197242D01*
X146860252Y-99209052D01*
X146897427Y-99223475D01*
X146937945Y-99244235D01*
X146973998Y-99268758D01*
X147005585Y-99297046D01*
X147024163Y-99317996D01*
X147048068Y-99351969D01*
X147067027Y-99388677D01*
X147081041Y-99428118D01*
X147090108Y-99470293D01*
X147094230Y-99515203D01*
X147094505Y-99530780D01*
X147093202Y-99570320D01*
X147088202Y-99614632D01*
X147079450Y-99655522D01*
X147066948Y-99692992D01*
X147047622Y-99732384D01*
X147041162Y-99742783D01*
X147015543Y-99776570D01*
X146985362Y-99806635D01*
X146950617Y-99832979D01*
X146911310Y-99855602D01*
X146886801Y-99866858D01*
X146848323Y-99881334D01*
X146808802Y-99892815D01*
X146768236Y-99901301D01*
X146726626Y-99906792D01*
X146683972Y-99909288D01*
X146669522Y-99909454D01*
X146623182Y-99907764D01*
X146579122Y-99902695D01*
X146537343Y-99894246D01*
X146497844Y-99882417D01*
X146460626Y-99867208D01*
X146448727Y-99861387D01*
X146409692Y-99838413D01*
X146374996Y-99811550D01*
X146344638Y-99780796D01*
X146318618Y-99746154D01*
X146305698Y-99724611D01*
X146286588Y-99684874D01*
X146272172Y-99643454D01*
X146262449Y-99600351D01*
X146257420Y-99555565D01*
X146256654Y-99529217D01*
X146258873Y-99485214D01*
X146265529Y-99443918D01*
X146276623Y-99405329D01*
X146292155Y-99369446D01*
X146315884Y-99331003D01*
X146319766Y-99325812D01*
X146349837Y-99292131D01*
X146384826Y-99263237D01*
X146418731Y-99242281D01*
X146456249Y-99224842D01*
X146497380Y-99210920D01*
X146521609Y-99316042D01*
X146481455Y-99331600D01*
X146443289Y-99352899D01*
X146412542Y-99378215D01*
X146396166Y-99397326D01*
X146375352Y-99433336D01*
X146362246Y-99474690D01*
X146357043Y-99516476D01*
X146356696Y-99531366D01*
X146358790Y-99570589D01*
X146366313Y-99611821D01*
X146379307Y-99649217D01*
X146400464Y-99686705D01*
X146427339Y-99718845D01*
X146458943Y-99745142D01*
X146495276Y-99765597D01*
X146517505Y-99774437D01*
X146559202Y-99786621D01*
X146601641Y-99794818D01*
X146644822Y-99799027D01*
X146669131Y-99799643D01*
X146711941Y-99798212D01*
X146752319Y-99793921D01*
X146795489Y-99785513D01*
X146835484Y-99773368D01*
X146844986Y-99769747D01*
X146880218Y-99752638D01*
X146914161Y-99728456D01*
X146942077Y-99699051D01*
X146957338Y-99676544D01*
X146975284Y-99640209D01*
X146987357Y-99602204D01*
X146993556Y-99562531D01*
X146994463Y-99539768D01*
X146991300Y-99496660D01*
X146981811Y-99457019D01*
X146965996Y-99420847D01*
X146943856Y-99388142D01*
X146915487Y-99359578D01*
X146880988Y-99336021D01*
X146840358Y-99317471D01*
X146799778Y-99305347D01*
X146793598Y-99303927D01*
G37*
G36*
X146894421Y-98694688D02*
G01*
X147082000Y-98694688D01*
X147082000Y-98793558D01*
X146894421Y-98793558D01*
X146894421Y-99143118D01*
X146794379Y-99143118D01*
X146307001Y-98793558D01*
X146442669Y-98793558D01*
X146794379Y-99045812D01*
X146794379Y-98793558D01*
X146442669Y-98793558D01*
X146307001Y-98793558D01*
X146281665Y-98775386D01*
X146281665Y-98694688D01*
X146794379Y-98694688D01*
X146794379Y-98585854D01*
X146894421Y-98585854D01*
X146894421Y-98694688D01*
G37*
G36*
X160743598Y-94915386D02*
G01*
X160769976Y-94808701D01*
X160810252Y-94820511D01*
X160847427Y-94834934D01*
X160887945Y-94855694D01*
X160923998Y-94880217D01*
X160955585Y-94908505D01*
X160974163Y-94929455D01*
X160998068Y-94963428D01*
X161017027Y-95000136D01*
X161031041Y-95039577D01*
X161040108Y-95081752D01*
X161044230Y-95126662D01*
X161044505Y-95142239D01*
X161043202Y-95181779D01*
X161038202Y-95226091D01*
X161029450Y-95266981D01*
X161016948Y-95304451D01*
X160997622Y-95343843D01*
X160991162Y-95354242D01*
X160965543Y-95388029D01*
X160935362Y-95418094D01*
X160900617Y-95444438D01*
X160861310Y-95467061D01*
X160836801Y-95478317D01*
X160798323Y-95492793D01*
X160758802Y-95504274D01*
X160718236Y-95512760D01*
X160676626Y-95518251D01*
X160633972Y-95520747D01*
X160619522Y-95520913D01*
X160573182Y-95519223D01*
X160529122Y-95514154D01*
X160487343Y-95505705D01*
X160447844Y-95493876D01*
X160410626Y-95478667D01*
X160398727Y-95472846D01*
X160359692Y-95449872D01*
X160324996Y-95423009D01*
X160294638Y-95392255D01*
X160268618Y-95357613D01*
X160255698Y-95336070D01*
X160236588Y-95296333D01*
X160222172Y-95254913D01*
X160212449Y-95211810D01*
X160207420Y-95167024D01*
X160206654Y-95140676D01*
X160208873Y-95096673D01*
X160215529Y-95055377D01*
X160226623Y-95016788D01*
X160242155Y-94980905D01*
X160265884Y-94942462D01*
X160269766Y-94937271D01*
X160299837Y-94903590D01*
X160334826Y-94874696D01*
X160368731Y-94853740D01*
X160406249Y-94836301D01*
X160447380Y-94822379D01*
X160471609Y-94927501D01*
X160431455Y-94943059D01*
X160393289Y-94964358D01*
X160362542Y-94989674D01*
X160346166Y-95008785D01*
X160325352Y-95044795D01*
X160312246Y-95086149D01*
X160307043Y-95127935D01*
X160306696Y-95142825D01*
X160308790Y-95182048D01*
X160316313Y-95223280D01*
X160329307Y-95260676D01*
X160350464Y-95298164D01*
X160377339Y-95330304D01*
X160408943Y-95356601D01*
X160445276Y-95377056D01*
X160467505Y-95385896D01*
X160509202Y-95398080D01*
X160551641Y-95406277D01*
X160594822Y-95410486D01*
X160619131Y-95411102D01*
X160661941Y-95409671D01*
X160702319Y-95405380D01*
X160745489Y-95396972D01*
X160785484Y-95384827D01*
X160794986Y-95381206D01*
X160830218Y-95364097D01*
X160864161Y-95339915D01*
X160892077Y-95310510D01*
X160907338Y-95288003D01*
X160925284Y-95251668D01*
X160937357Y-95213663D01*
X160943556Y-95173990D01*
X160944463Y-95151227D01*
X160941300Y-95108119D01*
X160931811Y-95068478D01*
X160915996Y-95032306D01*
X160893856Y-94999601D01*
X160865487Y-94971037D01*
X160830988Y-94947480D01*
X160790358Y-94928930D01*
X160749778Y-94916806D01*
X160743598Y-94915386D01*
G37*
G36*
X161032000Y-94349525D02*
G01*
X161032000Y-94448394D01*
X160398531Y-94448394D01*
X160424204Y-94478344D01*
X160447786Y-94511302D01*
X160467115Y-94542183D01*
X160486826Y-94577289D01*
X160504673Y-94613217D01*
X160518503Y-94646329D01*
X160422369Y-94646329D01*
X160404401Y-94610998D01*
X160381943Y-94573070D01*
X160357434Y-94537756D01*
X160330872Y-94505054D01*
X160327408Y-94501151D01*
X160299686Y-94472354D01*
X160269025Y-94445389D01*
X160235609Y-94422170D01*
X160219159Y-94413223D01*
X160219159Y-94349525D01*
X161032000Y-94349525D01*
G37*
G36*
X160819411Y-94098638D02*
G01*
X160806905Y-93999769D01*
X160844781Y-93988321D01*
X160882300Y-93969208D01*
X160912223Y-93941932D01*
X160933097Y-93905658D01*
X160942920Y-93866966D01*
X160944463Y-93842086D01*
X160939960Y-93800503D01*
X160926450Y-93763195D01*
X160903934Y-93730161D01*
X160898350Y-93724068D01*
X160867251Y-93698720D01*
X160828061Y-93681680D01*
X160787906Y-93676048D01*
X160783653Y-93676001D01*
X160741487Y-93681265D01*
X160704724Y-93697057D01*
X160675991Y-93720550D01*
X160651740Y-93754042D01*
X160637555Y-93793259D01*
X160633395Y-93833879D01*
X160637669Y-93874225D01*
X160644337Y-93903635D01*
X160544295Y-93892497D01*
X160545272Y-93876670D01*
X160541901Y-93834758D01*
X160531789Y-93795802D01*
X160516745Y-93762951D01*
X160490861Y-93732112D01*
X160453022Y-93714766D01*
X160428427Y-93712344D01*
X160387703Y-93720458D01*
X160354192Y-93744801D01*
X160350269Y-93749273D01*
X160329031Y-93785530D01*
X160319960Y-93826564D01*
X160319201Y-93844235D01*
X160323598Y-93884773D01*
X160338283Y-93922612D01*
X160350464Y-93940369D01*
X160381025Y-93967097D01*
X160418394Y-93983698D01*
X160444254Y-93989804D01*
X160431748Y-94088673D01*
X160389646Y-94078517D01*
X160351900Y-94063947D01*
X160314097Y-94041892D01*
X160281985Y-94014072D01*
X160274847Y-94006217D01*
X160250483Y-93972121D01*
X160233081Y-93934116D01*
X160222640Y-93892204D01*
X160219214Y-93852326D01*
X160219159Y-93846384D01*
X160221850Y-93806241D01*
X160231024Y-93764419D01*
X160246710Y-93725045D01*
X160267918Y-93689988D01*
X160296531Y-93658801D01*
X160321741Y-93640243D01*
X160358176Y-93622264D01*
X160396260Y-93612583D01*
X160422565Y-93610739D01*
X160462200Y-93615350D01*
X160498868Y-93629185D01*
X160514791Y-93638680D01*
X160545801Y-93665865D01*
X160569445Y-93698916D01*
X160581030Y-93721723D01*
X160593466Y-93684031D01*
X160614029Y-93648097D01*
X160641689Y-93618421D01*
X160651371Y-93610739D01*
X160687344Y-93589822D01*
X160728583Y-93576652D01*
X160770201Y-93571422D01*
X160785021Y-93571074D01*
X160824593Y-93573780D01*
X160867808Y-93583779D01*
X160907845Y-93601146D01*
X160944702Y-93625881D01*
X160969083Y-93648059D01*
X160994714Y-93678291D01*
X161017915Y-93717191D01*
X161032057Y-93753644D01*
X161040896Y-93792969D01*
X161044431Y-93835165D01*
X161044505Y-93842476D01*
X161041503Y-93887174D01*
X161032499Y-93928432D01*
X161017493Y-93966248D01*
X160996484Y-94000624D01*
X160981783Y-94018722D01*
X160952575Y-94046455D01*
X160919833Y-94068448D01*
X160883557Y-94084699D01*
X160843746Y-94095210D01*
X160819411Y-94098638D01*
G37*
G36*
X163524795Y-87520197D02*
G01*
X163564492Y-87523311D01*
X163603815Y-87529411D01*
X163643901Y-87540848D01*
X163679777Y-87559573D01*
X163710296Y-87586194D01*
X163733392Y-87617247D01*
X163751115Y-87652567D01*
X163762274Y-87690138D01*
X163766868Y-87729961D01*
X163767000Y-87738196D01*
X163763531Y-87779302D01*
X163753127Y-87817038D01*
X163733130Y-87855461D01*
X163711508Y-87882397D01*
X163679988Y-87909032D01*
X163640921Y-87930318D01*
X163600547Y-87944555D01*
X163561342Y-87953499D01*
X163540147Y-87956842D01*
X163575389Y-87976497D01*
X163604432Y-87998461D01*
X163633142Y-88028251D01*
X163658165Y-88058391D01*
X163682415Y-88091683D01*
X163692945Y-88107491D01*
X163833043Y-88332000D01*
X163698807Y-88332000D01*
X163592317Y-88160443D01*
X163569993Y-88125504D01*
X163547331Y-88091424D01*
X163523160Y-88057284D01*
X163515332Y-88046919D01*
X163488312Y-88015412D01*
X163461012Y-87992990D01*
X163424815Y-87976248D01*
X163412554Y-87972865D01*
X163372328Y-87969568D01*
X163353155Y-87969348D01*
X163229470Y-87969348D01*
X163229470Y-88332000D01*
X163122980Y-88332000D01*
X163122980Y-87869306D01*
X163229470Y-87869306D01*
X163458667Y-87869306D01*
X163501231Y-87867932D01*
X163540865Y-87863247D01*
X163572973Y-87855237D01*
X163609268Y-87836773D01*
X163635695Y-87809906D01*
X163653074Y-87773004D01*
X163657188Y-87741909D01*
X163650319Y-87701537D01*
X163629713Y-87667422D01*
X163615569Y-87653786D01*
X163581387Y-87634096D01*
X163540416Y-87623288D01*
X163500851Y-87619505D01*
X163484460Y-87619201D01*
X163229470Y-87619201D01*
X163229470Y-87869306D01*
X163122980Y-87869306D01*
X163122980Y-87519159D01*
X163480161Y-87519159D01*
X163524795Y-87520197D01*
G37*
G36*
X164305311Y-88044379D02*
G01*
X164414145Y-88044379D01*
X164414145Y-88144421D01*
X164305311Y-88144421D01*
X164305311Y-88332000D01*
X164206441Y-88332000D01*
X164206441Y-88144421D01*
X163856881Y-88144421D01*
X163856881Y-88044379D01*
X163954187Y-88044379D01*
X164206441Y-88044379D01*
X164206441Y-87692669D01*
X163954187Y-88044379D01*
X163856881Y-88044379D01*
X164224613Y-87531665D01*
X164305311Y-87531665D01*
X164305311Y-88044379D01*
G37*
G36*
X150743598Y-83603927D02*
G01*
X150769976Y-83497242D01*
X150810252Y-83509052D01*
X150847427Y-83523475D01*
X150887945Y-83544235D01*
X150923998Y-83568758D01*
X150955585Y-83597046D01*
X150974163Y-83617996D01*
X150998068Y-83651969D01*
X151017027Y-83688677D01*
X151031041Y-83728118D01*
X151040108Y-83770293D01*
X151044230Y-83815203D01*
X151044505Y-83830780D01*
X151043202Y-83870320D01*
X151038202Y-83914632D01*
X151029450Y-83955522D01*
X151016948Y-83992992D01*
X150997622Y-84032384D01*
X150991162Y-84042783D01*
X150965543Y-84076570D01*
X150935362Y-84106635D01*
X150900617Y-84132979D01*
X150861310Y-84155602D01*
X150836801Y-84166858D01*
X150798323Y-84181334D01*
X150758802Y-84192815D01*
X150718236Y-84201301D01*
X150676626Y-84206792D01*
X150633972Y-84209288D01*
X150619522Y-84209454D01*
X150573182Y-84207764D01*
X150529122Y-84202695D01*
X150487343Y-84194246D01*
X150447844Y-84182417D01*
X150410626Y-84167208D01*
X150398727Y-84161387D01*
X150359692Y-84138413D01*
X150324996Y-84111550D01*
X150294638Y-84080796D01*
X150268618Y-84046154D01*
X150255698Y-84024611D01*
X150236588Y-83984874D01*
X150222172Y-83943454D01*
X150212449Y-83900351D01*
X150207420Y-83855565D01*
X150206654Y-83829217D01*
X150208873Y-83785214D01*
X150215529Y-83743918D01*
X150226623Y-83705329D01*
X150242155Y-83669446D01*
X150265884Y-83631003D01*
X150269766Y-83625812D01*
X150299837Y-83592131D01*
X150334826Y-83563237D01*
X150368731Y-83542281D01*
X150406249Y-83524842D01*
X150447380Y-83510920D01*
X150471609Y-83616042D01*
X150431455Y-83631600D01*
X150393289Y-83652899D01*
X150362542Y-83678215D01*
X150346166Y-83697326D01*
X150325352Y-83733336D01*
X150312246Y-83774690D01*
X150307043Y-83816476D01*
X150306696Y-83831366D01*
X150308790Y-83870589D01*
X150316313Y-83911821D01*
X150329307Y-83949217D01*
X150350464Y-83986705D01*
X150377339Y-84018845D01*
X150408943Y-84045142D01*
X150445276Y-84065597D01*
X150467505Y-84074437D01*
X150509202Y-84086621D01*
X150551641Y-84094818D01*
X150594822Y-84099027D01*
X150619131Y-84099643D01*
X150661941Y-84098212D01*
X150702319Y-84093921D01*
X150745489Y-84085513D01*
X150785484Y-84073368D01*
X150794986Y-84069747D01*
X150830218Y-84052638D01*
X150864161Y-84028456D01*
X150892077Y-83999051D01*
X150907338Y-83976544D01*
X150925284Y-83940209D01*
X150937357Y-83902204D01*
X150943556Y-83862531D01*
X150944463Y-83839768D01*
X150941300Y-83796660D01*
X150931811Y-83757019D01*
X150915996Y-83720847D01*
X150893856Y-83688142D01*
X150865487Y-83659578D01*
X150830988Y-83636021D01*
X150790358Y-83617471D01*
X150749778Y-83605347D01*
X150743598Y-83603927D01*
G37*
G36*
X150819411Y-83410096D02*
G01*
X150806905Y-83311227D01*
X150844781Y-83299779D01*
X150882300Y-83280666D01*
X150912223Y-83253390D01*
X150933097Y-83217116D01*
X150942920Y-83178424D01*
X150944463Y-83153544D01*
X150939960Y-83111961D01*
X150926450Y-83074653D01*
X150903934Y-83041619D01*
X150898350Y-83035526D01*
X150867251Y-83010178D01*
X150828061Y-82993138D01*
X150787906Y-82987505D01*
X150783653Y-82987459D01*
X150741487Y-82992723D01*
X150704724Y-83008515D01*
X150675991Y-83032008D01*
X150651740Y-83065499D01*
X150637555Y-83104716D01*
X150633395Y-83145337D01*
X150637669Y-83185683D01*
X150644337Y-83215093D01*
X150544295Y-83203955D01*
X150545272Y-83188128D01*
X150541901Y-83146216D01*
X150531789Y-83107260D01*
X150516745Y-83074409D01*
X150490861Y-83043570D01*
X150453022Y-83026223D01*
X150428427Y-83023802D01*
X150387703Y-83031916D01*
X150354192Y-83056259D01*
X150350269Y-83060731D01*
X150329031Y-83096988D01*
X150319960Y-83138022D01*
X150319201Y-83155693D01*
X150323598Y-83196231D01*
X150338283Y-83234070D01*
X150350464Y-83251827D01*
X150381025Y-83278555D01*
X150418394Y-83295156D01*
X150444254Y-83301262D01*
X150431748Y-83400131D01*
X150389646Y-83389975D01*
X150351900Y-83375405D01*
X150314097Y-83353350D01*
X150281985Y-83325530D01*
X150274847Y-83317675D01*
X150250483Y-83283579D01*
X150233081Y-83245574D01*
X150222640Y-83203662D01*
X150219214Y-83163784D01*
X150219159Y-83157842D01*
X150221850Y-83117699D01*
X150231024Y-83075877D01*
X150246710Y-83036502D01*
X150267918Y-83001446D01*
X150296531Y-82970259D01*
X150321741Y-82951701D01*
X150358176Y-82933722D01*
X150396260Y-82924041D01*
X150422565Y-82922197D01*
X150462200Y-82926808D01*
X150498868Y-82940643D01*
X150514791Y-82950138D01*
X150545801Y-82977323D01*
X150569445Y-83010374D01*
X150581030Y-83033181D01*
X150593466Y-82995489D01*
X150614029Y-82959555D01*
X150641689Y-82929879D01*
X150651371Y-82922197D01*
X150687344Y-82901280D01*
X150728583Y-82888110D01*
X150770201Y-82882880D01*
X150785021Y-82882532D01*
X150824593Y-82885238D01*
X150867808Y-82895237D01*
X150907845Y-82912604D01*
X150944702Y-82937339D01*
X150969083Y-82959517D01*
X150994714Y-82989749D01*
X151017915Y-83028649D01*
X151032057Y-83065102D01*
X151040896Y-83104427D01*
X151044431Y-83146623D01*
X151044505Y-83153934D01*
X151041503Y-83198632D01*
X151032499Y-83239890D01*
X151017493Y-83277706D01*
X150996484Y-83312082D01*
X150981783Y-83330180D01*
X150952575Y-83357913D01*
X150919833Y-83379906D01*
X150883557Y-83396157D01*
X150843746Y-83406668D01*
X150819411Y-83410096D01*
G37*
G36*
X141843598Y-96903927D02*
G01*
X141869976Y-96797242D01*
X141910252Y-96809052D01*
X141947427Y-96823475D01*
X141987945Y-96844235D01*
X142023998Y-96868758D01*
X142055585Y-96897046D01*
X142074163Y-96917996D01*
X142098068Y-96951969D01*
X142117027Y-96988677D01*
X142131041Y-97028118D01*
X142140108Y-97070293D01*
X142144230Y-97115203D01*
X142144505Y-97130780D01*
X142143202Y-97170320D01*
X142138202Y-97214632D01*
X142129450Y-97255522D01*
X142116948Y-97292992D01*
X142097622Y-97332384D01*
X142091162Y-97342783D01*
X142065543Y-97376570D01*
X142035362Y-97406635D01*
X142000617Y-97432979D01*
X141961310Y-97455602D01*
X141936801Y-97466858D01*
X141898323Y-97481334D01*
X141858802Y-97492815D01*
X141818236Y-97501301D01*
X141776626Y-97506792D01*
X141733972Y-97509288D01*
X141719522Y-97509454D01*
X141673182Y-97507764D01*
X141629122Y-97502695D01*
X141587343Y-97494246D01*
X141547844Y-97482417D01*
X141510626Y-97467208D01*
X141498727Y-97461387D01*
X141459692Y-97438413D01*
X141424996Y-97411550D01*
X141394638Y-97380796D01*
X141368618Y-97346154D01*
X141355698Y-97324611D01*
X141336588Y-97284874D01*
X141322172Y-97243454D01*
X141312449Y-97200351D01*
X141307420Y-97155565D01*
X141306654Y-97129217D01*
X141308873Y-97085214D01*
X141315529Y-97043918D01*
X141326623Y-97005329D01*
X141342155Y-96969446D01*
X141365884Y-96931003D01*
X141369766Y-96925812D01*
X141399837Y-96892131D01*
X141434826Y-96863237D01*
X141468731Y-96842281D01*
X141506249Y-96824842D01*
X141547380Y-96810920D01*
X141571609Y-96916042D01*
X141531455Y-96931600D01*
X141493289Y-96952899D01*
X141462542Y-96978215D01*
X141446166Y-96997326D01*
X141425352Y-97033336D01*
X141412246Y-97074690D01*
X141407043Y-97116476D01*
X141406696Y-97131366D01*
X141408790Y-97170589D01*
X141416313Y-97211821D01*
X141429307Y-97249217D01*
X141450464Y-97286705D01*
X141477339Y-97318845D01*
X141508943Y-97345142D01*
X141545276Y-97365597D01*
X141567505Y-97374437D01*
X141609202Y-97386621D01*
X141651641Y-97394818D01*
X141694822Y-97399027D01*
X141719131Y-97399643D01*
X141761941Y-97398212D01*
X141802319Y-97393921D01*
X141845489Y-97385513D01*
X141885484Y-97373368D01*
X141894986Y-97369747D01*
X141930218Y-97352638D01*
X141964161Y-97328456D01*
X141992077Y-97299051D01*
X142007338Y-97276544D01*
X142025284Y-97240209D01*
X142037357Y-97202204D01*
X142043556Y-97162531D01*
X142044463Y-97139768D01*
X142041300Y-97096660D01*
X142031811Y-97057019D01*
X142015996Y-97020847D01*
X141993856Y-96988142D01*
X141965487Y-96959578D01*
X141930988Y-96936021D01*
X141890358Y-96917471D01*
X141849778Y-96905347D01*
X141843598Y-96903927D01*
G37*
G36*
X141919411Y-96710683D02*
G01*
X141906905Y-96606733D01*
X141946450Y-96596551D01*
X141982279Y-96578475D01*
X142010073Y-96553195D01*
X142031030Y-96519242D01*
X142042314Y-96480398D01*
X142044463Y-96451785D01*
X142039616Y-96409245D01*
X142025076Y-96371017D01*
X142000843Y-96337102D01*
X141994833Y-96330836D01*
X141960524Y-96304767D01*
X141924230Y-96289560D01*
X141882805Y-96282174D01*
X141862746Y-96281401D01*
X141821395Y-96285173D01*
X141781575Y-96298209D01*
X141748206Y-96320557D01*
X141739452Y-96329078D01*
X141715650Y-96361634D01*
X141700664Y-96399954D01*
X141694713Y-96439368D01*
X141694316Y-96453544D01*
X141697645Y-96493636D01*
X141708599Y-96532608D01*
X141711706Y-96539908D01*
X141731685Y-96574151D01*
X141756842Y-96600285D01*
X141744337Y-96693097D01*
X141331665Y-96615135D01*
X141331665Y-96214381D01*
X141431706Y-96214381D01*
X141431706Y-96536000D01*
X141652111Y-96579378D01*
X141629575Y-96547317D01*
X141610598Y-96509828D01*
X141598849Y-96471437D01*
X141594331Y-96432141D01*
X141594274Y-96427165D01*
X141597790Y-96382584D01*
X141608337Y-96341162D01*
X141625915Y-96302901D01*
X141650524Y-96267800D01*
X141667743Y-96249161D01*
X141701819Y-96220839D01*
X141739935Y-96199473D01*
X141782090Y-96185064D01*
X141821437Y-96178249D01*
X141856494Y-96176475D01*
X141896622Y-96178714D01*
X141940782Y-96186987D01*
X141982080Y-96201357D01*
X142020518Y-96221822D01*
X142046221Y-96240173D01*
X142079622Y-96271248D01*
X142106113Y-96306293D01*
X142125693Y-96345308D01*
X142138362Y-96388294D01*
X142143641Y-96427149D01*
X142144505Y-96451785D01*
X142142341Y-96491616D01*
X142134347Y-96534491D01*
X142120462Y-96573494D01*
X142100687Y-96608627D01*
X142082956Y-96631352D01*
X142054026Y-96658857D01*
X142021262Y-96680677D01*
X141984665Y-96696813D01*
X141944235Y-96707263D01*
X141919411Y-96710683D01*
G37*
G36*
X154332000Y-86701192D02*
G01*
X154160443Y-86807682D01*
X154125504Y-86830006D01*
X154091424Y-86852668D01*
X154057284Y-86876839D01*
X154046919Y-86884667D01*
X154015412Y-86911687D01*
X153992990Y-86938987D01*
X153976248Y-86975184D01*
X153972865Y-86987445D01*
X153969568Y-87027671D01*
X153969348Y-87046844D01*
X153969348Y-87170529D01*
X154332000Y-87170529D01*
X154332000Y-87277019D01*
X153519159Y-87277019D01*
X153519159Y-86919838D01*
X153519259Y-86915539D01*
X153619201Y-86915539D01*
X153619201Y-87170529D01*
X153869306Y-87170529D01*
X153869306Y-86941332D01*
X153867932Y-86898768D01*
X153863247Y-86859134D01*
X153855237Y-86827026D01*
X153836773Y-86790731D01*
X153809906Y-86764304D01*
X153773004Y-86746925D01*
X153741909Y-86742811D01*
X153701537Y-86749680D01*
X153667422Y-86770286D01*
X153653786Y-86784430D01*
X153634096Y-86818612D01*
X153623288Y-86859583D01*
X153619505Y-86899148D01*
X153619201Y-86915539D01*
X153519259Y-86915539D01*
X153520197Y-86875204D01*
X153523311Y-86835507D01*
X153529411Y-86796184D01*
X153540848Y-86756098D01*
X153559573Y-86720222D01*
X153586194Y-86689703D01*
X153617247Y-86666607D01*
X153652567Y-86648884D01*
X153690138Y-86637725D01*
X153729961Y-86633131D01*
X153738196Y-86632999D01*
X153779302Y-86636468D01*
X153817038Y-86646872D01*
X153855461Y-86666869D01*
X153882397Y-86688491D01*
X153909032Y-86720011D01*
X153930318Y-86759078D01*
X153944555Y-86799452D01*
X153953499Y-86838657D01*
X153956842Y-86859852D01*
X153976497Y-86824610D01*
X153998461Y-86795567D01*
X154028251Y-86766857D01*
X154058391Y-86741834D01*
X154091683Y-86717584D01*
X154107491Y-86707054D01*
X154332000Y-86566956D01*
X154332000Y-86701192D01*
G37*
G36*
X154119411Y-86510096D02*
G01*
X154106905Y-86411227D01*
X154144781Y-86399779D01*
X154182300Y-86380666D01*
X154212223Y-86353390D01*
X154233097Y-86317116D01*
X154242920Y-86278424D01*
X154244463Y-86253544D01*
X154239960Y-86211961D01*
X154226450Y-86174653D01*
X154203934Y-86141619D01*
X154198350Y-86135526D01*
X154167251Y-86110178D01*
X154128061Y-86093138D01*
X154087906Y-86087505D01*
X154083653Y-86087459D01*
X154041487Y-86092723D01*
X154004724Y-86108515D01*
X153975991Y-86132008D01*
X153951740Y-86165499D01*
X153937555Y-86204716D01*
X153933395Y-86245337D01*
X153937669Y-86285683D01*
X153944337Y-86315093D01*
X153844295Y-86303955D01*
X153845272Y-86288128D01*
X153841901Y-86246216D01*
X153831789Y-86207260D01*
X153816745Y-86174409D01*
X153790861Y-86143570D01*
X153753022Y-86126223D01*
X153728427Y-86123802D01*
X153687703Y-86131916D01*
X153654192Y-86156259D01*
X153650269Y-86160731D01*
X153629031Y-86196988D01*
X153619960Y-86238022D01*
X153619201Y-86255693D01*
X153623598Y-86296231D01*
X153638283Y-86334070D01*
X153650464Y-86351827D01*
X153681025Y-86378555D01*
X153718394Y-86395156D01*
X153744254Y-86401262D01*
X153731748Y-86500131D01*
X153689646Y-86489975D01*
X153651900Y-86475405D01*
X153614097Y-86453350D01*
X153581985Y-86425530D01*
X153574847Y-86417675D01*
X153550483Y-86383579D01*
X153533081Y-86345574D01*
X153522640Y-86303662D01*
X153519214Y-86263784D01*
X153519159Y-86257842D01*
X153521850Y-86217699D01*
X153531024Y-86175877D01*
X153546710Y-86136502D01*
X153567918Y-86101446D01*
X153596531Y-86070259D01*
X153621741Y-86051701D01*
X153658176Y-86033722D01*
X153696260Y-86024041D01*
X153722565Y-86022197D01*
X153762200Y-86026808D01*
X153798868Y-86040643D01*
X153814791Y-86050138D01*
X153845801Y-86077323D01*
X153869445Y-86110374D01*
X153881030Y-86133181D01*
X153893466Y-86095489D01*
X153914029Y-86059555D01*
X153941689Y-86029879D01*
X153951371Y-86022197D01*
X153987344Y-86001280D01*
X154028583Y-85988110D01*
X154070201Y-85982880D01*
X154085021Y-85982532D01*
X154124593Y-85985238D01*
X154167808Y-85995237D01*
X154207845Y-86012604D01*
X154244702Y-86037339D01*
X154269083Y-86059517D01*
X154294714Y-86089749D01*
X154317915Y-86128649D01*
X154332057Y-86165102D01*
X154340896Y-86204427D01*
X154344431Y-86246623D01*
X154344505Y-86253934D01*
X154341503Y-86298632D01*
X154332499Y-86339890D01*
X154317493Y-86377706D01*
X154296484Y-86412082D01*
X154281783Y-86430180D01*
X154252575Y-86457913D01*
X154219833Y-86479906D01*
X154183557Y-86496157D01*
X154143746Y-86506668D01*
X154119411Y-86510096D01*
G37*
G36*
X135793598Y-84103927D02*
G01*
X135819976Y-83997242D01*
X135860252Y-84009052D01*
X135897427Y-84023475D01*
X135937945Y-84044235D01*
X135973998Y-84068758D01*
X136005585Y-84097046D01*
X136024163Y-84117996D01*
X136048068Y-84151969D01*
X136067027Y-84188677D01*
X136081041Y-84228118D01*
X136090108Y-84270293D01*
X136094230Y-84315203D01*
X136094505Y-84330780D01*
X136093202Y-84370320D01*
X136088202Y-84414632D01*
X136079450Y-84455522D01*
X136066948Y-84492992D01*
X136047622Y-84532384D01*
X136041162Y-84542783D01*
X136015543Y-84576570D01*
X135985362Y-84606635D01*
X135950617Y-84632979D01*
X135911310Y-84655602D01*
X135886801Y-84666858D01*
X135848323Y-84681334D01*
X135808802Y-84692815D01*
X135768236Y-84701301D01*
X135726626Y-84706792D01*
X135683972Y-84709288D01*
X135669522Y-84709454D01*
X135623182Y-84707764D01*
X135579122Y-84702695D01*
X135537343Y-84694246D01*
X135497844Y-84682417D01*
X135460626Y-84667208D01*
X135448727Y-84661387D01*
X135409692Y-84638413D01*
X135374996Y-84611550D01*
X135344638Y-84580796D01*
X135318618Y-84546154D01*
X135305698Y-84524611D01*
X135286588Y-84484874D01*
X135272172Y-84443454D01*
X135262449Y-84400351D01*
X135257420Y-84355565D01*
X135256654Y-84329217D01*
X135258873Y-84285214D01*
X135265529Y-84243918D01*
X135276623Y-84205329D01*
X135292155Y-84169446D01*
X135315884Y-84131003D01*
X135319766Y-84125812D01*
X135349837Y-84092131D01*
X135384826Y-84063237D01*
X135418731Y-84042281D01*
X135456249Y-84024842D01*
X135497380Y-84010920D01*
X135521609Y-84116042D01*
X135481455Y-84131600D01*
X135443289Y-84152899D01*
X135412542Y-84178215D01*
X135396166Y-84197326D01*
X135375352Y-84233336D01*
X135362246Y-84274690D01*
X135357043Y-84316476D01*
X135356696Y-84331366D01*
X135358790Y-84370589D01*
X135366313Y-84411821D01*
X135379307Y-84449217D01*
X135400464Y-84486705D01*
X135427339Y-84518845D01*
X135458943Y-84545142D01*
X135495276Y-84565597D01*
X135517505Y-84574437D01*
X135559202Y-84586621D01*
X135601641Y-84594818D01*
X135644822Y-84599027D01*
X135669131Y-84599643D01*
X135711941Y-84598212D01*
X135752319Y-84593921D01*
X135795489Y-84585513D01*
X135835484Y-84573368D01*
X135844986Y-84569747D01*
X135880218Y-84552638D01*
X135914161Y-84528456D01*
X135942077Y-84499051D01*
X135957338Y-84476544D01*
X135975284Y-84440209D01*
X135987357Y-84402204D01*
X135993556Y-84362531D01*
X135994463Y-84339768D01*
X135991300Y-84296660D01*
X135981811Y-84257019D01*
X135965996Y-84220847D01*
X135943856Y-84188142D01*
X135915487Y-84159578D01*
X135880988Y-84136021D01*
X135840358Y-84117471D01*
X135799778Y-84105347D01*
X135793598Y-84103927D01*
G37*
G36*
X135381706Y-83904039D02*
G01*
X135281665Y-83904039D01*
X135281665Y-83382532D01*
X135362558Y-83382532D01*
X135395487Y-83411353D01*
X135432140Y-83440078D01*
X135465527Y-83463943D01*
X135501501Y-83487740D01*
X135540060Y-83511471D01*
X135581204Y-83535135D01*
X135623827Y-83557869D01*
X135666823Y-83578934D01*
X135710190Y-83598330D01*
X135753929Y-83616055D01*
X135798041Y-83632112D01*
X135842525Y-83646498D01*
X135860422Y-83651785D01*
X135899051Y-83662167D01*
X135939026Y-83671038D01*
X135980347Y-83678397D01*
X136023015Y-83684245D01*
X136067029Y-83688582D01*
X136082000Y-83689692D01*
X136082000Y-83791492D01*
X136038480Y-83789172D01*
X135998170Y-83784579D01*
X135955086Y-83777581D01*
X135909226Y-83768179D01*
X135868890Y-83758508D01*
X135852216Y-83754172D01*
X135810379Y-83742239D01*
X135769009Y-83728790D01*
X135728107Y-83713823D01*
X135687672Y-83697339D01*
X135647705Y-83679339D01*
X135608206Y-83659821D01*
X135592537Y-83651590D01*
X135554417Y-83630502D01*
X135518214Y-83609004D01*
X135483930Y-83587095D01*
X135451563Y-83564777D01*
X135415254Y-83537453D01*
X135381706Y-83509538D01*
X135381706Y-83904039D01*
G37*
G36*
X134543598Y-92803927D02*
G01*
X134569976Y-92697242D01*
X134610252Y-92709052D01*
X134647427Y-92723475D01*
X134687945Y-92744235D01*
X134723998Y-92768758D01*
X134755585Y-92797046D01*
X134774163Y-92817996D01*
X134798068Y-92851969D01*
X134817027Y-92888677D01*
X134831041Y-92928118D01*
X134840108Y-92970293D01*
X134844230Y-93015203D01*
X134844505Y-93030780D01*
X134843202Y-93070320D01*
X134838202Y-93114632D01*
X134829450Y-93155522D01*
X134816948Y-93192992D01*
X134797622Y-93232384D01*
X134791162Y-93242783D01*
X134765543Y-93276570D01*
X134735362Y-93306635D01*
X134700617Y-93332979D01*
X134661310Y-93355602D01*
X134636801Y-93366858D01*
X134598323Y-93381334D01*
X134558802Y-93392815D01*
X134518236Y-93401301D01*
X134476626Y-93406792D01*
X134433972Y-93409288D01*
X134419522Y-93409454D01*
X134373182Y-93407764D01*
X134329122Y-93402695D01*
X134287343Y-93394246D01*
X134247844Y-93382417D01*
X134210626Y-93367208D01*
X134198727Y-93361387D01*
X134159692Y-93338413D01*
X134124996Y-93311550D01*
X134094638Y-93280796D01*
X134068618Y-93246154D01*
X134055698Y-93224611D01*
X134036588Y-93184874D01*
X134022172Y-93143454D01*
X134012449Y-93100351D01*
X134007420Y-93055565D01*
X134006654Y-93029217D01*
X134008873Y-92985214D01*
X134015529Y-92943918D01*
X134026623Y-92905329D01*
X134042155Y-92869446D01*
X134065884Y-92831003D01*
X134069766Y-92825812D01*
X134099837Y-92792131D01*
X134134826Y-92763237D01*
X134168731Y-92742281D01*
X134206249Y-92724842D01*
X134247380Y-92710920D01*
X134271609Y-92816042D01*
X134231455Y-92831600D01*
X134193289Y-92852899D01*
X134162542Y-92878215D01*
X134146166Y-92897326D01*
X134125352Y-92933336D01*
X134112246Y-92974690D01*
X134107043Y-93016476D01*
X134106696Y-93031366D01*
X134108790Y-93070589D01*
X134116313Y-93111821D01*
X134129307Y-93149217D01*
X134150464Y-93186705D01*
X134177339Y-93218845D01*
X134208943Y-93245142D01*
X134245276Y-93265597D01*
X134267505Y-93274437D01*
X134309202Y-93286621D01*
X134351641Y-93294818D01*
X134394822Y-93299027D01*
X134419131Y-93299643D01*
X134461941Y-93298212D01*
X134502319Y-93293921D01*
X134545489Y-93285513D01*
X134585484Y-93273368D01*
X134594986Y-93269747D01*
X134630218Y-93252638D01*
X134664161Y-93228456D01*
X134692077Y-93199051D01*
X134707338Y-93176544D01*
X134725284Y-93140209D01*
X134737357Y-93102204D01*
X134743556Y-93062531D01*
X134744463Y-93039768D01*
X134741300Y-92996660D01*
X134731811Y-92957019D01*
X134715996Y-92920847D01*
X134693856Y-92888142D01*
X134665487Y-92859578D01*
X134630988Y-92836021D01*
X134590358Y-92817471D01*
X134549778Y-92805347D01*
X134543598Y-92803927D01*
G37*
G36*
X134832000Y-92238066D02*
G01*
X134832000Y-92336935D01*
X134198531Y-92336935D01*
X134224204Y-92366885D01*
X134247786Y-92399843D01*
X134267115Y-92430724D01*
X134286826Y-92465830D01*
X134304673Y-92501758D01*
X134318503Y-92534870D01*
X134222369Y-92534870D01*
X134204401Y-92499539D01*
X134181943Y-92461611D01*
X134157434Y-92426297D01*
X134130872Y-92393595D01*
X134127408Y-92389692D01*
X134099686Y-92360895D01*
X134069025Y-92333930D01*
X134035609Y-92310711D01*
X134019159Y-92301764D01*
X134019159Y-92238066D01*
X134832000Y-92238066D01*
G37*
G36*
X162334613Y-90593598D02*
G01*
X162441298Y-90619976D01*
X162429488Y-90660252D01*
X162415065Y-90697427D01*
X162394305Y-90737945D01*
X162369782Y-90773998D01*
X162341494Y-90805585D01*
X162320544Y-90824163D01*
X162286571Y-90848068D01*
X162249863Y-90867027D01*
X162210422Y-90881041D01*
X162168247Y-90890108D01*
X162123337Y-90894230D01*
X162107760Y-90894505D01*
X162068220Y-90893202D01*
X162023908Y-90888202D01*
X161983018Y-90879450D01*
X161945548Y-90866948D01*
X161906156Y-90847622D01*
X161895757Y-90841162D01*
X161861970Y-90815543D01*
X161831905Y-90785362D01*
X161805561Y-90750617D01*
X161782938Y-90711310D01*
X161771682Y-90686801D01*
X161757206Y-90648323D01*
X161745725Y-90608802D01*
X161737239Y-90568236D01*
X161731748Y-90526626D01*
X161729252Y-90483972D01*
X161729086Y-90469522D01*
X161730776Y-90423182D01*
X161735845Y-90379122D01*
X161744294Y-90337343D01*
X161756123Y-90297844D01*
X161771332Y-90260626D01*
X161777153Y-90248727D01*
X161800127Y-90209692D01*
X161826990Y-90174996D01*
X161857744Y-90144638D01*
X161892386Y-90118618D01*
X161913929Y-90105698D01*
X161953666Y-90086588D01*
X161995086Y-90072172D01*
X162038189Y-90062449D01*
X162082975Y-90057420D01*
X162109323Y-90056654D01*
X162153326Y-90058873D01*
X162194622Y-90065529D01*
X162233211Y-90076623D01*
X162269094Y-90092155D01*
X162307537Y-90115884D01*
X162312728Y-90119766D01*
X162346409Y-90149837D01*
X162375303Y-90184826D01*
X162396259Y-90218731D01*
X162413698Y-90256249D01*
X162427620Y-90297380D01*
X162322498Y-90321609D01*
X162306940Y-90281455D01*
X162285641Y-90243289D01*
X162260325Y-90212542D01*
X162241214Y-90196166D01*
X162205204Y-90175352D01*
X162163850Y-90162246D01*
X162122064Y-90157043D01*
X162107174Y-90156696D01*
X162067951Y-90158790D01*
X162026719Y-90166313D01*
X161989323Y-90179307D01*
X161951835Y-90200464D01*
X161919695Y-90227339D01*
X161893398Y-90258943D01*
X161872943Y-90295276D01*
X161864103Y-90317505D01*
X161851919Y-90359202D01*
X161843722Y-90401641D01*
X161839513Y-90444822D01*
X161838897Y-90469131D01*
X161840328Y-90511941D01*
X161844619Y-90552319D01*
X161853027Y-90595489D01*
X161865172Y-90635484D01*
X161868793Y-90644986D01*
X161885902Y-90680218D01*
X161910084Y-90714161D01*
X161939489Y-90742077D01*
X161961996Y-90757338D01*
X161998331Y-90775284D01*
X162036336Y-90787357D01*
X162076009Y-90793556D01*
X162098772Y-90794463D01*
X162141880Y-90791300D01*
X162181521Y-90781811D01*
X162217693Y-90765996D01*
X162250398Y-90743856D01*
X162278962Y-90715487D01*
X162302519Y-90680988D01*
X162321069Y-90640358D01*
X162333193Y-90599778D01*
X162334613Y-90593598D01*
G37*
G36*
X162900474Y-90882000D02*
G01*
X162801605Y-90882000D01*
X162801605Y-90248531D01*
X162771655Y-90274204D01*
X162738697Y-90297786D01*
X162707816Y-90317115D01*
X162672710Y-90336826D01*
X162636782Y-90354673D01*
X162603670Y-90368503D01*
X162603670Y-90272369D01*
X162639001Y-90254401D01*
X162676929Y-90231943D01*
X162712243Y-90207434D01*
X162744945Y-90180872D01*
X162748848Y-90177408D01*
X162777645Y-90149686D01*
X162804610Y-90119025D01*
X162827829Y-90085609D01*
X162836776Y-90069159D01*
X162900474Y-90069159D01*
X162900474Y-90882000D01*
G37*
G36*
X163447217Y-90072529D02*
G01*
X163488265Y-90082637D01*
X163527148Y-90099484D01*
X163547816Y-90111755D01*
X163581942Y-90138465D01*
X163611123Y-90170893D01*
X163632910Y-90204519D01*
X163646685Y-90232704D01*
X163659856Y-90270435D01*
X163669793Y-90314898D01*
X163675735Y-90358367D01*
X163678871Y-90398370D01*
X163680356Y-90441807D01*
X163680488Y-90460143D01*
X163679668Y-90506967D01*
X163677206Y-90550719D01*
X163673104Y-90591399D01*
X163666015Y-90636160D01*
X163656562Y-90676496D01*
X163646880Y-90706731D01*
X163630692Y-90744814D01*
X163608344Y-90783209D01*
X163581892Y-90816133D01*
X163551337Y-90843586D01*
X163547229Y-90846633D01*
X163512693Y-90867577D01*
X163475324Y-90882537D01*
X163435122Y-90891513D01*
X163392086Y-90894505D01*
X163352367Y-90891840D01*
X163311025Y-90882269D01*
X163274007Y-90865737D01*
X163241312Y-90842243D01*
X163237529Y-90838817D01*
X163210614Y-90808055D01*
X163189658Y-90771651D01*
X163174661Y-90729604D01*
X163166428Y-90688185D01*
X163165624Y-90681916D01*
X163260781Y-90669411D01*
X163271696Y-90710410D01*
X163289501Y-90745393D01*
X163306894Y-90764958D01*
X163340442Y-90785127D01*
X163381245Y-90794002D01*
X163394236Y-90794463D01*
X163434567Y-90790298D01*
X163472004Y-90776676D01*
X163474152Y-90775510D01*
X163507161Y-90751580D01*
X163530426Y-90724512D01*
X163549537Y-90689544D01*
X163563530Y-90650973D01*
X163567355Y-90637561D01*
X163575810Y-90598806D01*
X163580755Y-90558573D01*
X163582205Y-90520715D01*
X163581619Y-90500785D01*
X163556294Y-90533749D01*
X163524869Y-90561712D01*
X163500530Y-90577575D01*
X163464208Y-90594262D01*
X163425899Y-90604022D01*
X163389351Y-90606884D01*
X163347050Y-90603406D01*
X163307686Y-90592972D01*
X163271257Y-90575581D01*
X163237765Y-90551234D01*
X163219944Y-90534198D01*
X163192992Y-90500096D01*
X163172660Y-90461562D01*
X163158948Y-90418597D01*
X163152463Y-90378242D01*
X163151021Y-90347401D01*
X163252379Y-90347401D01*
X163256902Y-90389136D01*
X163272323Y-90429050D01*
X163298688Y-90462683D01*
X163333222Y-90487825D01*
X163372882Y-90502530D01*
X163413384Y-90506842D01*
X163453967Y-90502530D01*
X163493054Y-90487825D01*
X163526322Y-90462683D01*
X163551575Y-90428149D01*
X163565436Y-90389742D01*
X163570503Y-90349465D01*
X163570677Y-90339780D01*
X163567091Y-90298257D01*
X163554696Y-90258102D01*
X163533446Y-90224244D01*
X163525345Y-90215314D01*
X163491986Y-90189060D01*
X163454241Y-90173704D01*
X163416120Y-90169201D01*
X163376606Y-90174048D01*
X163336931Y-90190575D01*
X163304310Y-90215778D01*
X163301228Y-90218831D01*
X163275468Y-90252712D01*
X163259249Y-90292318D01*
X163252809Y-90332857D01*
X163252379Y-90347401D01*
X163151021Y-90347401D01*
X163150774Y-90342125D01*
X163153316Y-90297719D01*
X163160941Y-90256680D01*
X163173649Y-90219006D01*
X163194900Y-90179308D01*
X163223070Y-90144191D01*
X163256439Y-90114955D01*
X163293286Y-90092900D01*
X163333610Y-90078025D01*
X163377413Y-90070332D01*
X163404005Y-90069159D01*
X163447217Y-90072529D01*
G37*
G36*
X153332000Y-87551192D02*
G01*
X153160443Y-87657682D01*
X153125504Y-87680006D01*
X153091424Y-87702668D01*
X153057284Y-87726839D01*
X153046919Y-87734667D01*
X153015412Y-87761687D01*
X152992990Y-87788987D01*
X152976248Y-87825184D01*
X152972865Y-87837445D01*
X152969568Y-87877671D01*
X152969348Y-87896844D01*
X152969348Y-88020529D01*
X153332000Y-88020529D01*
X153332000Y-88127019D01*
X152519159Y-88127019D01*
X152519159Y-87769838D01*
X152519259Y-87765539D01*
X152619201Y-87765539D01*
X152619201Y-88020529D01*
X152869306Y-88020529D01*
X152869306Y-87791332D01*
X152867932Y-87748768D01*
X152863247Y-87709134D01*
X152855237Y-87677026D01*
X152836773Y-87640731D01*
X152809906Y-87614304D01*
X152773004Y-87596925D01*
X152741909Y-87592811D01*
X152701537Y-87599680D01*
X152667422Y-87620286D01*
X152653786Y-87634430D01*
X152634096Y-87668612D01*
X152623288Y-87709583D01*
X152619505Y-87749148D01*
X152619201Y-87765539D01*
X152519259Y-87765539D01*
X152520197Y-87725204D01*
X152523311Y-87685507D01*
X152529411Y-87646184D01*
X152540848Y-87606098D01*
X152559573Y-87570222D01*
X152586194Y-87539703D01*
X152617247Y-87516607D01*
X152652567Y-87498884D01*
X152690138Y-87487725D01*
X152729961Y-87483131D01*
X152738196Y-87482999D01*
X152779302Y-87486468D01*
X152817038Y-87496872D01*
X152855461Y-87516869D01*
X152882397Y-87538491D01*
X152909032Y-87570011D01*
X152930318Y-87609078D01*
X152944555Y-87649452D01*
X152953499Y-87688657D01*
X152956842Y-87709852D01*
X152976497Y-87674610D01*
X152998461Y-87645567D01*
X153028251Y-87616857D01*
X153058391Y-87591834D01*
X153091683Y-87567584D01*
X153107491Y-87557054D01*
X153332000Y-87416956D01*
X153332000Y-87551192D01*
G37*
G36*
X153332000Y-86988066D02*
G01*
X153332000Y-87086935D01*
X152698531Y-87086935D01*
X152724204Y-87116885D01*
X152747786Y-87149843D01*
X152767115Y-87180724D01*
X152786826Y-87215830D01*
X152804673Y-87251758D01*
X152818503Y-87284870D01*
X152722369Y-87284870D01*
X152704401Y-87249539D01*
X152681943Y-87211611D01*
X152657434Y-87176297D01*
X152630872Y-87143595D01*
X152627408Y-87139692D01*
X152599686Y-87110895D01*
X152569025Y-87083930D01*
X152535609Y-87060711D01*
X152519159Y-87051764D01*
X152519159Y-86988066D01*
X153332000Y-86988066D01*
G37*
G36*
X149899958Y-93769159D02*
G01*
X150006644Y-93769159D01*
X150006644Y-94238106D01*
X150005675Y-94282202D01*
X150002769Y-94322754D01*
X149996931Y-94365585D01*
X149987030Y-94408626D01*
X149979093Y-94432327D01*
X149960197Y-94470657D01*
X149934285Y-94504751D01*
X149905360Y-94531502D01*
X149880028Y-94549369D01*
X149841365Y-94569116D01*
X149802926Y-94581766D01*
X149760186Y-94590097D01*
X149720129Y-94593799D01*
X149691668Y-94594505D01*
X149650686Y-94593124D01*
X149606519Y-94588023D01*
X149566280Y-94579163D01*
X149525101Y-94564435D01*
X149506434Y-94555230D01*
X149473046Y-94533395D01*
X149441616Y-94503575D01*
X149416677Y-94468191D01*
X149403657Y-94441511D01*
X149390236Y-94400881D01*
X149381638Y-94359740D01*
X149376605Y-94320324D01*
X149373729Y-94277075D01*
X149372980Y-94238106D01*
X149372980Y-93769159D01*
X149479470Y-93769159D01*
X149479470Y-94235370D01*
X149480405Y-94278800D01*
X149483763Y-94321955D01*
X149490461Y-94362242D01*
X149499009Y-94390709D01*
X149519497Y-94427419D01*
X149549207Y-94456583D01*
X149566030Y-94467498D01*
X149604635Y-94483930D01*
X149645286Y-94492330D01*
X149682289Y-94494463D01*
X149724023Y-94492588D01*
X149766704Y-94485659D01*
X149807559Y-94471490D01*
X149843421Y-94447580D01*
X149849938Y-94441120D01*
X149871822Y-94408184D01*
X149885841Y-94369247D01*
X149894048Y-94328356D01*
X149898200Y-94288981D01*
X149899910Y-94244787D01*
X149899958Y-94235370D01*
X149899958Y-93769159D01*
G37*
G36*
X150511933Y-94582000D02*
G01*
X150413064Y-94582000D01*
X150413064Y-93948531D01*
X150383114Y-93974204D01*
X150350156Y-93997786D01*
X150319275Y-94017115D01*
X150284169Y-94036826D01*
X150248241Y-94054673D01*
X150215129Y-94068503D01*
X150215129Y-93972369D01*
X150250460Y-93954401D01*
X150288388Y-93931943D01*
X150323702Y-93907434D01*
X150356404Y-93880872D01*
X150360307Y-93877408D01*
X150389104Y-93849686D01*
X150416069Y-93819025D01*
X150439288Y-93785609D01*
X150448235Y-93769159D01*
X150511933Y-93769159D01*
X150511933Y-94582000D01*
G37*
G36*
X148346072Y-97693598D02*
G01*
X148452757Y-97719976D01*
X148440947Y-97760252D01*
X148426524Y-97797427D01*
X148405764Y-97837945D01*
X148381241Y-97873998D01*
X148352953Y-97905585D01*
X148332003Y-97924163D01*
X148298030Y-97948068D01*
X148261322Y-97967027D01*
X148221881Y-97981041D01*
X148179706Y-97990108D01*
X148134796Y-97994230D01*
X148119219Y-97994505D01*
X148079679Y-97993202D01*
X148035367Y-97988202D01*
X147994477Y-97979450D01*
X147957007Y-97966948D01*
X147917615Y-97947622D01*
X147907216Y-97941162D01*
X147873429Y-97915543D01*
X147843364Y-97885362D01*
X147817020Y-97850617D01*
X147794397Y-97811310D01*
X147783141Y-97786801D01*
X147768665Y-97748323D01*
X147757184Y-97708802D01*
X147748698Y-97668236D01*
X147743207Y-97626626D01*
X147740711Y-97583972D01*
X147740545Y-97569522D01*
X147742235Y-97523182D01*
X147747304Y-97479122D01*
X147755753Y-97437343D01*
X147767582Y-97397844D01*
X147782791Y-97360626D01*
X147788612Y-97348727D01*
X147811586Y-97309692D01*
X147838449Y-97274996D01*
X147869203Y-97244638D01*
X147903845Y-97218618D01*
X147925388Y-97205698D01*
X147965125Y-97186588D01*
X148006545Y-97172172D01*
X148049648Y-97162449D01*
X148094434Y-97157420D01*
X148120782Y-97156654D01*
X148164785Y-97158873D01*
X148206081Y-97165529D01*
X148244670Y-97176623D01*
X148280553Y-97192155D01*
X148318996Y-97215884D01*
X148324187Y-97219766D01*
X148357868Y-97249837D01*
X148386762Y-97284826D01*
X148407718Y-97318731D01*
X148425157Y-97356249D01*
X148439079Y-97397380D01*
X148333957Y-97421609D01*
X148318399Y-97381455D01*
X148297100Y-97343289D01*
X148271784Y-97312542D01*
X148252673Y-97296166D01*
X148216663Y-97275352D01*
X148175309Y-97262246D01*
X148133523Y-97257043D01*
X148118633Y-97256696D01*
X148079410Y-97258790D01*
X148038178Y-97266313D01*
X148000782Y-97279307D01*
X147963294Y-97300464D01*
X147931154Y-97327339D01*
X147904857Y-97358943D01*
X147884402Y-97395276D01*
X147875562Y-97417505D01*
X147863378Y-97459202D01*
X147855181Y-97501641D01*
X147850972Y-97544822D01*
X147850356Y-97569131D01*
X147851787Y-97611941D01*
X147856078Y-97652319D01*
X147864486Y-97695489D01*
X147876631Y-97735484D01*
X147880252Y-97744986D01*
X147897361Y-97780218D01*
X147921543Y-97814161D01*
X147950948Y-97842077D01*
X147973455Y-97857338D01*
X148009790Y-97875284D01*
X148047795Y-97887357D01*
X148087468Y-97893556D01*
X148110231Y-97894463D01*
X148153339Y-97891300D01*
X148192980Y-97881811D01*
X148229152Y-97865996D01*
X148261857Y-97843856D01*
X148290421Y-97815487D01*
X148313978Y-97780988D01*
X148332528Y-97740358D01*
X148344652Y-97699778D01*
X148346072Y-97693598D01*
G37*
G36*
X149059261Y-97881958D02*
G01*
X149059261Y-97982000D01*
X148526616Y-97982000D01*
X148529783Y-97941979D01*
X148538144Y-97912048D01*
X148555001Y-97874217D01*
X148575334Y-97840145D01*
X148600438Y-97806378D01*
X148603210Y-97803018D01*
X148631627Y-97771680D01*
X148662154Y-97741956D01*
X148692933Y-97714505D01*
X148727508Y-97685707D01*
X148732757Y-97681483D01*
X148764252Y-97655816D01*
X148799877Y-97625733D01*
X148831342Y-97597873D01*
X148863610Y-97567376D01*
X148893685Y-97535841D01*
X148910175Y-97515984D01*
X148932560Y-97482673D01*
X148948841Y-97446930D01*
X148956438Y-97405801D01*
X148956483Y-97402460D01*
X148950576Y-97362874D01*
X148930843Y-97325571D01*
X148914473Y-97307889D01*
X148879339Y-97284314D01*
X148840760Y-97272261D01*
X148804662Y-97269201D01*
X148762854Y-97272769D01*
X148723257Y-97284937D01*
X148690356Y-97305740D01*
X148664198Y-97337073D01*
X148649910Y-97376265D01*
X148646979Y-97406759D01*
X148545374Y-97394254D01*
X148551290Y-97354908D01*
X148563333Y-97313642D01*
X148580911Y-97277368D01*
X148607778Y-97242026D01*
X148623922Y-97226801D01*
X148655991Y-97204341D01*
X148692529Y-97187397D01*
X148733537Y-97175970D01*
X148772243Y-97170567D01*
X148807007Y-97169159D01*
X148848761Y-97171454D01*
X148893185Y-97179930D01*
X148932990Y-97194652D01*
X148968177Y-97215620D01*
X148990482Y-97234421D01*
X149016825Y-97264383D01*
X149039008Y-97302290D01*
X149052740Y-97344104D01*
X149057824Y-97383898D01*
X149058088Y-97395817D01*
X149054831Y-97435407D01*
X149045060Y-97474481D01*
X149038353Y-97492341D01*
X149019870Y-97528520D01*
X148996459Y-97562939D01*
X148972701Y-97591993D01*
X148942081Y-97624215D01*
X148911640Y-97653102D01*
X148880934Y-97680527D01*
X148845969Y-97710411D01*
X148820293Y-97731699D01*
X148789120Y-97757242D01*
X148758413Y-97782891D01*
X148727889Y-97809302D01*
X148705792Y-97829983D01*
X148678960Y-97860749D01*
X148664173Y-97881958D01*
X149059261Y-97881958D01*
G37*
G36*
X153332000Y-92801192D02*
G01*
X153160443Y-92907682D01*
X153125504Y-92930006D01*
X153091424Y-92952668D01*
X153057284Y-92976839D01*
X153046919Y-92984667D01*
X153015412Y-93011687D01*
X152992990Y-93038987D01*
X152976248Y-93075184D01*
X152972865Y-93087445D01*
X152969568Y-93127671D01*
X152969348Y-93146844D01*
X152969348Y-93270529D01*
X153332000Y-93270529D01*
X153332000Y-93377019D01*
X152519159Y-93377019D01*
X152519159Y-93019838D01*
X152519259Y-93015539D01*
X152619201Y-93015539D01*
X152619201Y-93270529D01*
X152869306Y-93270529D01*
X152869306Y-93041332D01*
X152867932Y-92998768D01*
X152863247Y-92959134D01*
X152855237Y-92927026D01*
X152836773Y-92890731D01*
X152809906Y-92864304D01*
X152773004Y-92846925D01*
X152741909Y-92842811D01*
X152701537Y-92849680D01*
X152667422Y-92870286D01*
X152653786Y-92884430D01*
X152634096Y-92918612D01*
X152623288Y-92959583D01*
X152619505Y-92999148D01*
X152619201Y-93015539D01*
X152519259Y-93015539D01*
X152520197Y-92975204D01*
X152523311Y-92935507D01*
X152529411Y-92896184D01*
X152540848Y-92856098D01*
X152559573Y-92820222D01*
X152586194Y-92789703D01*
X152617247Y-92766607D01*
X152652567Y-92748884D01*
X152690138Y-92737725D01*
X152729961Y-92733131D01*
X152738196Y-92732999D01*
X152779302Y-92736468D01*
X152817038Y-92746872D01*
X152855461Y-92766869D01*
X152882397Y-92788491D01*
X152909032Y-92820011D01*
X152930318Y-92859078D01*
X152944555Y-92899452D01*
X152953499Y-92938657D01*
X152956842Y-92959852D01*
X152976497Y-92924610D01*
X152998461Y-92895567D01*
X153028251Y-92866857D01*
X153058391Y-92841834D01*
X153091683Y-92817584D01*
X153107491Y-92807054D01*
X153332000Y-92666956D01*
X153332000Y-92801192D01*
G37*
G36*
X153231958Y-92090738D02*
G01*
X153332000Y-92090738D01*
X153332000Y-92623383D01*
X153291979Y-92620216D01*
X153262048Y-92611855D01*
X153224217Y-92594998D01*
X153190145Y-92574665D01*
X153156378Y-92549561D01*
X153153018Y-92546789D01*
X153121680Y-92518372D01*
X153091956Y-92487845D01*
X153064505Y-92457066D01*
X153035707Y-92422491D01*
X153031483Y-92417242D01*
X153005816Y-92385747D01*
X152975733Y-92350122D01*
X152947873Y-92318657D01*
X152917376Y-92286389D01*
X152885841Y-92256314D01*
X152865984Y-92239824D01*
X152832673Y-92217439D01*
X152796930Y-92201158D01*
X152755801Y-92193561D01*
X152752460Y-92193516D01*
X152712874Y-92199423D01*
X152675571Y-92219156D01*
X152657889Y-92235526D01*
X152634314Y-92270660D01*
X152622261Y-92309239D01*
X152619201Y-92345337D01*
X152622769Y-92387145D01*
X152634937Y-92426742D01*
X152655740Y-92459643D01*
X152687073Y-92485801D01*
X152726265Y-92500089D01*
X152756759Y-92503020D01*
X152744254Y-92604625D01*
X152704908Y-92598709D01*
X152663642Y-92586666D01*
X152627368Y-92569088D01*
X152592026Y-92542221D01*
X152576801Y-92526077D01*
X152554341Y-92494008D01*
X152537397Y-92457470D01*
X152525970Y-92416462D01*
X152520567Y-92377756D01*
X152519159Y-92342992D01*
X152521454Y-92301238D01*
X152529930Y-92256814D01*
X152544652Y-92217009D01*
X152565620Y-92181822D01*
X152584421Y-92159517D01*
X152614383Y-92133174D01*
X152652290Y-92110991D01*
X152694104Y-92097259D01*
X152733898Y-92092175D01*
X152745817Y-92091911D01*
X152785407Y-92095168D01*
X152824481Y-92104939D01*
X152842341Y-92111646D01*
X152878520Y-92130129D01*
X152912939Y-92153540D01*
X152941993Y-92177298D01*
X152974215Y-92207918D01*
X153003102Y-92238359D01*
X153030527Y-92269065D01*
X153060411Y-92304030D01*
X153081699Y-92329706D01*
X153107242Y-92360879D01*
X153132891Y-92391586D01*
X153159302Y-92422110D01*
X153179983Y-92444207D01*
X153210749Y-92471039D01*
X153231958Y-92485826D01*
X153231958Y-92090738D01*
G37*
G36*
X158129142Y-96532000D02*
G01*
X158129142Y-96187715D01*
X157818660Y-95719159D01*
X157948402Y-95719159D01*
X158107062Y-95968482D01*
X158128678Y-96001919D01*
X158152119Y-96037959D01*
X158174633Y-96072330D01*
X158189128Y-96094316D01*
X158213247Y-96058626D01*
X158237564Y-96022068D01*
X158261256Y-95986042D01*
X158277055Y-95961839D01*
X158432980Y-95719159D01*
X158557251Y-95719159D01*
X158235827Y-96187715D01*
X158235827Y-96532000D01*
X158129142Y-96532000D01*
G37*
G36*
X158981061Y-96532000D02*
G01*
X158882191Y-96532000D01*
X158882191Y-95898531D01*
X158852241Y-95924204D01*
X158819283Y-95947786D01*
X158788402Y-95967115D01*
X158753296Y-95986826D01*
X158717368Y-96004673D01*
X158684257Y-96018503D01*
X158684257Y-95922369D01*
X158719588Y-95904401D01*
X158757515Y-95881943D01*
X158792830Y-95857434D01*
X158825531Y-95830872D01*
X158829435Y-95827408D01*
X158858231Y-95799686D01*
X158885197Y-95769025D01*
X158908415Y-95735609D01*
X158917362Y-95719159D01*
X158981061Y-95719159D01*
X158981061Y-96532000D01*
G37*
G36*
X145543598Y-99303927D02*
G01*
X145569976Y-99197242D01*
X145610252Y-99209052D01*
X145647427Y-99223475D01*
X145687945Y-99244235D01*
X145723998Y-99268758D01*
X145755585Y-99297046D01*
X145774163Y-99317996D01*
X145798068Y-99351969D01*
X145817027Y-99388677D01*
X145831041Y-99428118D01*
X145840108Y-99470293D01*
X145844230Y-99515203D01*
X145844505Y-99530780D01*
X145843202Y-99570320D01*
X145838202Y-99614632D01*
X145829450Y-99655522D01*
X145816948Y-99692992D01*
X145797622Y-99732384D01*
X145791162Y-99742783D01*
X145765543Y-99776570D01*
X145735362Y-99806635D01*
X145700617Y-99832979D01*
X145661310Y-99855602D01*
X145636801Y-99866858D01*
X145598323Y-99881334D01*
X145558802Y-99892815D01*
X145518236Y-99901301D01*
X145476626Y-99906792D01*
X145433972Y-99909288D01*
X145419522Y-99909454D01*
X145373182Y-99907764D01*
X145329122Y-99902695D01*
X145287343Y-99894246D01*
X145247844Y-99882417D01*
X145210626Y-99867208D01*
X145198727Y-99861387D01*
X145159692Y-99838413D01*
X145124996Y-99811550D01*
X145094638Y-99780796D01*
X145068618Y-99746154D01*
X145055698Y-99724611D01*
X145036588Y-99684874D01*
X145022172Y-99643454D01*
X145012449Y-99600351D01*
X145007420Y-99555565D01*
X145006654Y-99529217D01*
X145008873Y-99485214D01*
X145015529Y-99443918D01*
X145026623Y-99405329D01*
X145042155Y-99369446D01*
X145065884Y-99331003D01*
X145069766Y-99325812D01*
X145099837Y-99292131D01*
X145134826Y-99263237D01*
X145168731Y-99242281D01*
X145206249Y-99224842D01*
X145247380Y-99210920D01*
X145271609Y-99316042D01*
X145231455Y-99331600D01*
X145193289Y-99352899D01*
X145162542Y-99378215D01*
X145146166Y-99397326D01*
X145125352Y-99433336D01*
X145112246Y-99474690D01*
X145107043Y-99516476D01*
X145106696Y-99531366D01*
X145108790Y-99570589D01*
X145116313Y-99611821D01*
X145129307Y-99649217D01*
X145150464Y-99686705D01*
X145177339Y-99718845D01*
X145208943Y-99745142D01*
X145245276Y-99765597D01*
X145267505Y-99774437D01*
X145309202Y-99786621D01*
X145351641Y-99794818D01*
X145394822Y-99799027D01*
X145419131Y-99799643D01*
X145461941Y-99798212D01*
X145502319Y-99793921D01*
X145545489Y-99785513D01*
X145585484Y-99773368D01*
X145594986Y-99769747D01*
X145630218Y-99752638D01*
X145664161Y-99728456D01*
X145692077Y-99699051D01*
X145707338Y-99676544D01*
X145725284Y-99640209D01*
X145737357Y-99602204D01*
X145743556Y-99562531D01*
X145744463Y-99539768D01*
X145741300Y-99496660D01*
X145731811Y-99457019D01*
X145715996Y-99420847D01*
X145693856Y-99388142D01*
X145665487Y-99359578D01*
X145630988Y-99336021D01*
X145590358Y-99317471D01*
X145549778Y-99305347D01*
X145543598Y-99303927D01*
G37*
G36*
X145637375Y-98584466D02*
G01*
X145679226Y-98594956D01*
X145717805Y-98612440D01*
X145753112Y-98636919D01*
X145771818Y-98654046D01*
X145800140Y-98688233D01*
X145821506Y-98726853D01*
X145835916Y-98769904D01*
X145842730Y-98810332D01*
X145844505Y-98846509D01*
X145841942Y-98889585D01*
X145834256Y-98929418D01*
X145818811Y-98971792D01*
X145796391Y-99009752D01*
X145771623Y-99038777D01*
X145737931Y-99067252D01*
X145700798Y-99088733D01*
X145660225Y-99103220D01*
X145616211Y-99110713D01*
X145589515Y-99111855D01*
X145545895Y-99108702D01*
X145506479Y-99099243D01*
X145467614Y-99081337D01*
X145453521Y-99071994D01*
X145422620Y-99043781D01*
X145398551Y-99008965D01*
X145382729Y-98971985D01*
X145378685Y-98958470D01*
X145361557Y-98997022D01*
X145337817Y-99030494D01*
X145316549Y-99049720D01*
X145281074Y-99068949D01*
X145240375Y-99078375D01*
X145219829Y-99079419D01*
X145179028Y-99075475D01*
X145141623Y-99063641D01*
X145107612Y-99043919D01*
X145076996Y-99016307D01*
X145051692Y-98982052D01*
X145033618Y-98942595D01*
X145023734Y-98903802D01*
X145019385Y-98861026D01*
X145019159Y-98848073D01*
X145019234Y-98846900D01*
X145119201Y-98846900D01*
X145123488Y-98886678D01*
X145137806Y-98923632D01*
X145149683Y-98940885D01*
X145180921Y-98967672D01*
X145220110Y-98978169D01*
X145222760Y-98978205D01*
X145261453Y-98971174D01*
X145295439Y-98948036D01*
X145301309Y-98941471D01*
X145322146Y-98904969D01*
X145331046Y-98863573D01*
X145331676Y-98848463D01*
X145431832Y-98848463D01*
X145436164Y-98889733D01*
X145450934Y-98929752D01*
X145476187Y-98964137D01*
X145509155Y-98990279D01*
X145547341Y-99005570D01*
X145586584Y-99010054D01*
X145626396Y-99005072D01*
X145664937Y-98990124D01*
X145696740Y-98967006D01*
X145721071Y-98935387D01*
X145723751Y-98930529D01*
X145738617Y-98892012D01*
X145744382Y-98850833D01*
X145744463Y-98845142D01*
X145740208Y-98803235D01*
X145727442Y-98766175D01*
X145703571Y-98731007D01*
X145700890Y-98728101D01*
X145668006Y-98701847D01*
X145629534Y-98686491D01*
X145589711Y-98681987D01*
X145549277Y-98686643D01*
X145510133Y-98702520D01*
X145479397Y-98726730D01*
X145476577Y-98729664D01*
X145452981Y-98761667D01*
X145438124Y-98798326D01*
X145432007Y-98839642D01*
X145431832Y-98848463D01*
X145331676Y-98848463D01*
X145331790Y-98845728D01*
X145327531Y-98805822D01*
X145313305Y-98769101D01*
X145301504Y-98752134D01*
X145270105Y-98725908D01*
X145229989Y-98715631D01*
X145227254Y-98715595D01*
X145187610Y-98723881D01*
X145154405Y-98748740D01*
X145150464Y-98753306D01*
X145130223Y-98786851D01*
X145120300Y-98826524D01*
X145119201Y-98846900D01*
X145019234Y-98846900D01*
X145021992Y-98803807D01*
X145030491Y-98763507D01*
X145047143Y-98722303D01*
X145071194Y-98686277D01*
X145078364Y-98678080D01*
X145109578Y-98649955D01*
X145144016Y-98629866D01*
X145181678Y-98617813D01*
X145222565Y-98613795D01*
X145264251Y-98618664D01*
X145301358Y-98633272D01*
X145316940Y-98643299D01*
X145346454Y-98672176D01*
X145368317Y-98707819D01*
X145378685Y-98732595D01*
X145395180Y-98693642D01*
X145416528Y-98660316D01*
X145445940Y-98629884D01*
X145459383Y-98619657D01*
X145496286Y-98599255D01*
X145537388Y-98586409D01*
X145577968Y-98581309D01*
X145592251Y-98580969D01*
X145637375Y-98584466D01*
G37*
G36*
X144293598Y-99303927D02*
G01*
X144319976Y-99197242D01*
X144360252Y-99209052D01*
X144397427Y-99223475D01*
X144437945Y-99244235D01*
X144473998Y-99268758D01*
X144505585Y-99297046D01*
X144524163Y-99317996D01*
X144548068Y-99351969D01*
X144567027Y-99388677D01*
X144581041Y-99428118D01*
X144590108Y-99470293D01*
X144594230Y-99515203D01*
X144594505Y-99530780D01*
X144593202Y-99570320D01*
X144588202Y-99614632D01*
X144579450Y-99655522D01*
X144566948Y-99692992D01*
X144547622Y-99732384D01*
X144541162Y-99742783D01*
X144515543Y-99776570D01*
X144485362Y-99806635D01*
X144450617Y-99832979D01*
X144411310Y-99855602D01*
X144386801Y-99866858D01*
X144348323Y-99881334D01*
X144308802Y-99892815D01*
X144268236Y-99901301D01*
X144226626Y-99906792D01*
X144183972Y-99909288D01*
X144169522Y-99909454D01*
X144123182Y-99907764D01*
X144079122Y-99902695D01*
X144037343Y-99894246D01*
X143997844Y-99882417D01*
X143960626Y-99867208D01*
X143948727Y-99861387D01*
X143909692Y-99838413D01*
X143874996Y-99811550D01*
X143844638Y-99780796D01*
X143818618Y-99746154D01*
X143805698Y-99724611D01*
X143786588Y-99684874D01*
X143772172Y-99643454D01*
X143762449Y-99600351D01*
X143757420Y-99555565D01*
X143756654Y-99529217D01*
X143758873Y-99485214D01*
X143765529Y-99443918D01*
X143776623Y-99405329D01*
X143792155Y-99369446D01*
X143815884Y-99331003D01*
X143819766Y-99325812D01*
X143849837Y-99292131D01*
X143884826Y-99263237D01*
X143918731Y-99242281D01*
X143956249Y-99224842D01*
X143997380Y-99210920D01*
X144021609Y-99316042D01*
X143981455Y-99331600D01*
X143943289Y-99352899D01*
X143912542Y-99378215D01*
X143896166Y-99397326D01*
X143875352Y-99433336D01*
X143862246Y-99474690D01*
X143857043Y-99516476D01*
X143856696Y-99531366D01*
X143858790Y-99570589D01*
X143866313Y-99611821D01*
X143879307Y-99649217D01*
X143900464Y-99686705D01*
X143927339Y-99718845D01*
X143958943Y-99745142D01*
X143995276Y-99765597D01*
X144017505Y-99774437D01*
X144059202Y-99786621D01*
X144101641Y-99794818D01*
X144144822Y-99799027D01*
X144169131Y-99799643D01*
X144211941Y-99798212D01*
X144252319Y-99793921D01*
X144295489Y-99785513D01*
X144335484Y-99773368D01*
X144344986Y-99769747D01*
X144380218Y-99752638D01*
X144414161Y-99728456D01*
X144442077Y-99699051D01*
X144457338Y-99676544D01*
X144475284Y-99640209D01*
X144487357Y-99602204D01*
X144493556Y-99562531D01*
X144494463Y-99539768D01*
X144491300Y-99496660D01*
X144481811Y-99457019D01*
X144465996Y-99420847D01*
X144443856Y-99388142D01*
X144415487Y-99359578D01*
X144380988Y-99336021D01*
X144340358Y-99317471D01*
X144299778Y-99305347D01*
X144293598Y-99303927D01*
G37*
G36*
X144206967Y-98581789D02*
G01*
X144250719Y-98584251D01*
X144291399Y-98588353D01*
X144336160Y-98595442D01*
X144376496Y-98604895D01*
X144406731Y-98614576D01*
X144444814Y-98630765D01*
X144483209Y-98653113D01*
X144516133Y-98679565D01*
X144543586Y-98710120D01*
X144546633Y-98714228D01*
X144567577Y-98748763D01*
X144582537Y-98786133D01*
X144591513Y-98826335D01*
X144594505Y-98869371D01*
X144591840Y-98909090D01*
X144582269Y-98950432D01*
X144565737Y-98987450D01*
X144542243Y-99020145D01*
X144538817Y-99023927D01*
X144508055Y-99050843D01*
X144471651Y-99071799D01*
X144429604Y-99086796D01*
X144388185Y-99095029D01*
X144381916Y-99095833D01*
X144369411Y-99000676D01*
X144410410Y-98989761D01*
X144445393Y-98971956D01*
X144464958Y-98954563D01*
X144485127Y-98921015D01*
X144494002Y-98880212D01*
X144494463Y-98867221D01*
X144490298Y-98826890D01*
X144476676Y-98789453D01*
X144475510Y-98787305D01*
X144451580Y-98754296D01*
X144424512Y-98731031D01*
X144389544Y-98711920D01*
X144350973Y-98697927D01*
X144337561Y-98694102D01*
X144298806Y-98685647D01*
X144258573Y-98680702D01*
X144220715Y-98679252D01*
X144200785Y-98679838D01*
X144233749Y-98705163D01*
X144261712Y-98736588D01*
X144277575Y-98760927D01*
X144294262Y-98797249D01*
X144304022Y-98835557D01*
X144306884Y-98872106D01*
X144303406Y-98914407D01*
X144292972Y-98953771D01*
X144275581Y-98990200D01*
X144251234Y-99023692D01*
X144234198Y-99041513D01*
X144200096Y-99068465D01*
X144161562Y-99088797D01*
X144118597Y-99102509D01*
X144078242Y-99108994D01*
X144042125Y-99110683D01*
X143997719Y-99108141D01*
X143956680Y-99100516D01*
X143919006Y-99087808D01*
X143879308Y-99066557D01*
X143844191Y-99038387D01*
X143814955Y-99005018D01*
X143792900Y-98968171D01*
X143778025Y-98927847D01*
X143770332Y-98884043D01*
X143769159Y-98857452D01*
X143770104Y-98845337D01*
X143869201Y-98845337D01*
X143874048Y-98884851D01*
X143890575Y-98924526D01*
X143915778Y-98957147D01*
X143918831Y-98960229D01*
X143952712Y-98985989D01*
X143992318Y-99002208D01*
X144032857Y-99008648D01*
X144047401Y-99009078D01*
X144089136Y-99004555D01*
X144129050Y-98989134D01*
X144162683Y-98962769D01*
X144187825Y-98928235D01*
X144202530Y-98888575D01*
X144206842Y-98848073D01*
X144202530Y-98807490D01*
X144187825Y-98768403D01*
X144162683Y-98735135D01*
X144128149Y-98709882D01*
X144089742Y-98696021D01*
X144049465Y-98690953D01*
X144039780Y-98690780D01*
X143998257Y-98694366D01*
X143958102Y-98706761D01*
X143924244Y-98728010D01*
X143915314Y-98736112D01*
X143889060Y-98769471D01*
X143873704Y-98807216D01*
X143869201Y-98845337D01*
X143770104Y-98845337D01*
X143772529Y-98814240D01*
X143782637Y-98773192D01*
X143799484Y-98734309D01*
X143811755Y-98713641D01*
X143838465Y-98679515D01*
X143870893Y-98650334D01*
X143904519Y-98628547D01*
X143932704Y-98614772D01*
X143970435Y-98601600D01*
X144014898Y-98591664D01*
X144058367Y-98585722D01*
X144098370Y-98582586D01*
X144141807Y-98581101D01*
X144160143Y-98580969D01*
X144206967Y-98581789D01*
G37*
G36*
X141696072Y-81043598D02*
G01*
X141802757Y-81069976D01*
X141790947Y-81110252D01*
X141776524Y-81147427D01*
X141755764Y-81187945D01*
X141731241Y-81223998D01*
X141702953Y-81255585D01*
X141682003Y-81274163D01*
X141648030Y-81298068D01*
X141611322Y-81317027D01*
X141571881Y-81331041D01*
X141529706Y-81340108D01*
X141484796Y-81344230D01*
X141469219Y-81344505D01*
X141429679Y-81343202D01*
X141385367Y-81338202D01*
X141344477Y-81329450D01*
X141307007Y-81316948D01*
X141267615Y-81297622D01*
X141257216Y-81291162D01*
X141223429Y-81265543D01*
X141193364Y-81235362D01*
X141167020Y-81200617D01*
X141144397Y-81161310D01*
X141133141Y-81136801D01*
X141118665Y-81098323D01*
X141107184Y-81058802D01*
X141098698Y-81018236D01*
X141093207Y-80976626D01*
X141090711Y-80933972D01*
X141090545Y-80919522D01*
X141092235Y-80873182D01*
X141097304Y-80829122D01*
X141105753Y-80787343D01*
X141117582Y-80747844D01*
X141132791Y-80710626D01*
X141138612Y-80698727D01*
X141161586Y-80659692D01*
X141188449Y-80624996D01*
X141219203Y-80594638D01*
X141253845Y-80568618D01*
X141275388Y-80555698D01*
X141315125Y-80536588D01*
X141356545Y-80522172D01*
X141399648Y-80512449D01*
X141444434Y-80507420D01*
X141470782Y-80506654D01*
X141514785Y-80508873D01*
X141556081Y-80515529D01*
X141594670Y-80526623D01*
X141630553Y-80542155D01*
X141668996Y-80565884D01*
X141674187Y-80569766D01*
X141707868Y-80599837D01*
X141736762Y-80634826D01*
X141757718Y-80668731D01*
X141775157Y-80706249D01*
X141789079Y-80747380D01*
X141683957Y-80771609D01*
X141668399Y-80731455D01*
X141647100Y-80693289D01*
X141621784Y-80662542D01*
X141602673Y-80646166D01*
X141566663Y-80625352D01*
X141525309Y-80612246D01*
X141483523Y-80607043D01*
X141468633Y-80606696D01*
X141429410Y-80608790D01*
X141388178Y-80616313D01*
X141350782Y-80629307D01*
X141313294Y-80650464D01*
X141281154Y-80677339D01*
X141254857Y-80708943D01*
X141234402Y-80745276D01*
X141225562Y-80767505D01*
X141213378Y-80809202D01*
X141205181Y-80851641D01*
X141200972Y-80894822D01*
X141200356Y-80919131D01*
X141201787Y-80961941D01*
X141206078Y-81002319D01*
X141214486Y-81045489D01*
X141226631Y-81085484D01*
X141230252Y-81094986D01*
X141247361Y-81130218D01*
X141271543Y-81164161D01*
X141300948Y-81192077D01*
X141323455Y-81207338D01*
X141359790Y-81225284D01*
X141397795Y-81237357D01*
X141437468Y-81243556D01*
X141460231Y-81244463D01*
X141503339Y-81241300D01*
X141542980Y-81231811D01*
X141579152Y-81215996D01*
X141611857Y-81193856D01*
X141640421Y-81165487D01*
X141663978Y-81130988D01*
X141682528Y-81090358D01*
X141694652Y-81049778D01*
X141696072Y-81043598D01*
G37*
G36*
X142213982Y-80521861D02*
G01*
X142255616Y-80531567D01*
X142292928Y-80548331D01*
X142325916Y-80572154D01*
X142329735Y-80575628D01*
X142357078Y-80606562D01*
X142378339Y-80642893D01*
X142393519Y-80684622D01*
X142401813Y-80725562D01*
X142402617Y-80731748D01*
X142304334Y-80744254D01*
X142292858Y-80705593D01*
X142274262Y-80669709D01*
X142267014Y-80660820D01*
X142234215Y-80635459D01*
X142196195Y-80621802D01*
X142167949Y-80619201D01*
X142128781Y-80623839D01*
X142091712Y-80639100D01*
X142084906Y-80643430D01*
X142052657Y-80670797D01*
X142027971Y-80703029D01*
X142011242Y-80734484D01*
X141998210Y-80772861D01*
X141990024Y-80814941D01*
X141985487Y-80857912D01*
X141983548Y-80899313D01*
X141983301Y-80914051D01*
X142007195Y-80882727D01*
X142037048Y-80854618D01*
X142070642Y-80833158D01*
X142106795Y-80818140D01*
X142147498Y-80808866D01*
X142178891Y-80806780D01*
X142220744Y-80810277D01*
X142259792Y-80820767D01*
X142296035Y-80838252D01*
X142329473Y-80862730D01*
X142347321Y-80879857D01*
X142374425Y-80913791D01*
X142394872Y-80951819D01*
X142408661Y-80993944D01*
X142415183Y-81033309D01*
X142416881Y-81068413D01*
X142414284Y-81110333D01*
X142406495Y-81150584D01*
X142393512Y-81189165D01*
X142384055Y-81209878D01*
X142363752Y-81244177D01*
X142336626Y-81276630D01*
X142304691Y-81303131D01*
X142294173Y-81309920D01*
X142257007Y-81328158D01*
X142216825Y-81339641D01*
X142173628Y-81344370D01*
X142164627Y-81344505D01*
X142119912Y-81341297D01*
X142078385Y-81331673D01*
X142040045Y-81315633D01*
X142004892Y-81293177D01*
X141972927Y-81264305D01*
X141962980Y-81253256D01*
X141936485Y-81214881D01*
X141918593Y-81176553D01*
X141904508Y-81132453D01*
X141895981Y-81093017D01*
X141892285Y-81066849D01*
X141998737Y-81066849D01*
X142002889Y-81107134D01*
X142015343Y-81145923D01*
X142020426Y-81156731D01*
X142042732Y-81190284D01*
X142074019Y-81217601D01*
X142081194Y-81221993D01*
X142118646Y-81238121D01*
X142157729Y-81244375D01*
X142163064Y-81244463D01*
X142204084Y-81238991D01*
X142240902Y-81222575D01*
X142270726Y-81198154D01*
X142294528Y-81165846D01*
X142309515Y-81127049D01*
X142315465Y-81086585D01*
X142315862Y-81071930D01*
X142312338Y-81031317D01*
X142300157Y-80992245D01*
X142276707Y-80956628D01*
X142271312Y-80950981D01*
X142237960Y-80925839D01*
X142199158Y-80911134D01*
X142159156Y-80906822D01*
X142119253Y-80911134D01*
X142079943Y-80925839D01*
X142045436Y-80950981D01*
X142018849Y-80984596D01*
X142003298Y-81024721D01*
X141998737Y-81066849D01*
X141892285Y-81066849D01*
X141889890Y-81049887D01*
X141886236Y-81003062D01*
X141885018Y-80952544D01*
X141885777Y-80909740D01*
X141888054Y-80869182D01*
X141893452Y-80818600D01*
X141901548Y-80772010D01*
X141912344Y-80729414D01*
X141925838Y-80690812D01*
X141946502Y-80648174D01*
X141971382Y-80611776D01*
X142001426Y-80580301D01*
X142035139Y-80555338D01*
X142072519Y-80536887D01*
X142113568Y-80524948D01*
X142158285Y-80519521D01*
X142174006Y-80519159D01*
X142213982Y-80521861D01*
G37*
G36*
X163524795Y-88770197D02*
G01*
X163564492Y-88773311D01*
X163603815Y-88779411D01*
X163643901Y-88790848D01*
X163679777Y-88809573D01*
X163710296Y-88836194D01*
X163733392Y-88867247D01*
X163751115Y-88902567D01*
X163762274Y-88940138D01*
X163766868Y-88979961D01*
X163767000Y-88988196D01*
X163763531Y-89029302D01*
X163753127Y-89067038D01*
X163733130Y-89105461D01*
X163711508Y-89132397D01*
X163679988Y-89159032D01*
X163640921Y-89180318D01*
X163600547Y-89194555D01*
X163561342Y-89203499D01*
X163540147Y-89206842D01*
X163575389Y-89226497D01*
X163604432Y-89248461D01*
X163633142Y-89278251D01*
X163658165Y-89308391D01*
X163682415Y-89341683D01*
X163692945Y-89357491D01*
X163833043Y-89582000D01*
X163698807Y-89582000D01*
X163592317Y-89410443D01*
X163569993Y-89375504D01*
X163547331Y-89341424D01*
X163523160Y-89307284D01*
X163515332Y-89296919D01*
X163488312Y-89265412D01*
X163461012Y-89242990D01*
X163424815Y-89226248D01*
X163412554Y-89222865D01*
X163372328Y-89219568D01*
X163353155Y-89219348D01*
X163229470Y-89219348D01*
X163229470Y-89582000D01*
X163122980Y-89582000D01*
X163122980Y-89119306D01*
X163229470Y-89119306D01*
X163458667Y-89119306D01*
X163501231Y-89117932D01*
X163540865Y-89113247D01*
X163572973Y-89105237D01*
X163609268Y-89086773D01*
X163635695Y-89059906D01*
X163653074Y-89023004D01*
X163657188Y-88991909D01*
X163650319Y-88951537D01*
X163629713Y-88917422D01*
X163615569Y-88903786D01*
X163581387Y-88884096D01*
X163540416Y-88873288D01*
X163500851Y-88869505D01*
X163484460Y-88869201D01*
X163229470Y-88869201D01*
X163229470Y-89119306D01*
X163122980Y-89119306D01*
X163122980Y-88769159D01*
X163480161Y-88769159D01*
X163524795Y-88770197D01*
G37*
G36*
X164213982Y-88771861D02*
G01*
X164255616Y-88781567D01*
X164292928Y-88798331D01*
X164325916Y-88822154D01*
X164329735Y-88825628D01*
X164357078Y-88856562D01*
X164378339Y-88892893D01*
X164393519Y-88934622D01*
X164401813Y-88975562D01*
X164402617Y-88981748D01*
X164304334Y-88994254D01*
X164292858Y-88955593D01*
X164274262Y-88919709D01*
X164267014Y-88910820D01*
X164234215Y-88885459D01*
X164196195Y-88871802D01*
X164167949Y-88869201D01*
X164128781Y-88873839D01*
X164091712Y-88889100D01*
X164084906Y-88893430D01*
X164052657Y-88920797D01*
X164027971Y-88953029D01*
X164011242Y-88984484D01*
X163998210Y-89022861D01*
X163990024Y-89064941D01*
X163985487Y-89107912D01*
X163983548Y-89149313D01*
X163983301Y-89164051D01*
X164007195Y-89132727D01*
X164037048Y-89104618D01*
X164070642Y-89083158D01*
X164106795Y-89068140D01*
X164147498Y-89058866D01*
X164178891Y-89056780D01*
X164220744Y-89060277D01*
X164259792Y-89070767D01*
X164296035Y-89088252D01*
X164329473Y-89112730D01*
X164347321Y-89129857D01*
X164374425Y-89163791D01*
X164394872Y-89201819D01*
X164408661Y-89243944D01*
X164415183Y-89283309D01*
X164416881Y-89318413D01*
X164414284Y-89360333D01*
X164406495Y-89400584D01*
X164393512Y-89439165D01*
X164384055Y-89459878D01*
X164363752Y-89494177D01*
X164336626Y-89526630D01*
X164304691Y-89553131D01*
X164294173Y-89559920D01*
X164257007Y-89578158D01*
X164216825Y-89589641D01*
X164173628Y-89594370D01*
X164164627Y-89594505D01*
X164119912Y-89591297D01*
X164078385Y-89581673D01*
X164040045Y-89565633D01*
X164004892Y-89543177D01*
X163972927Y-89514305D01*
X163962980Y-89503256D01*
X163936485Y-89464881D01*
X163918593Y-89426553D01*
X163904508Y-89382453D01*
X163895981Y-89343017D01*
X163892285Y-89316849D01*
X163998737Y-89316849D01*
X164002889Y-89357134D01*
X164015343Y-89395923D01*
X164020426Y-89406731D01*
X164042732Y-89440284D01*
X164074019Y-89467601D01*
X164081194Y-89471993D01*
X164118646Y-89488121D01*
X164157729Y-89494375D01*
X164163064Y-89494463D01*
X164204084Y-89488991D01*
X164240902Y-89472575D01*
X164270726Y-89448154D01*
X164294528Y-89415846D01*
X164309515Y-89377049D01*
X164315465Y-89336585D01*
X164315862Y-89321930D01*
X164312338Y-89281317D01*
X164300157Y-89242245D01*
X164276707Y-89206628D01*
X164271312Y-89200981D01*
X164237960Y-89175839D01*
X164199158Y-89161134D01*
X164159156Y-89156822D01*
X164119253Y-89161134D01*
X164079943Y-89175839D01*
X164045436Y-89200981D01*
X164018849Y-89234596D01*
X164003298Y-89274721D01*
X163998737Y-89316849D01*
X163892285Y-89316849D01*
X163889890Y-89299887D01*
X163886236Y-89253062D01*
X163885018Y-89202544D01*
X163885777Y-89159740D01*
X163888054Y-89119182D01*
X163893452Y-89068600D01*
X163901548Y-89022010D01*
X163912344Y-88979414D01*
X163925838Y-88940812D01*
X163946502Y-88898174D01*
X163971382Y-88861776D01*
X164001426Y-88830301D01*
X164035139Y-88805338D01*
X164072519Y-88786887D01*
X164113568Y-88774948D01*
X164158285Y-88769521D01*
X164174006Y-88769159D01*
X164213982Y-88771861D01*
G37*
G36*
X161834613Y-92043598D02*
G01*
X161941298Y-92069976D01*
X161929488Y-92110252D01*
X161915065Y-92147427D01*
X161894305Y-92187945D01*
X161869782Y-92223998D01*
X161841494Y-92255585D01*
X161820544Y-92274163D01*
X161786571Y-92298068D01*
X161749863Y-92317027D01*
X161710422Y-92331041D01*
X161668247Y-92340108D01*
X161623337Y-92344230D01*
X161607760Y-92344505D01*
X161568220Y-92343202D01*
X161523908Y-92338202D01*
X161483018Y-92329450D01*
X161445548Y-92316948D01*
X161406156Y-92297622D01*
X161395757Y-92291162D01*
X161361970Y-92265543D01*
X161331905Y-92235362D01*
X161305561Y-92200617D01*
X161282938Y-92161310D01*
X161271682Y-92136801D01*
X161257206Y-92098323D01*
X161245725Y-92058802D01*
X161237239Y-92018236D01*
X161231748Y-91976626D01*
X161229252Y-91933972D01*
X161229086Y-91919522D01*
X161230776Y-91873182D01*
X161235845Y-91829122D01*
X161244294Y-91787343D01*
X161256123Y-91747844D01*
X161271332Y-91710626D01*
X161277153Y-91698727D01*
X161300127Y-91659692D01*
X161326990Y-91624996D01*
X161357744Y-91594638D01*
X161392386Y-91568618D01*
X161413929Y-91555698D01*
X161453666Y-91536588D01*
X161495086Y-91522172D01*
X161538189Y-91512449D01*
X161582975Y-91507420D01*
X161609323Y-91506654D01*
X161653326Y-91508873D01*
X161694622Y-91515529D01*
X161733211Y-91526623D01*
X161769094Y-91542155D01*
X161807537Y-91565884D01*
X161812728Y-91569766D01*
X161846409Y-91599837D01*
X161875303Y-91634826D01*
X161896259Y-91668731D01*
X161913698Y-91706249D01*
X161927620Y-91747380D01*
X161822498Y-91771609D01*
X161806940Y-91731455D01*
X161785641Y-91693289D01*
X161760325Y-91662542D01*
X161741214Y-91646166D01*
X161705204Y-91625352D01*
X161663850Y-91612246D01*
X161622064Y-91607043D01*
X161607174Y-91606696D01*
X161567951Y-91608790D01*
X161526719Y-91616313D01*
X161489323Y-91629307D01*
X161451835Y-91650464D01*
X161419695Y-91677339D01*
X161393398Y-91708943D01*
X161372943Y-91745276D01*
X161364103Y-91767505D01*
X161351919Y-91809202D01*
X161343722Y-91851641D01*
X161339513Y-91894822D01*
X161338897Y-91919131D01*
X161340328Y-91961941D01*
X161344619Y-92002319D01*
X161353027Y-92045489D01*
X161365172Y-92085484D01*
X161368793Y-92094986D01*
X161385902Y-92130218D01*
X161410084Y-92164161D01*
X161439489Y-92192077D01*
X161461996Y-92207338D01*
X161498331Y-92225284D01*
X161536336Y-92237357D01*
X161576009Y-92243556D01*
X161598772Y-92244463D01*
X161641880Y-92241300D01*
X161681521Y-92231811D01*
X161717693Y-92215996D01*
X161750398Y-92193856D01*
X161778962Y-92165487D01*
X161802519Y-92130988D01*
X161821069Y-92090358D01*
X161833193Y-92049778D01*
X161834613Y-92043598D01*
G37*
G36*
X162400474Y-92332000D02*
G01*
X162301605Y-92332000D01*
X162301605Y-91698531D01*
X162271655Y-91724204D01*
X162238697Y-91747786D01*
X162207816Y-91767115D01*
X162172710Y-91786826D01*
X162136782Y-91804673D01*
X162103670Y-91818503D01*
X162103670Y-91722369D01*
X162139001Y-91704401D01*
X162176929Y-91681943D01*
X162212243Y-91657434D01*
X162244945Y-91630872D01*
X162248848Y-91627408D01*
X162277645Y-91599686D01*
X162304610Y-91569025D01*
X162327829Y-91535609D01*
X162336776Y-91519159D01*
X162400474Y-91519159D01*
X162400474Y-92332000D01*
G37*
G36*
X162956090Y-91522253D02*
G01*
X162995009Y-91531535D01*
X163027104Y-91545342D01*
X163061469Y-91568249D01*
X163090998Y-91597696D01*
X163107997Y-91620960D01*
X163128277Y-91657375D01*
X163143909Y-91694927D01*
X163155693Y-91732346D01*
X163158018Y-91741127D01*
X163165968Y-91779583D01*
X163171647Y-91824219D01*
X163174752Y-91868344D01*
X163176030Y-91909930D01*
X163176190Y-91932027D01*
X163175479Y-91975144D01*
X163173346Y-92015589D01*
X163168911Y-92060597D01*
X163162429Y-92101758D01*
X163152279Y-92144917D01*
X163147076Y-92161811D01*
X163130712Y-92203003D01*
X163110733Y-92239236D01*
X163087139Y-92270511D01*
X163059930Y-92296829D01*
X163024876Y-92319875D01*
X162984999Y-92335379D01*
X162945505Y-92342829D01*
X162913384Y-92344505D01*
X162871472Y-92341558D01*
X162833077Y-92332717D01*
X162792728Y-92314953D01*
X162757167Y-92289168D01*
X162730495Y-92260681D01*
X162707529Y-92226073D01*
X162688455Y-92185263D01*
X162675999Y-92148150D01*
X162666033Y-92107069D01*
X162658560Y-92062018D01*
X162653577Y-92012998D01*
X162651475Y-91973629D01*
X162650774Y-91932027D01*
X162650777Y-91931832D01*
X162752379Y-91931832D01*
X162753106Y-91976907D01*
X162755286Y-92018050D01*
X162760054Y-92063948D01*
X162767094Y-92103703D01*
X162778538Y-92143297D01*
X162796022Y-92178309D01*
X162798883Y-92182327D01*
X162826757Y-92212364D01*
X162861753Y-92234208D01*
X162900984Y-92243917D01*
X162913580Y-92244463D01*
X162953979Y-92238357D01*
X162990180Y-92220039D01*
X163019172Y-92193111D01*
X163028081Y-92181937D01*
X163048426Y-92142858D01*
X163059871Y-92103290D01*
X163066910Y-92063601D01*
X163071678Y-92017806D01*
X163073858Y-91976773D01*
X163074585Y-91931832D01*
X163073858Y-91886672D01*
X163071678Y-91845468D01*
X163066910Y-91799527D01*
X163059871Y-91759769D01*
X163048426Y-91720220D01*
X163028081Y-91681337D01*
X163000129Y-91651300D01*
X162964867Y-91629456D01*
X162925177Y-91619747D01*
X162912407Y-91619201D01*
X162872477Y-91624544D01*
X162834770Y-91642763D01*
X162806140Y-91670546D01*
X162803573Y-91673912D01*
X162783625Y-91710096D01*
X162770427Y-91750130D01*
X162762178Y-91789852D01*
X162756429Y-91835356D01*
X162753629Y-91875921D01*
X162752429Y-91920187D01*
X162752379Y-91931832D01*
X162650777Y-91931832D01*
X162651490Y-91888634D01*
X162653637Y-91847970D01*
X162658102Y-91802774D01*
X162664628Y-91761508D01*
X162674846Y-91718330D01*
X162680084Y-91701462D01*
X162696607Y-91660210D01*
X162716671Y-91623988D01*
X162740277Y-91592799D01*
X162767425Y-91566640D01*
X162802433Y-91543688D01*
X162842170Y-91528247D01*
X162881463Y-91520829D01*
X162913384Y-91519159D01*
X162956090Y-91522253D01*
G37*
G36*
X157676428Y-85593598D02*
G01*
X157783113Y-85619976D01*
X157771303Y-85660252D01*
X157756880Y-85697427D01*
X157736120Y-85737945D01*
X157711597Y-85773998D01*
X157683309Y-85805585D01*
X157662359Y-85824163D01*
X157628386Y-85848068D01*
X157591678Y-85867027D01*
X157552237Y-85881041D01*
X157510062Y-85890108D01*
X157465152Y-85894230D01*
X157449575Y-85894505D01*
X157410035Y-85893202D01*
X157365723Y-85888202D01*
X157324833Y-85879450D01*
X157287363Y-85866948D01*
X157247971Y-85847622D01*
X157237572Y-85841162D01*
X157203785Y-85815543D01*
X157173720Y-85785362D01*
X157147376Y-85750617D01*
X157124753Y-85711310D01*
X157113497Y-85686801D01*
X157099021Y-85648323D01*
X157087540Y-85608802D01*
X157079054Y-85568236D01*
X157073563Y-85526626D01*
X157071067Y-85483972D01*
X157070901Y-85469522D01*
X157072591Y-85423182D01*
X157077660Y-85379122D01*
X157086109Y-85337343D01*
X157097938Y-85297844D01*
X157113147Y-85260626D01*
X157118968Y-85248727D01*
X157141942Y-85209692D01*
X157168805Y-85174996D01*
X157199559Y-85144638D01*
X157234201Y-85118618D01*
X157255744Y-85105698D01*
X157295481Y-85086588D01*
X157336901Y-85072172D01*
X157380004Y-85062449D01*
X157424790Y-85057420D01*
X157451138Y-85056654D01*
X157495141Y-85058873D01*
X157536437Y-85065529D01*
X157575026Y-85076623D01*
X157610909Y-85092155D01*
X157649352Y-85115884D01*
X157654543Y-85119766D01*
X157688224Y-85149837D01*
X157717118Y-85184826D01*
X157738074Y-85218731D01*
X157755513Y-85256249D01*
X157769435Y-85297380D01*
X157664313Y-85321609D01*
X157648755Y-85281455D01*
X157627456Y-85243289D01*
X157602140Y-85212542D01*
X157583029Y-85196166D01*
X157547019Y-85175352D01*
X157505665Y-85162246D01*
X157463879Y-85157043D01*
X157448989Y-85156696D01*
X157409766Y-85158790D01*
X157368534Y-85166313D01*
X157331138Y-85179307D01*
X157293650Y-85200464D01*
X157261510Y-85227339D01*
X157235213Y-85258943D01*
X157214758Y-85295276D01*
X157205918Y-85317505D01*
X157193734Y-85359202D01*
X157185537Y-85401641D01*
X157181328Y-85444822D01*
X157180712Y-85469131D01*
X157182143Y-85511941D01*
X157186434Y-85552319D01*
X157194842Y-85595489D01*
X157206987Y-85635484D01*
X157210608Y-85644986D01*
X157227717Y-85680218D01*
X157251899Y-85714161D01*
X157281304Y-85742077D01*
X157303811Y-85757338D01*
X157340146Y-85775284D01*
X157378151Y-85787357D01*
X157417824Y-85793556D01*
X157440587Y-85794463D01*
X157483695Y-85791300D01*
X157523336Y-85781811D01*
X157559508Y-85765996D01*
X157592213Y-85743856D01*
X157620777Y-85715487D01*
X157644334Y-85680988D01*
X157662884Y-85640358D01*
X157675008Y-85599778D01*
X157676428Y-85593598D01*
G37*
G36*
X158242289Y-85882000D02*
G01*
X158143420Y-85882000D01*
X158143420Y-85248531D01*
X158113470Y-85274204D01*
X158080512Y-85297786D01*
X158049631Y-85317115D01*
X158014525Y-85336826D01*
X157978597Y-85354673D01*
X157945485Y-85368503D01*
X157945485Y-85272369D01*
X157980816Y-85254401D01*
X158018744Y-85231943D01*
X158054058Y-85207434D01*
X158086760Y-85180872D01*
X158090663Y-85177408D01*
X158119460Y-85149686D01*
X158146425Y-85119025D01*
X158169644Y-85085609D01*
X158178591Y-85069159D01*
X158242289Y-85069159D01*
X158242289Y-85882000D01*
G37*
G36*
X158823001Y-85882000D02*
G01*
X158724132Y-85882000D01*
X158724132Y-85248531D01*
X158694181Y-85274204D01*
X158661223Y-85297786D01*
X158630342Y-85317115D01*
X158595236Y-85336826D01*
X158559308Y-85354673D01*
X158526197Y-85368503D01*
X158526197Y-85272369D01*
X158561528Y-85254401D01*
X158599456Y-85231943D01*
X158634770Y-85207434D01*
X158667471Y-85180872D01*
X158671375Y-85177408D01*
X158700171Y-85149686D01*
X158727137Y-85119025D01*
X158750355Y-85085609D01*
X158759303Y-85069159D01*
X158823001Y-85069159D01*
X158823001Y-85882000D01*
G37*
%TO.C,C12*%
X157607836Y-92635000D02*
X157392164Y-92635000D01*
X157607836Y-93355000D02*
X157392164Y-93355000D01*
%TO.C,U3*%
X154790000Y-87240000D02*
X154790000Y-87500001D01*
X154790000Y-87240000D02*
X155050000Y-87240000D01*
X154790000Y-91260000D02*
X154790000Y-90999999D01*
X154790000Y-91260000D02*
X155050000Y-91260000D01*
X160210000Y-87240000D02*
X159950000Y-87240000D01*
X160210000Y-87240000D02*
X160210000Y-87500001D01*
D11*
X160209999Y-91620000D02*
X160210000Y-91260000D01*
X160570000Y-91260000D01*
X160209999Y-91620000D01*
G36*
X160209999Y-91620000D02*
G01*
X160210000Y-91260000D01*
X160570000Y-91260000D01*
X160209999Y-91620000D01*
G37*
D10*
%TO.C,C13*%
X159392164Y-92635000D02*
X159607836Y-92635000D01*
X159392164Y-93355000D02*
X159607836Y-93355000D01*
D11*
%TO.C,U1*%
X138450000Y-84200000D02*
X138450000Y-85100000D01*
X138450000Y-84200000D02*
X139350000Y-84200000D01*
X138450000Y-94300000D02*
X138450000Y-93400000D01*
X138450000Y-94300000D02*
X139350000Y-94300000D01*
X148550000Y-84200000D02*
X147650000Y-84200000D01*
X148550000Y-84200000D02*
X148550000Y-85100000D01*
X148550000Y-94300000D02*
X147650000Y-94300000D01*
X148550000Y-94300000D02*
X148550000Y-93400000D01*
D12*
X137925000Y-84750000D02*
G75*
G02*
X137675000Y-84750000I-125000J0D01*
G01*
X137675000Y-84750000D02*
G75*
G02*
X137925000Y-84750000I125000J0D01*
G01*
D10*
%TO.C,Y1*%
X157299999Y-95200000D02*
X159700001Y-95200000D01*
X159700001Y-93600000D02*
X157299999Y-93600000D01*
X159700001Y-95200000D02*
X159700001Y-93600000D01*
%TD*%
%LPC*%
D13*
%TO.C,R5*%
X161045000Y-86995000D03*
X161845000Y-86995000D03*
%TD*%
D14*
%TO.C,C12*%
X157980000Y-92995000D03*
X157020000Y-92995000D03*
%TD*%
D15*
%TO.C,U3*%
X159750000Y-90912500D03*
D16*
X159887500Y-90000001D03*
X159887500Y-89500000D03*
X159887500Y-89000000D03*
X159887500Y-88499999D03*
D15*
X159750000Y-87587500D03*
X159250000Y-87587500D03*
X158750000Y-87587499D03*
X158250000Y-87587500D03*
X157750000Y-87587500D03*
X157250000Y-87587500D03*
X156750000Y-87587500D03*
X156250000Y-87587499D03*
X155750000Y-87587500D03*
X155250000Y-87587500D03*
D16*
X155112500Y-88499999D03*
X155112500Y-89000000D03*
X155112500Y-89500000D03*
X155112500Y-90000001D03*
D15*
X155250000Y-90912500D03*
X155750000Y-90912500D03*
X156250000Y-90912501D03*
X156750000Y-90912500D03*
X157250000Y-90912500D03*
X157750000Y-90912500D03*
X158250000Y-90912500D03*
X158750000Y-90912501D03*
X159250000Y-90912500D03*
%TD*%
D17*
%TO.C,C4*%
X146300000Y-96450000D03*
X146300000Y-97250000D03*
%TD*%
D18*
%TO.C,C13*%
X159020000Y-92995000D03*
X159980000Y-92995000D03*
%TD*%
D13*
%TO.C,R4*%
X161045000Y-87895000D03*
X161845000Y-87895000D03*
%TD*%
D17*
%TO.C,C3*%
X150700000Y-84950000D03*
X150700000Y-85750000D03*
%TD*%
%TO.C,C5*%
X143600000Y-96450000D03*
X143600000Y-97250000D03*
%TD*%
D19*
%TO.C,R3*%
X154000000Y-88850000D03*
X154000000Y-88050000D03*
%TD*%
D20*
%TO.C,C7*%
X137600000Y-84450000D03*
X137600000Y-83650000D03*
%TD*%
%TO.C,C1*%
X136200000Y-93150000D03*
X136200000Y-92350000D03*
%TD*%
D17*
%TO.C,C19*%
X161045000Y-89695001D03*
X161045000Y-90495001D03*
%TD*%
D21*
%TO.C,FD3*%
X141000000Y-99250000D03*
%TD*%
D19*
%TO.C,R1*%
X152900000Y-89550000D03*
X152900000Y-88750000D03*
%TD*%
D22*
%TO.C,U1*%
X137750000Y-85500000D03*
X137750000Y-86000000D03*
X137750000Y-86500000D03*
X137750000Y-87000000D03*
X137750000Y-87500000D03*
X137750000Y-88000000D03*
X137750000Y-88500000D03*
X137750000Y-89000000D03*
X137750000Y-89500000D03*
X137750000Y-90000000D03*
X137750000Y-90500000D03*
X137750000Y-91000000D03*
X137750000Y-91500000D03*
X137750000Y-92000000D03*
X137750000Y-92500000D03*
X137750000Y-93000000D03*
D23*
X139750000Y-95000000D03*
X140250000Y-95000000D03*
X140750000Y-95000000D03*
X141250000Y-95000000D03*
X141750000Y-95000000D03*
X142250000Y-95000000D03*
X142750000Y-95000000D03*
X143250000Y-95000000D03*
X143750000Y-95000000D03*
X144250000Y-95000000D03*
X144750000Y-95000000D03*
X145250000Y-95000000D03*
X145750000Y-95000000D03*
X146250000Y-95000000D03*
X146750000Y-95000000D03*
X147250000Y-95000000D03*
D22*
X149250000Y-93000000D03*
X149250000Y-92500000D03*
X149250000Y-92000000D03*
X149250000Y-91500000D03*
X149250000Y-91000000D03*
X149250000Y-90500000D03*
X149250000Y-90000000D03*
X149250000Y-89500000D03*
X149250000Y-89000000D03*
X149250000Y-88500000D03*
X149250000Y-88000000D03*
X149250000Y-87500000D03*
X149250000Y-87000000D03*
X149250000Y-86500000D03*
X149250000Y-86000000D03*
X149250000Y-85500000D03*
D23*
X147250000Y-83500000D03*
X146750000Y-83500000D03*
X146250000Y-83500000D03*
X145750000Y-83500000D03*
X145250000Y-83500000D03*
X144750000Y-83500000D03*
X144250000Y-83500000D03*
X143750000Y-83500000D03*
X143250000Y-83500000D03*
X142750000Y-83500000D03*
X142250000Y-83500000D03*
X141750000Y-83500000D03*
X141250000Y-83500000D03*
X140750000Y-83500000D03*
X140250000Y-83500000D03*
X139750000Y-83500000D03*
%TD*%
D24*
%TO.C,C2*%
X148000000Y-96450000D03*
X147200000Y-96450000D03*
%TD*%
D25*
%TO.C,TP3*%
X150900000Y-89650000D03*
%TD*%
D26*
%TO.C,R2*%
X152900000Y-90400000D03*
X152900000Y-91200000D03*
%TD*%
D27*
%TO.C,Y1*%
X159200000Y-94400000D03*
X157800000Y-94400000D03*
%TD*%
D17*
%TO.C,C8*%
X145400000Y-96450000D03*
X145400000Y-97250000D03*
%TD*%
D21*
%TO.C,FD2*%
X156000000Y-79250000D03*
%TD*%
D28*
%TO.C,H3*%
X161500000Y-79250000D03*
%TD*%
D21*
%TO.C,FD1*%
X141000000Y-79250000D03*
%TD*%
D28*
%TO.C,H4*%
X135500000Y-79250000D03*
%TD*%
D25*
%TO.C,TP1*%
X150900000Y-87650000D03*
%TD*%
%TO.C,TP4*%
X151900000Y-88650000D03*
%TD*%
D17*
%TO.C,C9*%
X144500000Y-96450000D03*
X144500000Y-97250000D03*
%TD*%
D29*
%TO.C,C6*%
X139600000Y-81950000D03*
X140400000Y-81950000D03*
%TD*%
D30*
%TO.C,R6*%
X161845000Y-88795000D03*
X161045000Y-88795000D03*
%TD*%
D28*
%TO.C,H2*%
X161500000Y-99250000D03*
%TD*%
D29*
%TO.C,C10*%
X159744999Y-91995000D03*
X160544999Y-91995000D03*
%TD*%
D28*
%TO.C,H1*%
X135600000Y-99250000D03*
%TD*%
D24*
%TO.C,C11*%
X158445001Y-86495000D03*
X157645001Y-86495000D03*
%TD*%
D25*
%TO.C,TP2*%
X151900000Y-86650000D03*
%TD*%
%LPD*%
M02*
