%TF.GenerationSoftware,KiCad,Pcbnew,8.0.8+1*%
%TF.CreationDate,Date%
%TF.ProjectId,KiBot_Project_Test,4b69426f-745f-4507-926f-6a6563745f54,1.0.0*%
%TF.SameCoordinates,Original*%
%TF.FileFunction,Copper,L4,Bot*%
%TF.FilePolarity,Positive*%
%FSLAX46Y46*%
G04 Gerber Fmt 4.6, Leading zero omitted, Abs format (unit mm)*
G04 Created by KiCad*
%MOMM*%
%LPD*%
G01*
G04 APERTURE LIST*
G04 Aperture macros list*
%AMRoundRect*
0 Rectangle with rounded corners*
0 $1 Rounding radius*
0 $2 $3 $4 $5 $6 $7 $8 $9 X,Y pos of 4 corners*
0 Add a 4 corners polygon primitive as box body*
4,1,4,$2,$3,$4,$5,$6,$7,$8,$9,$2,$3,0*
0 Add four circle primitives for the rounded corners*
1,1,$1+$1,$2,$3*
1,1,$1+$1,$4,$5*
1,1,$1+$1,$6,$7*
1,1,$1+$1,$8,$9*
0 Add four rect primitives between the rounded corners*
20,1,$1+$1,$2,$3,$4,$5,0*
20,1,$1+$1,$4,$5,$6,$7,0*
20,1,$1+$1,$6,$7,$8,$9,0*
20,1,$1+$1,$8,$9,$2,$3,0*%
G04 Aperture macros list end*
%TA.AperFunction,ComponentPad*%
%ADD10C,6.400000*%
%TD*%
%TA.AperFunction,FiducialPad,Global*%
%ADD11C,1.000000*%
%TD*%
%TA.AperFunction,TestPad*%
%ADD12C,0.500000*%
%TD*%
%TA.AperFunction,SMDPad,CuDef*%
%ADD13RoundRect,0.250000X-1.500000X0.250000X-1.500000X-0.250000X1.500000X-0.250000X1.500000X0.250000X0*%
%TD*%
%TA.AperFunction,SMDPad,CuDef*%
%ADD14RoundRect,0.250001X-1.449999X0.499999X-1.449999X-0.499999X1.449999X-0.499999X1.449999X0.499999X0*%
%TD*%
%TA.AperFunction,SMDPad,CuDef*%
%ADD15RoundRect,0.187500X-0.187500X-0.262500X0.187500X-0.262500X0.187500X0.262500X-0.187500X0.262500X0*%
%TD*%
%TA.AperFunction,SMDPad,CuDef*%
%ADD16RoundRect,0.150000X0.700000X-0.150000X0.700000X0.150000X-0.700000X0.150000X-0.700000X-0.150000X0*%
%TD*%
%TA.AperFunction,SMDPad,CuDef*%
%ADD17RoundRect,0.250000X1.100000X-0.250000X1.100000X0.250000X-1.100000X0.250000X-1.100000X-0.250000X0*%
%TD*%
%TA.AperFunction,SMDPad,CuDef*%
%ADD18RoundRect,0.130000X-0.130000X0.130000X-0.130000X-0.130000X0.130000X-0.130000X0.130000X0.130000X0*%
%TD*%
%TA.AperFunction,SMDPad,CuDef*%
%ADD19RoundRect,0.130000X0.130000X-0.130000X0.130000X0.130000X-0.130000X0.130000X-0.130000X-0.130000X0*%
%TD*%
%TA.AperFunction,SMDPad,CuDef*%
%ADD20RoundRect,0.130000X-0.130000X-0.130000X0.130000X-0.130000X0.130000X0.130000X-0.130000X0.130000X0*%
%TD*%
%TA.AperFunction,SMDPad,CuDef*%
%ADD21RoundRect,0.150000X-0.150000X0.512500X-0.150000X-0.512500X0.150000X-0.512500X0.150000X0.512500X0*%
%TD*%
%TA.AperFunction,ViaPad*%
%ADD22C,0.550000*%
%TD*%
%TA.AperFunction,Conductor*%
%ADD23C,0.300000*%
%TD*%
%TA.AperFunction,Conductor*%
%ADD24C,0.500000*%
%TD*%
%TA.AperFunction,Conductor*%
%ADD25C,0.200000*%
%TD*%
G04 APERTURE END LIST*
D10*
%TO.P,H3,1,1*%
%TO.N,GND*%
X161500000Y-79250000D03*
%TD*%
%TO.P,H4,1,1*%
%TO.N,GND*%
X135500000Y-79250000D03*
%TD*%
%TO.P,H2,1,1*%
%TO.N,GND*%
X161500000Y-99250000D03*
%TD*%
%TO.P,H1,1,1*%
%TO.N,GND*%
X135600000Y-99250000D03*
%TD*%
D11*
%TO.P,FD5,*%
%TO.N,*%
X141000000Y-79250000D03*
%TD*%
%TO.P,FD4,*%
%TO.N,*%
X156000000Y-79250000D03*
%TD*%
D12*
%TO.P,TP8,1,1*%
%TO.N,+3V3*%
X151800000Y-95050000D03*
%TD*%
%TO.P,TP7,1,1*%
%TO.N,/Project Architecture/Connectors/NRST*%
X138250000Y-88000000D03*
%TD*%
%TO.P,TP9,1,1*%
%TO.N,GND*%
X139800000Y-91750000D03*
%TD*%
D13*
%TO.P,J2,1,Pin_1*%
%TO.N,VBUS*%
X157550000Y-88250000D03*
%TO.P,J2,2,Pin_2*%
%TO.N,GND*%
X157550000Y-90250000D03*
D14*
%TO.P,J2,MP1*%
%TO.N,N/C*%
X163300000Y-85900000D03*
%TO.P,J2,MP2*%
X163300000Y-92600000D03*
%TD*%
D15*
%TO.P,C18,1*%
%TO.N,+3V3*%
X151800000Y-92050000D03*
%TO.P,C18,2*%
%TO.N,GND*%
X153000000Y-92050000D03*
%TD*%
D16*
%TO.P,J1,1,Pin_1*%
%TO.N,+3V3*%
X136350000Y-91750000D03*
%TO.P,J1,2,Pin_2*%
%TO.N,/Project Architecture/Connectors/SWDIO*%
X136350000Y-90500000D03*
%TO.P,J1,3,Pin_3*%
%TO.N,/Project Architecture/Connectors/SWCLK*%
X136350000Y-89250000D03*
%TO.P,J1,4,Pin_4*%
%TO.N,/Project Architecture/Connectors/NRST*%
X136350000Y-88000000D03*
%TO.P,J1,5,Pin_5*%
%TO.N,GND*%
X136350000Y-86750000D03*
D17*
%TO.P,J1,MP1*%
%TO.N,N/C*%
X133150000Y-93600000D03*
%TO.P,J1,MP2*%
X133150000Y-84900000D03*
%TD*%
D18*
%TO.P,C15,1*%
%TO.N,VBUS*%
X154700000Y-88850000D03*
%TO.P,C15,2*%
%TO.N,GND*%
X154700000Y-89650000D03*
%TD*%
D19*
%TO.P,C17,1*%
%TO.N,/Project Architecture/Connectors/ADJ*%
X154700000Y-91350000D03*
%TO.P,C17,2*%
%TO.N,GND*%
X154700000Y-90550000D03*
%TD*%
D12*
%TO.P,TP5,1,1*%
%TO.N,/Project Architecture/Connectors/SWDIO*%
X138250000Y-90500000D03*
%TD*%
D15*
%TO.P,C16,1*%
%TO.N,VBUS*%
X151800000Y-86450000D03*
%TO.P,C16,2*%
%TO.N,GND*%
X153000000Y-86450000D03*
%TD*%
D20*
%TO.P,C14,1*%
%TO.N,+3V3*%
X138200000Y-91750000D03*
%TO.P,C14,2*%
%TO.N,GND*%
X139000000Y-91750000D03*
%TD*%
D21*
%TO.P,U4,1,VIN*%
%TO.N,VBUS*%
X151450000Y-88112500D03*
%TO.P,U4,2,GND*%
%TO.N,GND*%
X152400000Y-88112500D03*
%TO.P,U4,3,ON/~{OFF}*%
%TO.N,VBUS*%
X153350000Y-88112500D03*
%TO.P,U4,4,ADJ*%
%TO.N,/Project Architecture/Connectors/ADJ*%
X153350000Y-90387500D03*
%TO.P,U4,5,VOUT*%
%TO.N,+3V3*%
X151450000Y-90387500D03*
%TD*%
D11*
%TO.P,FD6,*%
%TO.N,*%
X141000000Y-99250000D03*
%TD*%
D12*
%TO.P,TP6,1,1*%
%TO.N,/Project Architecture/Connectors/SWCLK*%
X139500000Y-89250000D03*
%TD*%
D22*
%TO.N,GND*%
X140400000Y-81250000D03*
X144750000Y-93800000D03*
X135400000Y-92650000D03*
X138350000Y-83650000D03*
X157050000Y-86350000D03*
X147850000Y-88650000D03*
X150700000Y-86400000D03*
X141200000Y-81950000D03*
X160850000Y-91200000D03*
X162650000Y-87900000D03*
X148850000Y-95650000D03*
X137600000Y-82850000D03*
X160800000Y-92975000D03*
X151500000Y-85450000D03*
X153950000Y-86450000D03*
X157500000Y-91975000D03*
X136800000Y-83650000D03*
X156000000Y-89500000D03*
X136450000Y-85950000D03*
X154500000Y-87450000D03*
X145900000Y-84850000D03*
X144500000Y-98000000D03*
X142800000Y-97250000D03*
X145400000Y-98000000D03*
X140200000Y-88050000D03*
X139800000Y-91750000D03*
X147200000Y-97200000D03*
X153950000Y-92050000D03*
%TO.N,+3V3*%
X136800000Y-84450000D03*
X161800000Y-89650000D03*
X152050000Y-90100000D03*
X142800000Y-96450000D03*
X151500000Y-84600000D03*
X139600000Y-81250000D03*
X135400000Y-93450000D03*
X148800000Y-96450000D03*
%TO.N,/Project Architecture/Connectors/NRST*%
X139350000Y-88050000D03*
%TO.N,/Project Architecture/Connectors/SWCLK*%
X146750000Y-84850000D03*
%TO.N,/Project Architecture/Connectors/SWDIO*%
X147250000Y-88050000D03*
%TD*%
D23*
%TO.N,GND*%
X139000000Y-91750000D02*
X139800000Y-91750000D01*
D24*
X136450000Y-86650001D02*
X136350000Y-86750001D01*
X153950000Y-86450000D02*
X153000000Y-86450000D01*
X136450000Y-85950000D02*
X136450000Y-86650001D01*
X153000000Y-92050000D02*
X153950000Y-92050000D01*
D25*
%TO.N,VBUS*%
X153349999Y-88900001D02*
X153349999Y-88112500D01*
X151450001Y-88112500D02*
X151450001Y-88900001D01*
X151450001Y-88900001D02*
X151800000Y-89250000D01*
X153000000Y-89250000D02*
X153349999Y-88900001D01*
X151800000Y-89250000D02*
X153000000Y-89250000D01*
D24*
%TO.N,+3V3*%
X136350000Y-91749999D02*
X135149999Y-91749999D01*
X136800000Y-84450000D02*
X138850000Y-84450000D01*
X151800000Y-95150000D02*
X151800000Y-93600000D01*
D23*
X151800000Y-93162500D02*
X151787500Y-93162500D01*
D24*
X152237500Y-93162500D02*
X151800000Y-93600000D01*
X161800000Y-89650000D02*
X161150000Y-89650000D01*
X150487500Y-90387500D02*
X151450001Y-90387500D01*
X151800000Y-92725000D02*
X152237500Y-93162500D01*
X134350000Y-90950000D02*
X134350000Y-86550000D01*
D23*
X138199999Y-91749999D02*
X138200000Y-91750000D01*
D24*
X151500000Y-84600000D02*
X150700000Y-84600000D01*
X157637500Y-93162500D02*
X152750000Y-93162500D01*
X136450000Y-84450000D02*
X136800000Y-84450000D01*
X140300000Y-96450000D02*
X142800000Y-96450000D01*
X138200000Y-94350000D02*
X140300000Y-96450000D01*
X152750000Y-93162500D02*
X151800000Y-93162500D01*
X135149999Y-91749999D02*
X134350000Y-90950000D01*
D23*
X151787500Y-93162500D02*
X151700000Y-93250000D01*
D25*
X151737501Y-90100000D02*
X151450001Y-90387500D01*
D24*
X149600000Y-89500000D02*
X150487500Y-90387500D01*
X139600000Y-83700000D02*
X139600000Y-81250000D01*
X151800000Y-91726585D02*
X151800000Y-92050000D01*
X134350000Y-86550000D02*
X136450000Y-84450000D01*
D25*
X152050000Y-90100000D02*
X151737501Y-90100000D01*
D24*
X150500000Y-96450000D02*
X151800000Y-95150000D01*
X150700000Y-84600000D02*
X149600000Y-85700000D01*
X138850000Y-84450000D02*
X139600000Y-83700000D01*
X151800000Y-93600000D02*
X151800000Y-92050000D01*
X135400000Y-93450000D02*
X136100000Y-93450000D01*
X151800000Y-92050000D02*
X151800000Y-92725000D01*
X138200000Y-91750000D02*
X138200000Y-94350000D01*
X149600000Y-85700000D02*
X149600000Y-89500000D01*
X152750000Y-93162500D02*
X152237500Y-93162500D01*
X136100000Y-93450000D02*
X136350000Y-93200000D01*
X142800000Y-96450000D02*
X150500000Y-96450000D01*
X161150000Y-89650000D02*
X157637500Y-93162500D01*
D23*
X151800000Y-93162500D02*
X151800000Y-92050000D01*
X136350000Y-91749999D02*
X138199999Y-91749999D01*
D24*
X136350000Y-93200000D02*
X136350000Y-91749999D01*
D25*
%TO.N,/Project Architecture/Connectors/NRST*%
X136350000Y-88000000D02*
X138250000Y-88000000D01*
X138250000Y-88000000D02*
X139300000Y-88000000D01*
X139300000Y-88000000D02*
X139350000Y-88050000D01*
%TO.N,/Project Architecture/Connectors/SWCLK*%
X146750000Y-87450000D02*
X146750000Y-84850000D01*
X139500000Y-89250000D02*
X144950000Y-89250000D01*
X136350001Y-89250000D02*
X139500000Y-89250000D01*
X144950000Y-89250000D02*
X146750000Y-87450000D01*
%TO.N,/Project Architecture/Connectors/SWDIO*%
X144800000Y-90500000D02*
X147250000Y-88050000D01*
X138250000Y-90500000D02*
X144800000Y-90500000D01*
X136350000Y-90500000D02*
X138250000Y-90500000D01*
%TD*%
%TA.AperFunction,Conductor*%
%TO.N,GND*%
G36*
X153359191Y-86368907D02*
G01*
X153395155Y-86418407D01*
X153400000Y-86449000D01*
X153400000Y-86758992D01*
X153381093Y-86817183D01*
X153371004Y-86828996D01*
X152700000Y-87500000D01*
X152700000Y-88001000D01*
X152681093Y-88059191D01*
X152631593Y-88095155D01*
X152601000Y-88100000D01*
X152199000Y-88100000D01*
X152140809Y-88081093D01*
X152104845Y-88031593D01*
X152100000Y-88001000D01*
X152100000Y-87541007D01*
X152118907Y-87482816D01*
X152128990Y-87471009D01*
X152600000Y-87000000D01*
X152600000Y-86449000D01*
X152618907Y-86390809D01*
X152668407Y-86354845D01*
X152699000Y-86350000D01*
X153301000Y-86350000D01*
X153359191Y-86368907D01*
G37*
%TD.AperFunction*%
%TD*%
%TA.AperFunction,Conductor*%
%TO.N,VBUS*%
G36*
X151867183Y-86018907D02*
G01*
X151878996Y-86028996D01*
X152121004Y-86271004D01*
X152148781Y-86325521D01*
X152150000Y-86341008D01*
X152150000Y-86908992D01*
X152131093Y-86967183D01*
X152121004Y-86978995D01*
X151750000Y-87349999D01*
X151750000Y-88051000D01*
X151731093Y-88109191D01*
X151681593Y-88145155D01*
X151651000Y-88150000D01*
X151249000Y-88150000D01*
X151190809Y-88131093D01*
X151154845Y-88081593D01*
X151150000Y-88051000D01*
X151150000Y-86580813D01*
X151158949Y-86539682D01*
X151159001Y-86539566D01*
X151160931Y-86535342D01*
X151180390Y-86400000D01*
X151171051Y-86335049D01*
X151181483Y-86274763D01*
X151199034Y-86250965D01*
X151421004Y-86028996D01*
X151475520Y-86001219D01*
X151491007Y-86000000D01*
X151808992Y-86000000D01*
X151867183Y-86018907D01*
G37*
%TD.AperFunction*%
%TD*%
%TA.AperFunction,Conductor*%
%TO.N,+3V3*%
G36*
X151717183Y-89718907D02*
G01*
X151728996Y-89728996D01*
X152171004Y-90171004D01*
X152198781Y-90225521D01*
X152200000Y-90241008D01*
X152200000Y-92358992D01*
X152181093Y-92417183D01*
X152171004Y-92428996D01*
X152128996Y-92471004D01*
X152074479Y-92498781D01*
X152058992Y-92500000D01*
X151441008Y-92500000D01*
X151382817Y-92481093D01*
X151371004Y-92471004D01*
X151178996Y-92278996D01*
X151151219Y-92224479D01*
X151150000Y-92208992D01*
X151150000Y-89891008D01*
X151168907Y-89832817D01*
X151178996Y-89821004D01*
X151271004Y-89728996D01*
X151325521Y-89701219D01*
X151341008Y-89700000D01*
X151658992Y-89700000D01*
X151717183Y-89718907D01*
G37*
%TD.AperFunction*%
%TD*%
%TA.AperFunction,Conductor*%
%TO.N,VBUS*%
G36*
X153344945Y-87501797D02*
G01*
X153370000Y-87520000D01*
X153850000Y-88000000D01*
X155100000Y-88000000D01*
X155251000Y-87849000D01*
X155321005Y-87778996D01*
X155350000Y-87764222D01*
X155350000Y-88750000D01*
X155000000Y-89100000D01*
X154700000Y-89100000D01*
X153491008Y-89100000D01*
X153432817Y-89081093D01*
X153421004Y-89071004D01*
X153078996Y-88728996D01*
X153051219Y-88674479D01*
X153050000Y-88658992D01*
X153050000Y-87741008D01*
X153068907Y-87682817D01*
X153078996Y-87671005D01*
X153229996Y-87520004D01*
X153284513Y-87492226D01*
X153344945Y-87501797D01*
G37*
%TD.AperFunction*%
%TD*%
%TA.AperFunction,Conductor*%
%TO.N,/Project Architecture/Connectors/ADJ*%
G36*
X153419001Y-90069001D02*
G01*
X154450000Y-91100000D01*
X154551000Y-91100000D01*
X154609191Y-91118907D01*
X154645155Y-91168407D01*
X154650000Y-91199000D01*
X154650000Y-91501000D01*
X154631093Y-91559191D01*
X154581593Y-91595155D01*
X154551000Y-91600000D01*
X154119447Y-91600000D01*
X154091555Y-91595990D01*
X154088711Y-91595155D01*
X154080886Y-91592857D01*
X154051294Y-91584168D01*
X154009182Y-91559182D01*
X153951000Y-91501000D01*
X153500000Y-91050000D01*
X153499999Y-91050000D01*
X153349000Y-91050000D01*
X153290809Y-91031093D01*
X153254845Y-90981593D01*
X153250000Y-90951000D01*
X153250000Y-90139007D01*
X153268907Y-90080816D01*
X153318407Y-90044852D01*
X153379593Y-90044852D01*
X153419001Y-90069001D01*
G37*
%TD.AperFunction*%
%TD*%
%TA.AperFunction,Conductor*%
%TO.N,GND*%
G36*
X158867183Y-89418907D02*
G01*
X158878996Y-89428996D01*
X159271004Y-89821004D01*
X159298781Y-89875521D01*
X159300000Y-89891008D01*
X159300000Y-90508992D01*
X159281093Y-90567183D01*
X159271004Y-90578996D01*
X159078996Y-90771004D01*
X159024479Y-90798781D01*
X159008992Y-90800000D01*
X154691008Y-90800000D01*
X154632817Y-90781093D01*
X154621004Y-90771004D01*
X154478996Y-90628996D01*
X154451219Y-90574479D01*
X154450000Y-90558992D01*
X154450000Y-89691008D01*
X154468907Y-89632817D01*
X154478996Y-89621004D01*
X154671004Y-89428996D01*
X154725521Y-89401219D01*
X154741008Y-89400000D01*
X158808992Y-89400000D01*
X158867183Y-89418907D01*
G37*
%TD.AperFunction*%
%TD*%
%TA.AperFunction,Conductor*%
%TO.N,VBUS*%
G36*
X159117183Y-87768907D02*
G01*
X159128996Y-87778996D01*
X159271004Y-87921004D01*
X159298781Y-87975521D01*
X159300000Y-87991008D01*
X159300000Y-88608992D01*
X159281093Y-88667183D01*
X159271004Y-88678996D01*
X158878996Y-89071004D01*
X158824479Y-89098781D01*
X158808992Y-89100000D01*
X156286170Y-89100000D01*
X156232649Y-89084285D01*
X156199562Y-89063022D01*
X156068368Y-89024500D01*
X156068367Y-89024500D01*
X155931633Y-89024500D01*
X155931631Y-89024500D01*
X155800437Y-89063022D01*
X155767351Y-89084285D01*
X155713830Y-89100000D01*
X155000000Y-89100000D01*
X155350000Y-88750000D01*
X155350000Y-87764222D01*
X155375521Y-87751219D01*
X155391008Y-87750000D01*
X159058992Y-87750000D01*
X159117183Y-87768907D01*
G37*
%TD.AperFunction*%
%TD*%
M02*
