%TF.GenerationSoftware,KiCad,Pcbnew,8.0.8+1*%
%TF.CreationDate,Date%
%TF.ProjectId,KiBot_Project_Test,4b69426f-745f-4507-926f-6a6563745f54,+ (Unreleased)*%
%TF.SameCoordinates,Original*%
%TF.FileFunction,Copper,L2,Inr*%
%TF.FilePolarity,Positive*%
%FSLAX46Y46*%
G04 Gerber Fmt 4.6, Leading zero omitted, Abs format (unit mm)*
G04 Created by KiCad*
%MOMM*%
%LPD*%
G01*
G04 APERTURE LIST*
%TA.AperFunction,ComponentPad*%
%ADD10C,6.400000*%
%TD*%
%TA.AperFunction,ViaPad*%
%ADD11C,0.550000*%
%TD*%
G04 APERTURE END LIST*
D10*
%TO.N,GND*%
%TO.C,H3*%
X161500000Y-79250000D03*
%TD*%
%TO.N,GND*%
%TO.C,H4*%
X135500000Y-79250000D03*
%TD*%
%TO.N,GND*%
%TO.C,H2*%
X161500000Y-99250000D03*
%TD*%
%TO.N,GND*%
%TO.C,H1*%
X135600000Y-99250000D03*
%TD*%
D11*
%TO.N,GND*%
X140400000Y-81250000D03*
X144750000Y-93800000D03*
X135400000Y-92650000D03*
X138350000Y-83650000D03*
X157050000Y-86350000D03*
X147850000Y-88650000D03*
X150700000Y-86400000D03*
X141200000Y-81950000D03*
X160850000Y-91200000D03*
X162650000Y-87900000D03*
X148800000Y-95650000D03*
X137600000Y-82850000D03*
X160800000Y-92975000D03*
X151500000Y-85450000D03*
X153950000Y-86450000D03*
X157500000Y-91975000D03*
X136800000Y-83650000D03*
X156000000Y-89500000D03*
X136450000Y-85950000D03*
X154500000Y-87450000D03*
X145900000Y-84850000D03*
X144500000Y-98000000D03*
X142800000Y-97250000D03*
X145400000Y-98000000D03*
X140200000Y-88050000D03*
X139800000Y-91750000D03*
X147200000Y-97200000D03*
X153950000Y-92050000D03*
%TO.N,+3V3*%
X136800000Y-84450000D03*
X161800000Y-89650000D03*
X152050000Y-90100000D03*
X142800000Y-96450000D03*
X151500000Y-84600000D03*
X139600000Y-81250000D03*
X135400000Y-93450000D03*
X148800000Y-96450000D03*
%TO.N,/Project Architecture/Connectors/NRST*%
X139350000Y-88050000D03*
%TO.N,/Project Architecture/Connectors/SWCLK*%
X146750000Y-84850000D03*
%TO.N,/Project Architecture/Connectors/SWDIO*%
X147250000Y-88050000D03*
%TD*%
%TA.AperFunction,Conductor*%
%TO.N,GND*%
G36*
X161502422Y-75500619D02*
G01*
X161862679Y-75518317D01*
X161872319Y-75519267D01*
X162226687Y-75571833D01*
X162236193Y-75573723D01*
X162583715Y-75660773D01*
X162592986Y-75663585D01*
X162930296Y-75784276D01*
X162939265Y-75787991D01*
X163263112Y-75941159D01*
X163271675Y-75945737D01*
X163578935Y-76129902D01*
X163587013Y-76135299D01*
X163874755Y-76348703D01*
X163882265Y-76354867D01*
X164043234Y-76500760D01*
X164147698Y-76595441D01*
X164154563Y-76602306D01*
X164395132Y-76867734D01*
X164401296Y-76875244D01*
X164614700Y-77162986D01*
X164620097Y-77171064D01*
X164804262Y-77478324D01*
X164808842Y-77486892D01*
X164962006Y-77810731D01*
X164965724Y-77819707D01*
X165086410Y-78157000D01*
X165089230Y-78166297D01*
X165176273Y-78513795D01*
X165178168Y-78523324D01*
X165230730Y-78877666D01*
X165231683Y-78887334D01*
X165249381Y-79247577D01*
X165249500Y-79252435D01*
X165249500Y-99247564D01*
X165249381Y-99252422D01*
X165231683Y-99612665D01*
X165230730Y-99622333D01*
X165178168Y-99976675D01*
X165176273Y-99986204D01*
X165089230Y-100333702D01*
X165086410Y-100342999D01*
X164965724Y-100680292D01*
X164962006Y-100689268D01*
X164808842Y-101013107D01*
X164804262Y-101021675D01*
X164620097Y-101328935D01*
X164614700Y-101337013D01*
X164401296Y-101624755D01*
X164395132Y-101632265D01*
X164154563Y-101897693D01*
X164147693Y-101904563D01*
X163882265Y-102145132D01*
X163874755Y-102151296D01*
X163587013Y-102364700D01*
X163578935Y-102370097D01*
X163271675Y-102554262D01*
X163263107Y-102558842D01*
X162939268Y-102712006D01*
X162930292Y-102715724D01*
X162592999Y-102836410D01*
X162583702Y-102839230D01*
X162236204Y-102926273D01*
X162226675Y-102928168D01*
X161872333Y-102980730D01*
X161862665Y-102981683D01*
X161502422Y-102999381D01*
X161497564Y-102999500D01*
X135502436Y-102999500D01*
X135497578Y-102999381D01*
X135137334Y-102981683D01*
X135127666Y-102980730D01*
X134773324Y-102928168D01*
X134763795Y-102926273D01*
X134416297Y-102839230D01*
X134407000Y-102836410D01*
X134069707Y-102715724D01*
X134060731Y-102712006D01*
X133736892Y-102558842D01*
X133728324Y-102554262D01*
X133421064Y-102370097D01*
X133412986Y-102364700D01*
X133125244Y-102151296D01*
X133117734Y-102145132D01*
X132852306Y-101904563D01*
X132845441Y-101897698D01*
X132750760Y-101793234D01*
X132604867Y-101632265D01*
X132598703Y-101624755D01*
X132385299Y-101337013D01*
X132379902Y-101328935D01*
X132195737Y-101021675D01*
X132191157Y-101013107D01*
X132037993Y-100689268D01*
X132034275Y-100680292D01*
X131913585Y-100342986D01*
X131910773Y-100333715D01*
X131823723Y-99986193D01*
X131821833Y-99976687D01*
X131769267Y-99622319D01*
X131768317Y-99612679D01*
X131750619Y-99252422D01*
X131750500Y-99247564D01*
X131750500Y-96449997D01*
X142319610Y-96449997D01*
X142319610Y-96450002D01*
X142339067Y-96585337D01*
X142339069Y-96585345D01*
X142395868Y-96709715D01*
X142395869Y-96709716D01*
X142395870Y-96709718D01*
X142485411Y-96813055D01*
X142600439Y-96886978D01*
X142731633Y-96925500D01*
X142731634Y-96925500D01*
X142868366Y-96925500D01*
X142868367Y-96925500D01*
X142999561Y-96886978D01*
X143114589Y-96813055D01*
X143204130Y-96709718D01*
X143260931Y-96585342D01*
X143280390Y-96450000D01*
X143280390Y-96449997D01*
X148319610Y-96449997D01*
X148319610Y-96450002D01*
X148339067Y-96585337D01*
X148339069Y-96585345D01*
X148395868Y-96709715D01*
X148395869Y-96709716D01*
X148395870Y-96709718D01*
X148485411Y-96813055D01*
X148600439Y-96886978D01*
X148731633Y-96925500D01*
X148731634Y-96925500D01*
X148868366Y-96925500D01*
X148868367Y-96925500D01*
X148999561Y-96886978D01*
X149114589Y-96813055D01*
X149204130Y-96709718D01*
X149260931Y-96585342D01*
X149280390Y-96450000D01*
X149260931Y-96314658D01*
X149260930Y-96314654D01*
X149204131Y-96190284D01*
X149204130Y-96190283D01*
X149204130Y-96190282D01*
X149114589Y-96086945D01*
X148999561Y-96013022D01*
X148999558Y-96013021D01*
X148868368Y-95974500D01*
X148868367Y-95974500D01*
X148731633Y-95974500D01*
X148731631Y-95974500D01*
X148600441Y-96013021D01*
X148600439Y-96013021D01*
X148600439Y-96013022D01*
X148485411Y-96086945D01*
X148485410Y-96086945D01*
X148485410Y-96086946D01*
X148395868Y-96190284D01*
X148339069Y-96314654D01*
X148339067Y-96314662D01*
X148319610Y-96449997D01*
X143280390Y-96449997D01*
X143260931Y-96314658D01*
X143260930Y-96314654D01*
X143204131Y-96190284D01*
X143204130Y-96190283D01*
X143204130Y-96190282D01*
X143114589Y-96086945D01*
X142999561Y-96013022D01*
X142999558Y-96013021D01*
X142868368Y-95974500D01*
X142868367Y-95974500D01*
X142731633Y-95974500D01*
X142731631Y-95974500D01*
X142600441Y-96013021D01*
X142600439Y-96013021D01*
X142600439Y-96013022D01*
X142485411Y-96086945D01*
X142485410Y-96086945D01*
X142485410Y-96086946D01*
X142395868Y-96190284D01*
X142339069Y-96314654D01*
X142339067Y-96314662D01*
X142319610Y-96449997D01*
X131750500Y-96449997D01*
X131750500Y-93449997D01*
X134919610Y-93449997D01*
X134919610Y-93450002D01*
X134939067Y-93585337D01*
X134939069Y-93585345D01*
X134995868Y-93709715D01*
X134995869Y-93709716D01*
X134995870Y-93709718D01*
X135085411Y-93813055D01*
X135200439Y-93886978D01*
X135331633Y-93925500D01*
X135331634Y-93925500D01*
X135468366Y-93925500D01*
X135468367Y-93925500D01*
X135599561Y-93886978D01*
X135714589Y-93813055D01*
X135804130Y-93709718D01*
X135860931Y-93585342D01*
X135880390Y-93450000D01*
X135860931Y-93314658D01*
X135860930Y-93314654D01*
X135804131Y-93190284D01*
X135804130Y-93190283D01*
X135804130Y-93190282D01*
X135714589Y-93086945D01*
X135599561Y-93013022D01*
X135599558Y-93013021D01*
X135468368Y-92974500D01*
X135468367Y-92974500D01*
X135331633Y-92974500D01*
X135331631Y-92974500D01*
X135200441Y-93013021D01*
X135200439Y-93013021D01*
X135200439Y-93013022D01*
X135085411Y-93086945D01*
X135085410Y-93086945D01*
X135085410Y-93086946D01*
X134995868Y-93190284D01*
X134939069Y-93314654D01*
X134939067Y-93314662D01*
X134919610Y-93449997D01*
X131750500Y-93449997D01*
X131750500Y-90099997D01*
X151569610Y-90099997D01*
X151569610Y-90100002D01*
X151589067Y-90235337D01*
X151589069Y-90235345D01*
X151645868Y-90359715D01*
X151645869Y-90359716D01*
X151645870Y-90359718D01*
X151735411Y-90463055D01*
X151850439Y-90536978D01*
X151981633Y-90575500D01*
X151981634Y-90575500D01*
X152118366Y-90575500D01*
X152118367Y-90575500D01*
X152249561Y-90536978D01*
X152364589Y-90463055D01*
X152454130Y-90359718D01*
X152510931Y-90235342D01*
X152530390Y-90100000D01*
X152517889Y-90013055D01*
X152510932Y-89964662D01*
X152510930Y-89964654D01*
X152454131Y-89840284D01*
X152454130Y-89840283D01*
X152454130Y-89840282D01*
X152364589Y-89736945D01*
X152249561Y-89663022D01*
X152249558Y-89663021D01*
X152205202Y-89649997D01*
X161319610Y-89649997D01*
X161319610Y-89650002D01*
X161339067Y-89785337D01*
X161339069Y-89785345D01*
X161395868Y-89909715D01*
X161395869Y-89909716D01*
X161395870Y-89909718D01*
X161485411Y-90013055D01*
X161600439Y-90086978D01*
X161731633Y-90125500D01*
X161731634Y-90125500D01*
X161868366Y-90125500D01*
X161868367Y-90125500D01*
X161999561Y-90086978D01*
X162114589Y-90013055D01*
X162204130Y-89909718D01*
X162260931Y-89785342D01*
X162267889Y-89736946D01*
X162280390Y-89650002D01*
X162280390Y-89649997D01*
X162260932Y-89514662D01*
X162260930Y-89514654D01*
X162204131Y-89390284D01*
X162204130Y-89390283D01*
X162204130Y-89390282D01*
X162114589Y-89286945D01*
X161999561Y-89213022D01*
X161999558Y-89213021D01*
X161868368Y-89174500D01*
X161868367Y-89174500D01*
X161731633Y-89174500D01*
X161731631Y-89174500D01*
X161600441Y-89213021D01*
X161600439Y-89213021D01*
X161600439Y-89213022D01*
X161485411Y-89286945D01*
X161485410Y-89286945D01*
X161485410Y-89286946D01*
X161395868Y-89390284D01*
X161339069Y-89514654D01*
X161339067Y-89514662D01*
X161319610Y-89649997D01*
X152205202Y-89649997D01*
X152118368Y-89624500D01*
X152118367Y-89624500D01*
X151981633Y-89624500D01*
X151981631Y-89624500D01*
X151850441Y-89663021D01*
X151850439Y-89663021D01*
X151850439Y-89663022D01*
X151735411Y-89736945D01*
X151735410Y-89736945D01*
X151735410Y-89736946D01*
X151645868Y-89840284D01*
X151589069Y-89964654D01*
X151589067Y-89964662D01*
X151569610Y-90099997D01*
X131750500Y-90099997D01*
X131750500Y-88049997D01*
X138869610Y-88049997D01*
X138869610Y-88050002D01*
X138889067Y-88185337D01*
X138889069Y-88185345D01*
X138945868Y-88309715D01*
X138945869Y-88309716D01*
X138945870Y-88309718D01*
X139035411Y-88413055D01*
X139150439Y-88486978D01*
X139281633Y-88525500D01*
X139281634Y-88525500D01*
X139418366Y-88525500D01*
X139418367Y-88525500D01*
X139549561Y-88486978D01*
X139664589Y-88413055D01*
X139754130Y-88309718D01*
X139810931Y-88185342D01*
X139830390Y-88050000D01*
X139830390Y-88049997D01*
X146769610Y-88049997D01*
X146769610Y-88050002D01*
X146789067Y-88185337D01*
X146789069Y-88185345D01*
X146845868Y-88309715D01*
X146845869Y-88309716D01*
X146845870Y-88309718D01*
X146935411Y-88413055D01*
X147050439Y-88486978D01*
X147181633Y-88525500D01*
X147181634Y-88525500D01*
X147318366Y-88525500D01*
X147318367Y-88525500D01*
X147449561Y-88486978D01*
X147564589Y-88413055D01*
X147654130Y-88309718D01*
X147710931Y-88185342D01*
X147730390Y-88050000D01*
X147710931Y-87914658D01*
X147710930Y-87914654D01*
X147654131Y-87790284D01*
X147654130Y-87790283D01*
X147654130Y-87790282D01*
X147564589Y-87686945D01*
X147449561Y-87613022D01*
X147449558Y-87613021D01*
X147318368Y-87574500D01*
X147318367Y-87574500D01*
X147181633Y-87574500D01*
X147181631Y-87574500D01*
X147050441Y-87613021D01*
X147050439Y-87613021D01*
X147050439Y-87613022D01*
X146935411Y-87686945D01*
X146935410Y-87686945D01*
X146935410Y-87686946D01*
X146845868Y-87790284D01*
X146789069Y-87914654D01*
X146789067Y-87914662D01*
X146769610Y-88049997D01*
X139830390Y-88049997D01*
X139810931Y-87914658D01*
X139810930Y-87914654D01*
X139754131Y-87790284D01*
X139754130Y-87790283D01*
X139754130Y-87790282D01*
X139664589Y-87686945D01*
X139549561Y-87613022D01*
X139549558Y-87613021D01*
X139418368Y-87574500D01*
X139418367Y-87574500D01*
X139281633Y-87574500D01*
X139281631Y-87574500D01*
X139150441Y-87613021D01*
X139150439Y-87613021D01*
X139150439Y-87613022D01*
X139035411Y-87686945D01*
X139035410Y-87686945D01*
X139035410Y-87686946D01*
X138945868Y-87790284D01*
X138889069Y-87914654D01*
X138889067Y-87914662D01*
X138869610Y-88049997D01*
X131750500Y-88049997D01*
X131750500Y-84449997D01*
X136319610Y-84449997D01*
X136319610Y-84450002D01*
X136339067Y-84585337D01*
X136339069Y-84585345D01*
X136395868Y-84709715D01*
X136395869Y-84709716D01*
X136395870Y-84709718D01*
X136485411Y-84813055D01*
X136600439Y-84886978D01*
X136731633Y-84925500D01*
X136731634Y-84925500D01*
X136868366Y-84925500D01*
X136868367Y-84925500D01*
X136999561Y-84886978D01*
X137057105Y-84849997D01*
X146269610Y-84849997D01*
X146269610Y-84850002D01*
X146289067Y-84985337D01*
X146289069Y-84985345D01*
X146345868Y-85109715D01*
X146345869Y-85109716D01*
X146345870Y-85109718D01*
X146435411Y-85213055D01*
X146550439Y-85286978D01*
X146681633Y-85325500D01*
X146681634Y-85325500D01*
X146818366Y-85325500D01*
X146818367Y-85325500D01*
X146949561Y-85286978D01*
X147064589Y-85213055D01*
X147154130Y-85109718D01*
X147182530Y-85047530D01*
X147210930Y-84985345D01*
X147210932Y-84985337D01*
X147230390Y-84850002D01*
X147230390Y-84849997D01*
X147210932Y-84714662D01*
X147210930Y-84714654D01*
X147158567Y-84599997D01*
X151019610Y-84599997D01*
X151019610Y-84600002D01*
X151039067Y-84735337D01*
X151039069Y-84735345D01*
X151095868Y-84859715D01*
X151095869Y-84859716D01*
X151095870Y-84859718D01*
X151185411Y-84963055D01*
X151300439Y-85036978D01*
X151431633Y-85075500D01*
X151431634Y-85075500D01*
X151568366Y-85075500D01*
X151568367Y-85075500D01*
X151699561Y-85036978D01*
X151814589Y-84963055D01*
X151904130Y-84859718D01*
X151960931Y-84735342D01*
X151960932Y-84735337D01*
X151980390Y-84600002D01*
X151980390Y-84599997D01*
X151960932Y-84464662D01*
X151960930Y-84464654D01*
X151904131Y-84340284D01*
X151904130Y-84340283D01*
X151904130Y-84340282D01*
X151814589Y-84236945D01*
X151699561Y-84163022D01*
X151699558Y-84163021D01*
X151568368Y-84124500D01*
X151568367Y-84124500D01*
X151431633Y-84124500D01*
X151431631Y-84124500D01*
X151300441Y-84163021D01*
X151300439Y-84163021D01*
X151300439Y-84163022D01*
X151185411Y-84236945D01*
X151185410Y-84236945D01*
X151185410Y-84236946D01*
X151095868Y-84340284D01*
X151039069Y-84464654D01*
X151039067Y-84464662D01*
X151019610Y-84599997D01*
X147158567Y-84599997D01*
X147154131Y-84590284D01*
X147154130Y-84590283D01*
X147154130Y-84590282D01*
X147064589Y-84486945D01*
X146949561Y-84413022D01*
X146949558Y-84413021D01*
X146818368Y-84374500D01*
X146818367Y-84374500D01*
X146681633Y-84374500D01*
X146681631Y-84374500D01*
X146550441Y-84413021D01*
X146550439Y-84413021D01*
X146550439Y-84413022D01*
X146435411Y-84486945D01*
X146435410Y-84486945D01*
X146435410Y-84486946D01*
X146345868Y-84590284D01*
X146289069Y-84714654D01*
X146289067Y-84714662D01*
X146269610Y-84849997D01*
X137057105Y-84849997D01*
X137114589Y-84813055D01*
X137204130Y-84709718D01*
X137254237Y-84600000D01*
X137260930Y-84585345D01*
X137260932Y-84585337D01*
X137280390Y-84450002D01*
X137280390Y-84449997D01*
X137260932Y-84314662D01*
X137260930Y-84314654D01*
X137204131Y-84190284D01*
X137204130Y-84190283D01*
X137204130Y-84190282D01*
X137114589Y-84086945D01*
X136999561Y-84013022D01*
X136999558Y-84013021D01*
X136868368Y-83974500D01*
X136868367Y-83974500D01*
X136731633Y-83974500D01*
X136731631Y-83974500D01*
X136600441Y-84013021D01*
X136600439Y-84013021D01*
X136600439Y-84013022D01*
X136485411Y-84086945D01*
X136485410Y-84086945D01*
X136485410Y-84086946D01*
X136395868Y-84190284D01*
X136339069Y-84314654D01*
X136339067Y-84314662D01*
X136319610Y-84449997D01*
X131750500Y-84449997D01*
X131750500Y-81249997D01*
X139119610Y-81249997D01*
X139119610Y-81250002D01*
X139139067Y-81385337D01*
X139139069Y-81385345D01*
X139195868Y-81509715D01*
X139195869Y-81509716D01*
X139195870Y-81509718D01*
X139285411Y-81613055D01*
X139400439Y-81686978D01*
X139531633Y-81725500D01*
X139531634Y-81725500D01*
X139668366Y-81725500D01*
X139668367Y-81725500D01*
X139799561Y-81686978D01*
X139914589Y-81613055D01*
X140004130Y-81509718D01*
X140060931Y-81385342D01*
X140080390Y-81250000D01*
X140060931Y-81114658D01*
X140060930Y-81114654D01*
X140004131Y-80990284D01*
X140004130Y-80990283D01*
X140004130Y-80990282D01*
X139914589Y-80886945D01*
X139799561Y-80813022D01*
X139799558Y-80813021D01*
X139668368Y-80774500D01*
X139668367Y-80774500D01*
X139531633Y-80774500D01*
X139531631Y-80774500D01*
X139400441Y-80813021D01*
X139400439Y-80813021D01*
X139400439Y-80813022D01*
X139285411Y-80886945D01*
X139285410Y-80886945D01*
X139285410Y-80886946D01*
X139195868Y-80990284D01*
X139139069Y-81114654D01*
X139139067Y-81114662D01*
X139119610Y-81249997D01*
X131750500Y-81249997D01*
X131750500Y-79252435D01*
X131750619Y-79247577D01*
X131760154Y-79053488D01*
X131768317Y-78887318D01*
X131769267Y-78877682D01*
X131821833Y-78523308D01*
X131823722Y-78513810D01*
X131910774Y-78166278D01*
X131913583Y-78157019D01*
X132034279Y-77819696D01*
X132037988Y-77810741D01*
X132191163Y-77486879D01*
X132195730Y-77478336D01*
X132379907Y-77171055D01*
X132385293Y-77162994D01*
X132598703Y-76875242D01*
X132604867Y-76867734D01*
X132625180Y-76845322D01*
X132845451Y-76602290D01*
X132852290Y-76595451D01*
X133117735Y-76354865D01*
X133125244Y-76348703D01*
X133270152Y-76241232D01*
X133412994Y-76135293D01*
X133421055Y-76129907D01*
X133728336Y-75945730D01*
X133736879Y-75941163D01*
X134060741Y-75787988D01*
X134069696Y-75784279D01*
X134407019Y-75663583D01*
X134416278Y-75660774D01*
X134763810Y-75573722D01*
X134773308Y-75571833D01*
X135127682Y-75519267D01*
X135137318Y-75518317D01*
X135497578Y-75500619D01*
X135502436Y-75500500D01*
X135544170Y-75500500D01*
X161455830Y-75500500D01*
X161497564Y-75500500D01*
X161502422Y-75500619D01*
G37*
%TD.AperFunction*%
%TD*%
M02*
